P3
# Created by IrfanView
75 50
255
255 0 255 255 0 255 255 0 255 255 0 255 255 0 255 
255 0 255 255 0 255 255 0 255 255 0 255 255 0 255 
255 0 255 255 0 255 255 0 255 255 0 255 255 0 255 
255 0 255 255 0 255 255 0 255 255 0 255 255 0 255 
255 0 255 255 0 255 255 0 255 255 0 255 255 0 255 
255 0 255 255 0 255 255 0 255 255 0 255 255 0 255 
255 0 255 255 0 255 255 0 255 255 0 255 255 0 255 
255 0 255 34 177 76 34 177 76 34 177 76 255 0 255 
255 0 255 255 0 255 255 0 255 255 0 255 255 0 255 
255 0 255 255 0 255 255 0 255 255 0 255 255 0 255 
255 0 255 255 0 255 255 0 255 255 0 255 255 0 255 
255 0 255 255 0 255 255 0 255 255 0 255 255 0 255 
255 0 255 255 0 255 255 0 255 255 0 255 255 0 255 
255 0 255 255 0 255 255 0 255 255 0 255 255 0 255 
255 0 255 255 0 255 255 0 255 255 0 255 255 0 255 
255 0 255 255 0 255 255 0 255 255 0 255 255 0 255 
255 0 255 255 0 255 255 0 255 255 0 255 255 0 255 
255 0 255 255 0 255 255 0 255 255 0 255 255 0 255 
255 0 255 255 0 255 255 0 255 255 0 255 255 0 255 
255 0 255 255 0 255 255 0 255 255 0 255 255 0 255 
255 0 255 255 0 255 255 0 255 255 0 255 255 0 255 
255 0 255 255 0 255 255 0 255 255 0 255 34 177 76 
34 177 76 34 177 76 34 177 76 34 177 76 34 177 76 
34 177 76 255 0 255 255 0 255 255 0 255 255 0 255 
255 0 255 255 0 255 255 0 255 255 0 255 255 0 255 
255 0 255 255 0 255 255 0 255 255 0 255 255 0 255 
255 0 255 255 0 255 255 0 255 255 0 255 255 0 255 
255 0 255 255 0 255 255 0 255 255 0 255 255 0 255 
255 0 255 255 0 255 255 0 255 255 0 255 255 0 255 
255 0 255 255 0 255 255 0 255 255 0 255 255 0 255 
255 0 255 255 0 255 255 0 255 255 0 255 255 0 255 
255 0 255 255 0 255 255 0 255 255 0 255 255 0 255 
255 0 255 255 0 255 255 0 255 255 0 255 255 0 255 
255 0 255 255 0 255 255 0 255 255 0 255 255 0 255 
255 0 255 255 0 255 255 0 255 255 0 255 255 0 255 
255 0 255 255 0 255 255 0 255 255 0 255 255 0 255 
255 0 255 255 0 255 255 0 255 34 177 76 34 177 76 
34 177 76 34 177 76 34 177 76 34 177 76 34 177 76 
34 177 76 34 177 76 255 0 255 255 0 255 255 0 255 
255 0 255 255 0 255 255 0 255 255 0 255 255 0 255 
255 0 255 255 0 255 255 0 255 255 0 255 255 0 255 
255 0 255 255 0 255 255 0 255 255 0 255 255 0 255 
255 0 255 255 0 255 255 0 255 255 0 255 255 0 255 
255 0 255 255 0 255 255 0 255 255 0 255 255 0 255 
255 0 255 255 0 255 255 0 255 255 0 255 255 0 255 
255 0 255 255 0 255 255 0 255 255 0 255 255 0 255 
255 0 255 255 0 255 255 0 255 255 0 255 255 0 255 
255 0 255 255 0 255 255 0 255 255 0 255 255 0 255 
255 0 255 255 0 255 255 0 255 255 0 255 255 0 255 
255 0 255 255 0 255 255 0 255 255 0 255 255 0 255 
255 0 255 255 0 255 255 0 255 255 0 255 255 0 255 
255 0 255 34 177 76 34 177 76 34 177 76 34 177 76 
34 177 76 34 177 76 34 177 76 34 177 76 34 177 76 
34 177 76 34 177 76 34 177 76 34 177 76 255 0 255 
255 0 255 255 0 255 255 0 255 255 0 255 255 0 255 
255 0 255 255 0 255 255 0 255 255 0 255 255 0 255 
255 0 255 255 0 255 255 0 255 255 0 255 255 0 255 
255 0 255 255 0 255 255 0 255 255 0 255 255 0 255 
255 0 255 255 0 255 255 0 255 255 0 255 255 0 255 
255 0 255 255 0 255 255 0 255 255 0 255 255 0 255 
255 0 255 255 0 255 255 0 255 255 0 255 255 0 255 
255 0 255 255 0 255 255 0 255 255 0 255 255 0 255 
255 0 255 255 0 255 255 0 255 255 0 255 255 0 255 
255 0 255 255 0 255 255 0 255 255 0 255 255 0 255 
255 0 255 255 0 255 255 0 255 255 0 255 255 0 255 
255 0 255 255 0 255 255 0 255 255 0 255 34 177 76 
34 177 76 34 177 76 34 177 76 34 177 76 34 177 76 
34 177 76 34 177 76 34 177 76 34 177 76 34 177 76 
34 177 76 34 177 76 34 177 76 34 177 76 34 177 76 
34 177 76 255 0 255 255 0 255 255 0 255 255 0 255 
255 0 255 255 0 255 255 0 255 255 0 255 255 0 255 
255 0 255 255 0 255 255 0 255 255 0 255 255 0 255 
255 0 255 255 0 255 255 0 255 255 0 255 255 0 255 
255 0 255 255 0 255 255 0 255 255 0 255 255 0 255 
255 0 255 255 0 255 255 0 255 255 0 255 255 0 255 
255 0 255 255 0 255 255 0 255 255 0 255 255 0 255 
255 0 255 255 0 255 255 0 255 255 0 255 255 0 255 
255 0 255 255 0 255 255 0 255 255 0 255 255 0 255 
255 0 255 255 0 255 255 0 255 255 0 255 255 0 255 
255 0 255 255 0 255 255 0 255 255 0 255 255 0 255 
255 0 255 255 0 255 34 177 76 34 177 76 34 177 76 
34 177 76 34 177 76 34 177 76 34 177 76 34 177 76 
34 177 76 34 177 76 34 177 76 34 177 76 34 177 76 
34 177 76 34 177 76 34 177 76 34 177 76 34 177 76 
34 177 76 34 177 76 34 177 76 255 0 255 255 0 255 
255 0 255 255 0 255 255 0 255 255 0 255 255 0 255 
255 0 255 255 0 255 255 0 255 255 0 255 255 0 255 
255 0 255 255 0 255 255 0 255 255 0 255 255 0 255 
255 0 255 255 0 255 255 0 255 255 0 255 255 0 255 
255 0 255 255 0 255 255 0 255 255 0 255 255 0 255 
255 0 255 255 0 255 255 0 255 255 0 255 255 0 255 
255 0 255 255 0 255 255 0 255 255 0 255 255 0 255 
255 0 255 255 0 255 255 0 255 255 0 255 255 0 255 
255 0 255 255 0 255 255 0 255 255 0 255 255 0 255 
255 0 255 255 0 255 255 0 255 255 0 255 255 0 255 
255 0 255 34 177 76 34 177 76 34 177 76 34 177 76 
34 177 76 34 177 76 34 177 76 34 177 76 34 177 76 
34 177 76 34 177 76 34 177 76 34 177 76 34 177 76 
34 177 76 34 177 76 34 177 76 34 177 76 34 177 76 
34 177 76 34 177 76 34 177 76 34 177 76 255 0 255 
255 0 255 255 0 255 255 0 255 255 0 255 255 0 255 
255 0 255 255 0 255 255 0 255 255 0 255 255 0 255 
255 0 255 255 0 255 255 0 255 255 0 255 255 0 255 
255 0 255 255 0 255 255 0 255 255 0 255 255 0 255 
255 0 255 255 0 255 255 0 255 255 0 255 255 0 255 
255 0 255 255 0 255 255 0 255 255 0 255 255 0 255 
255 0 255 255 0 255 255 0 255 255 0 255 255 0 255 
255 0 255 255 0 255 255 0 255 255 0 255 255 0 255 
255 0 255 255 0 255 255 0 255 255 0 255 255 0 255 
255 0 255 255 0 255 255 0 255 255 0 255 34 177 76 
34 177 76 34 177 76 34 177 76 34 177 76 34 177 76 
34 177 76 34 177 76 34 177 76 34 177 76 34 177 76 
34 177 76 34 177 76 34 177 76 34 177 76 34 177 76 
34 177 76 34 177 76 34 177 76 34 177 76 34 177 76 
34 177 76 34 177 76 34 177 76 34 177 76 34 177 76 
34 177 76 255 0 255 255 0 255 255 0 255 255 0 255 
255 0 255 255 0 255 255 0 255 255 0 255 255 0 255 
255 0 255 255 0 255 255 0 255 255 0 255 255 0 255 
255 0 255 255 0 255 255 0 255 255 0 255 255 0 255 
255 0 255 255 0 255 255 0 255 255 0 255 255 0 255 
255 0 255 255 0 255 255 0 255 255 0 255 255 0 255 
255 0 255 255 0 255 255 0 255 255 0 255 255 0 255 
255 0 255 255 0 255 255 0 255 255 0 255 255 0 255 
255 0 255 255 0 255 255 0 255 255 0 255 255 0 255 
255 0 255 255 0 255 34 177 76 34 177 76 34 177 76 
34 177 76 34 177 76 34 177 76 34 177 76 34 177 76 
34 177 76 34 177 76 34 177 76 34 177 76 34 177 76 
34 177 76 34 177 76 34 177 76 34 177 76 34 177 76 
34 177 76 34 177 76 34 177 76 34 177 76 34 177 76 
34 177 76 34 177 76 34 177 76 34 177 76 34 177 76 
34 177 76 34 177 76 34 177 76 255 0 255 255 0 255 
255 0 255 255 0 255 255 0 255 255 0 255 255 0 255 
255 0 255 255 0 255 255 0 255 255 0 255 255 0 255 
255 0 255 255 0 255 255 0 255 255 0 255 255 0 255 
255 0 255 255 0 255 255 0 255 255 0 255 255 0 255 
255 0 255 255 0 255 255 0 255 255 0 255 255 0 255 
255 0 255 255 0 255 255 0 255 255 0 255 255 0 255 
255 0 255 255 0 255 255 0 255 255 0 255 255 0 255 
255 0 255 255 0 255 255 0 255 255 0 255 255 0 255 
34 177 76 34 177 76 34 177 76 34 177 76 34 177 76 
34 177 76 34 177 76 34 177 76 34 177 76 34 177 76 
34 177 76 34 177 76 34 177 76 34 177 76 34 177 76 
34 177 76 34 177 76 34 177 76 34 177 76 34 177 76 
34 177 76 34 177 76 34 177 76 34 177 76 34 177 76 
34 177 76 34 177 76 34 177 76 34 177 76 34 177 76 
34 177 76 34 177 76 34 177 76 34 177 76 34 177 76 
255 0 255 255 0 255 255 0 255 255 0 255 255 0 255 
255 0 255 255 0 255 255 0 255 255 0 255 255 0 255 
255 0 255 255 0 255 255 0 255 255 0 255 255 0 255 
255 0 255 255 0 255 255 0 255 255 0 255 255 0 255 
255 0 255 255 0 255 255 0 255 255 0 255 255 0 255 
255 0 255 255 0 255 255 0 255 255 0 255 255 0 255 
255 0 255 255 0 255 255 0 255 255 0 255 255 0 255 
255 0 255 255 0 255 255 0 255 255 0 255 34 177 76 
34 177 76 34 177 76 34 177 76 34 177 76 34 177 76 
34 177 76 34 177 76 34 177 76 34 177 76 34 177 76 
34 177 76 34 177 76 34 177 76 34 177 76 34 177 76 
34 177 76 34 177 76 34 177 76 34 177 76 34 177 76 
34 177 76 34 177 76 34 177 76 34 177 76 34 177 76 
34 177 76 34 177 76 34 177 76 34 177 76 34 177 76 
34 177 76 34 177 76 34 177 76 34 177 76 34 177 76 
34 177 76 255 0 255 255 0 255 255 0 255 255 0 255 
255 0 255 255 0 255 255 0 255 255 0 255 255 0 255 
255 0 255 255 0 255 255 0 255 255 0 255 255 0 255 
255 0 255 255 0 255 255 0 255 255 0 255 255 0 255 
255 0 255 255 0 255 255 0 255 255 0 255 255 0 255 
255 0 255 255 0 255 255 0 255 255 0 255 255 0 255 
255 0 255 255 0 255 255 0 255 255 0 255 255 0 255 
255 0 255 255 0 255 34 177 76 34 177 76 34 177 76 
34 177 76 34 177 76 34 177 76 34 177 76 34 177 76 
34 177 76 34 177 76 34 177 76 34 177 76 34 177 76 
34 177 76 34 177 76 34 177 76 34 177 76 34 177 76 
34 177 76 34 177 76 34 177 76 34 177 76 34 177 76 
34 177 76 34 177 76 34 177 76 34 177 76 34 177 76 
34 177 76 34 177 76 34 177 76 34 177 76 34 177 76 
34 177 76 34 177 76 34 177 76 34 177 76 34 177 76 
34 177 76 34 177 76 34 177 76 255 0 255 255 0 255 
255 0 255 255 0 255 255 0 255 255 0 255 255 0 255 
255 0 255 255 0 255 255 0 255 255 0 255 255 0 255 
255 0 255 255 0 255 255 0 255 255 0 255 255 0 255 
255 0 255 255 0 255 255 0 255 255 0 255 255 0 255 
255 0 255 255 0 255 255 0 255 255 0 255 255 0 255 
255 0 255 255 0 255 255 0 255 255 0 255 255 0 255 
34 177 76 34 177 76 34 177 76 34 177 76 34 177 76 
34 177 76 34 177 76 34 177 76 34 177 76 34 177 76 
34 177 76 34 177 76 34 177 76 34 177 76 34 177 76 
34 177 76 34 177 76 34 177 76 34 177 76 34 177 76 
34 177 76 34 177 76 34 177 76 34 177 76 34 177 76 
34 177 76 34 177 76 34 177 76 34 177 76 34 177 76 
34 177 76 34 177 76 34 177 76 34 177 76 34 177 76 
34 177 76 34 177 76 34 177 76 34 177 76 34 177 76 
34 177 76 34 177 76 34 177 76 34 177 76 34 177 76 
255 0 255 255 0 255 255 0 255 255 0 255 255 0 255 
255 0 255 255 0 255 255 0 255 255 0 255 255 0 255 
255 0 255 255 0 255 255 0 255 255 0 255 255 0 255 
255 0 255 255 0 255 255 0 255 255 0 255 255 0 255 
255 0 255 255 0 255 255 0 255 255 0 255 255 0 255 
255 0 255 255 0 255 255 0 255 34 177 76 34 177 76 
34 177 76 34 177 76 34 177 76 34 177 76 34 177 76 
34 177 76 34 177 76 34 177 76 34 177 76 34 177 76 
34 177 76 34 177 76 34 177 76 34 177 76 34 177 76 
34 177 76 34 177 76 34 177 76 34 177 76 34 177 76 
34 177 76 34 177 76 34 177 76 34 177 76 34 177 76 
34 177 76 34 177 76 34 177 76 34 177 76 34 177 76 
34 177 76 34 177 76 34 177 76 34 177 76 34 177 76 
34 177 76 34 177 76 34 177 76 34 177 76 34 177 76 
34 177 76 34 177 76 34 177 76 34 177 76 34 177 76 
34 177 76 34 177 76 255 0 255 255 0 255 255 0 255 
255 0 255 255 0 255 255 0 255 255 0 255 255 0 255 
255 0 255 255 0 255 255 0 255 255 0 255 255 0 255 
255 0 255 255 0 255 255 0 255 255 0 255 255 0 255 
255 0 255 255 0 255 255 0 255 255 0 255 255 0 255 
255 0 255 255 0 255 34 177 76 34 177 76 34 177 76 
34 177 76 34 177 76 34 177 76 34 177 76 34 177 76 
34 177 76 34 177 76 34 177 76 34 177 76 34 177 76 
34 177 76 34 177 76 34 177 76 34 177 76 34 177 76 
34 177 76 34 177 76 34 177 76 34 177 76 34 177 76 
34 177 76 34 177 76 34 177 76 34 177 76 34 177 76 
34 177 76 34 177 76 34 177 76 34 177 76 34 177 76 
34 177 76 34 177 76 34 177 76 34 177 76 34 177 76 
34 177 76 34 177 76 34 177 76 34 177 76 34 177 76 
34 177 76 34 177 76 34 177 76 34 177 76 34 177 76 
34 177 76 34 177 76 34 177 76 255 0 255 255 0 255 
255 0 255 255 0 255 255 0 255 255 0 255 255 0 255 
255 0 255 255 0 255 255 0 255 255 0 255 255 0 255 
255 0 255 255 0 255 255 0 255 255 0 255 255 0 255 
255 0 255 255 0 255 255 0 255 255 0 255 255 0 255 
34 177 76 34 177 76 34 177 76 34 177 76 34 177 76 
34 177 76 34 177 76 34 177 76 34 177 76 34 177 76 
34 177 76 34 177 76 34 177 76 34 177 76 34 177 76 
34 177 76 34 177 76 34 177 76 34 177 76 34 177 76 
34 177 76 34 177 76 34 177 76 34 177 76 34 177 76 
34 177 76 34 177 76 34 177 76 34 177 76 34 177 76 
34 177 76 34 177 76 34 177 76 34 177 76 34 177 76 
34 177 76 34 177 76 34 177 76 34 177 76 34 177 76 
34 177 76 34 177 76 34 177 76 34 177 76 34 177 76 
34 177 76 34 177 76 34 177 76 34 177 76 34 177 76 
34 177 76 34 177 76 34 177 76 34 177 76 34 177 76 
255 0 255 255 0 255 255 0 255 255 0 255 255 0 255 
255 0 255 255 0 255 255 0 255 255 0 255 255 0 255 
255 0 255 255 0 255 255 0 255 255 0 255 255 0 255 
255 0 255 255 0 255 255 0 255 34 177 76 34 177 76 
34 177 76 34 177 76 34 177 76 34 177 76 34 177 76 
34 177 76 34 177 76 34 177 76 34 177 76 34 177 76 
34 177 76 34 177 76 34 177 76 34 177 76 34 177 76 
34 177 76 34 177 76 34 177 76 34 177 76 34 177 76 
34 177 76 34 177 76 34 177 76 34 177 76 34 177 76 
34 177 76 34 177 76 34 177 76 34 177 76 34 177 76 
34 177 76 34 177 76 34 177 76 34 177 76 34 177 76 
34 177 76 34 177 76 34 177 76 34 177 76 34 177 76 
34 177 76 34 177 76 34 177 76 34 177 76 34 177 76 
34 177 76 34 177 76 34 177 76 34 177 76 34 177 76 
34 177 76 34 177 76 34 177 76 34 177 76 34 177 76 
34 177 76 34 177 76 255 0 255 255 0 255 255 0 255 
255 0 255 255 0 255 255 0 255 255 0 255 255 0 255 
255 0 255 255 0 255 255 0 255 255 0 255 255 0 255 
255 0 255 34 177 76 34 177 76 34 177 76 34 177 76 
34 177 76 34 177 76 34 177 76 34 177 76 34 177 76 
34 177 76 34 177 76 34 177 76 34 177 76 34 177 76 
34 177 76 34 177 76 34 177 76 34 177 76 34 177 76 
34 177 76 34 177 76 34 177 76 34 177 76 34 177 76 
34 177 76 34 177 76 34 177 76 34 177 76 34 177 76 
34 177 76 34 177 76 34 177 76 34 177 76 34 177 76 
34 177 76 34 177 76 34 177 76 34 177 76 34 177 76 
34 177 76 34 177 76 34 177 76 34 177 76 34 177 76 
34 177 76 34 177 76 34 177 76 34 177 76 34 177 76 
34 177 76 34 177 76 34 177 76 34 177 76 34 177 76 
34 177 76 34 177 76 34 177 76 34 177 76 34 177 76 
34 177 76 34 177 76 34 177 76 34 177 76 255 0 255 
255 0 255 255 0 255 255 0 255 255 0 255 255 0 255 
255 0 255 255 0 255 255 0 255 255 0 255 255 0 255 
34 177 76 34 177 76 34 177 76 34 177 76 34 177 76 
34 177 76 34 177 76 34 177 76 34 177 76 34 177 76 
34 177 76 34 177 76 34 177 76 34 177 76 34 177 76 
34 177 76 34 177 76 34 177 76 34 177 76 34 177 76 
34 177 76 34 177 76 34 177 76 34 177 76 34 177 76 
34 177 76 34 177 76 34 177 76 34 177 76 34 177 76 
34 177 76 34 177 76 34 177 76 34 177 76 34 177 76 
34 177 76 34 177 76 34 177 76 34 177 76 34 177 76 
34 177 76 34 177 76 34 177 76 34 177 76 34 177 76 
34 177 76 34 177 76 34 177 76 34 177 76 34 177 76 
34 177 76 34 177 76 34 177 76 34 177 76 34 177 76 
34 177 76 34 177 76 34 177 76 34 177 76 34 177 76 
34 177 76 34 177 76 34 177 76 34 177 76 34 177 76 
255 0 255 255 0 255 255 0 255 255 0 255 255 0 255 
255 0 255 255 0 255 255 0 255 34 177 76 34 177 76 
34 177 76 34 177 76 34 177 76 34 177 76 34 177 76 
34 177 76 34 177 76 34 177 76 34 177 76 34 177 76 
34 177 76 34 177 76 34 177 76 34 177 76 34 177 76 
34 177 76 34 177 76 34 177 76 34 177 76 34 177 76 
34 177 76 34 177 76 34 177 76 34 177 76 34 177 76 
34 177 76 34 177 76 34 177 76 34 177 76 34 177 76 
34 177 76 34 177 76 34 177 76 34 177 76 34 177 76 
34 177 76 34 177 76 34 177 76 34 177 76 34 177 76 
34 177 76 34 177 76 34 177 76 34 177 76 34 177 76 
34 177 76 34 177 76 34 177 76 34 177 76 34 177 76 
34 177 76 34 177 76 34 177 76 34 177 76 34 177 76 
34 177 76 34 177 76 34 177 76 34 177 76 34 177 76 
34 177 76 34 177 76 34 177 76 34 177 76 34 177 76 
34 177 76 34 177 76 255 0 255 255 0 255 255 0 255 
255 0 255 34 177 76 34 177 76 34 177 76 34 177 76 
34 177 76 34 177 76 34 177 76 34 177 76 34 177 76 
34 177 76 34 177 76 34 177 76 34 177 76 34 177 76 
34 177 76 34 177 76 34 177 76 34 177 76 34 177 76 
34 177 76 34 177 76 34 177 76 34 177 76 34 177 76 
34 177 76 34 177 76 34 177 76 34 177 76 34 177 76 
34 177 76 34 177 76 34 177 76 34 177 76 34 177 76 
34 177 76 34 177 76 34 177 76 34 177 76 34 177 76 
34 177 76 34 177 76 34 177 76 34 177 76 34 177 76 
34 177 76 34 177 76 34 177 76 34 177 76 34 177 76 
34 177 76 34 177 76 34 177 76 34 177 76 34 177 76 
34 177 76 34 177 76 34 177 76 34 177 76 34 177 76 
34 177 76 34 177 76 34 177 76 34 177 76 34 177 76 
34 177 76 34 177 76 34 177 76 34 177 76 34 177 76 
34 177 76 34 177 76 34 177 76 34 177 76 255 0 255 
34 177 76 34 177 76 34 177 76 34 177 76 34 177 76 
34 177 76 34 177 76 34 177 76 34 177 76 34 177 76 
34 177 76 34 177 76 34 177 76 34 177 76 34 177 76 
34 177 76 34 177 76 34 177 76 34 177 76 34 177 76 
34 177 76 34 177 76 34 177 76 34 177 76 34 177 76 
34 177 76 34 177 76 34 177 76 34 177 76 34 177 76 
34 177 76 34 177 76 34 177 76 34 177 76 34 177 76 
34 177 76 34 177 76 34 177 76 34 177 76 34 177 76 
34 177 76 34 177 76 34 177 76 34 177 76 34 177 76 
34 177 76 34 177 76 34 177 76 34 177 76 34 177 76 
34 177 76 34 177 76 34 177 76 34 177 76 34 177 76 
34 177 76 34 177 76 34 177 76 34 177 76 34 177 76 
34 177 76 34 177 76 34 177 76 34 177 76 34 177 76 
34 177 76 34 177 76 34 177 76 34 177 76 34 177 76 
34 177 76 34 177 76 34 177 76 34 177 76 34 177 76 
34 177 76 34 177 76 34 177 76 34 177 76 34 177 76 
34 177 76 34 177 76 34 177 76 34 177 76 34 177 76 
34 177 76 34 177 76 34 177 76 34 177 76 34 177 76 
34 177 76 34 177 76 34 177 76 34 177 76 34 177 76 
34 177 76 34 177 76 34 177 76 34 177 76 34 177 76 
34 177 76 34 177 76 34 177 76 34 177 76 34 177 76 
34 177 76 34 177 76 34 177 76 34 177 76 34 177 76 
34 177 76 34 177 76 34 177 76 34 177 76 34 177 76 
34 177 76 34 177 76 34 177 76 34 177 76 34 177 76 
34 177 76 34 177 76 34 177 76 34 177 76 34 177 76 
34 177 76 34 177 76 34 177 76 34 177 76 34 177 76 
34 177 76 34 177 76 34 177 76 34 177 76 34 177 76 
34 177 76 34 177 76 34 177 76 34 177 76 34 177 76 
34 177 76 34 177 76 34 177 76 34 177 76 34 177 76 
34 177 76 34 177 76 34 177 76 34 177 76 34 177 76 
34 177 76 34 177 76 34 177 76 34 177 76 34 177 76 
34 177 76 34 177 76 34 177 76 34 177 76 34 177 76 
34 177 76 34 177 76 34 177 76 34 177 76 34 177 76 
34 177 76 34 177 76 34 177 76 34 177 76 34 177 76 
34 177 76 34 177 76 34 177 76 34 177 76 34 177 76 
34 177 76 34 177 76 34 177 76 34 177 76 34 177 76 
34 177 76 34 177 76 34 177 76 34 177 76 34 177 76 
34 177 76 34 177 76 34 177 76 34 177 76 34 177 76 
34 177 76 34 177 76 34 177 76 34 177 76 34 177 76 
34 177 76 34 177 76 34 177 76 34 177 76 34 177 76 
34 177 76 34 177 76 34 177 76 34 177 76 34 177 76 
34 177 76 34 177 76 34 177 76 34 177 76 34 177 76 
34 177 76 34 177 76 34 177 76 34 177 76 34 177 76 
34 177 76 34 177 76 34 177 76 34 177 76 34 177 76 
34 177 76 34 177 76 34 177 76 34 177 76 34 177 76 
34 177 76 34 177 76 34 177 76 34 177 76 34 177 76 
34 177 76 34 177 76 34 177 76 34 177 76 34 177 76 
34 177 76 34 177 76 34 177 76 34 177 76 34 177 76 
34 177 76 34 177 76 34 177 76 34 177 76 34 177 76 
34 177 76 34 177 76 34 177 76 34 177 76 34 177 76 
34 177 76 34 177 76 34 177 76 34 177 76 34 177 76 
34 177 76 34 177 76 34 177 76 34 177 76 34 177 76 
34 177 76 34 177 76 34 177 76 34 177 76 34 177 76 
34 177 76 34 177 76 34 177 76 34 177 76 34 177 76 
34 177 76 34 177 76 34 177 76 34 177 76 34 177 76 
34 177 76 34 177 76 34 177 76 34 177 76 34 177 76 
34 177 76 34 177 76 34 177 76 34 177 76 34 177 76 
34 177 76 34 177 76 34 177 76 34 177 76 34 177 76 
34 177 76 34 177 76 34 177 76 34 177 76 34 177 76 
34 177 76 34 177 76 34 177 76 34 177 76 34 177 76 
34 177 76 34 177 76 34 177 76 34 177 76 34 177 76 
34 177 76 34 177 76 34 177 76 34 177 76 34 177 76 
34 177 76 34 177 76 34 177 76 34 177 76 34 177 76 
34 177 76 34 177 76 34 177 76 34 177 76 34 177 76 
34 177 76 34 177 76 34 177 76 34 177 76 34 177 76 
34 177 76 34 177 76 34 177 76 34 177 76 34 177 76 
34 177 76 34 177 76 34 177 76 34 177 76 34 177 76 
34 177 76 34 177 76 34 177 76 34 177 76 34 177 76 
34 177 76 34 177 76 34 177 76 34 177 76 34 177 76 
34 177 76 34 177 76 34 177 76 34 177 76 34 177 76 
34 177 76 34 177 76 34 177 76 34 177 76 34 177 76 
34 177 76 34 177 76 34 177 76 34 177 76 34 177 76 
34 177 76 34 177 76 34 177 76 34 177 76 34 177 76 
34 177 76 34 177 76 34 177 76 34 177 76 34 177 76 
34 177 76 34 177 76 34 177 76 34 177 76 34 177 76 
34 177 76 34 177 76 34 177 76 34 177 76 34 177 76 
34 177 76 34 177 76 34 177 76 34 177 76 34 177 76 
34 177 76 34 177 76 34 177 76 34 177 76 34 177 76 
34 177 76 34 177 76 34 177 76 34 177 76 34 177 76 
34 177 76 34 177 76 34 177 76 34 177 76 34 177 76 
34 177 76 34 177 76 34 177 76 34 177 76 34 177 76 
34 177 76 34 177 76 34 177 76 34 177 76 34 177 76 
34 177 76 34 177 76 34 177 76 34 177 76 34 177 76 
34 177 76 34 177 76 34 177 76 34 177 76 34 177 76 
34 177 76 34 177 76 34 177 76 34 177 76 34 177 76 
34 177 76 34 177 76 34 177 76 34 177 76 34 177 76 
34 177 76 34 177 76 34 177 76 34 177 76 34 177 76 
34 177 76 34 177 76 34 177 76 34 177 76 34 177 76 
34 177 76 34 177 76 34 177 76 34 177 76 34 177 76 
34 177 76 34 177 76 34 177 76 34 177 76 34 177 76 
255 0 255 34 177 76 34 177 76 34 177 76 34 177 76 
34 177 76 34 177 76 34 177 76 34 177 76 34 177 76 
34 177 76 34 177 76 34 177 76 34 177 76 34 177 76 
34 177 76 34 177 76 34 177 76 34 177 76 34 177 76 
34 177 76 34 177 76 34 177 76 34 177 76 34 177 76 
34 177 76 34 177 76 34 177 76 34 177 76 34 177 76 
34 177 76 34 177 76 34 177 76 34 177 76 34 177 76 
34 177 76 34 177 76 34 177 76 34 177 76 34 177 76 
34 177 76 34 177 76 34 177 76 34 177 76 34 177 76 
34 177 76 34 177 76 34 177 76 34 177 76 34 177 76 
34 177 76 34 177 76 34 177 76 34 177 76 34 177 76 
34 177 76 34 177 76 34 177 76 34 177 76 34 177 76 
34 177 76 34 177 76 34 177 76 34 177 76 34 177 76 
34 177 76 34 177 76 34 177 76 34 177 76 34 177 76 
34 177 76 34 177 76 34 177 76 34 177 76 255 0 255 
255 0 255 255 0 255 255 0 255 34 177 76 34 177 76 
34 177 76 34 177 76 34 177 76 34 177 76 34 177 76 
34 177 76 34 177 76 34 177 76 34 177 76 34 177 76 
34 177 76 34 177 76 34 177 76 34 177 76 34 177 76 
34 177 76 34 177 76 34 177 76 34 177 76 34 177 76 
34 177 76 34 177 76 34 177 76 34 177 76 34 177 76 
34 177 76 34 177 76 34 177 76 34 177 76 34 177 76 
34 177 76 34 177 76 34 177 76 34 177 76 34 177 76 
34 177 76 34 177 76 34 177 76 34 177 76 34 177 76 
34 177 76 34 177 76 34 177 76 34 177 76 34 177 76 
34 177 76 34 177 76 34 177 76 34 177 76 34 177 76 
34 177 76 34 177 76 34 177 76 34 177 76 34 177 76 
34 177 76 34 177 76 34 177 76 34 177 76 34 177 76 
34 177 76 34 177 76 34 177 76 34 177 76 34 177 76 
34 177 76 34 177 76 255 0 255 255 0 255 255 0 255 
255 0 255 255 0 255 255 0 255 255 0 255 34 177 76 
34 177 76 34 177 76 34 177 76 34 177 76 34 177 76 
34 177 76 34 177 76 34 177 76 34 177 76 34 177 76 
34 177 76 34 177 76 34 177 76 34 177 76 34 177 76 
34 177 76 34 177 76 34 177 76 34 177 76 34 177 76 
34 177 76 34 177 76 34 177 76 34 177 76 34 177 76 
34 177 76 34 177 76 34 177 76 34 177 76 34 177 76 
34 177 76 34 177 76 34 177 76 34 177 76 34 177 76 
34 177 76 34 177 76 34 177 76 34 177 76 34 177 76 
34 177 76 34 177 76 34 177 76 34 177 76 34 177 76 
34 177 76 34 177 76 34 177 76 34 177 76 34 177 76 
34 177 76 34 177 76 34 177 76 34 177 76 34 177 76 
34 177 76 34 177 76 34 177 76 34 177 76 34 177 76 
34 177 76 34 177 76 34 177 76 34 177 76 34 177 76 
34 177 76 255 0 255 255 0 255 255 0 255 255 0 255 
255 0 255 255 0 255 255 0 255 255 0 255 255 0 255 
255 0 255 34 177 76 34 177 76 34 177 76 34 177 76 
34 177 76 34 177 76 34 177 76 34 177 76 34 177 76 
34 177 76 34 177 76 34 177 76 34 177 76 34 177 76 
34 177 76 34 177 76 34 177 76 34 177 76 34 177 76 
34 177 76 34 177 76 34 177 76 34 177 76 34 177 76 
34 177 76 34 177 76 34 177 76 34 177 76 34 177 76 
34 177 76 34 177 76 34 177 76 34 177 76 34 177 76 
34 177 76 34 177 76 34 177 76 34 177 76 34 177 76 
34 177 76 34 177 76 34 177 76 34 177 76 34 177 76 
34 177 76 34 177 76 34 177 76 34 177 76 34 177 76 
34 177 76 34 177 76 34 177 76 34 177 76 34 177 76 
34 177 76 34 177 76 34 177 76 34 177 76 34 177 76 
34 177 76 34 177 76 34 177 76 34 177 76 255 0 255 
255 0 255 255 0 255 255 0 255 255 0 255 255 0 255 
255 0 255 255 0 255 255 0 255 255 0 255 255 0 255 
255 0 255 255 0 255 34 177 76 34 177 76 34 177 76 
34 177 76 34 177 76 34 177 76 34 177 76 34 177 76 
34 177 76 34 177 76 34 177 76 34 177 76 34 177 76 
34 177 76 34 177 76 34 177 76 34 177 76 34 177 76 
34 177 76 34 177 76 34 177 76 34 177 76 34 177 76 
34 177 76 34 177 76 34 177 76 34 177 76 34 177 76 
34 177 76 34 177 76 34 177 76 34 177 76 34 177 76 
34 177 76 34 177 76 34 177 76 34 177 76 34 177 76 
34 177 76 34 177 76 34 177 76 34 177 76 34 177 76 
34 177 76 34 177 76 34 177 76 34 177 76 34 177 76 
34 177 76 34 177 76 34 177 76 34 177 76 34 177 76 
34 177 76 34 177 76 34 177 76 34 177 76 34 177 76 
34 177 76 34 177 76 34 177 76 255 0 255 255 0 255 
255 0 255 255 0 255 255 0 255 255 0 255 255 0 255 
255 0 255 255 0 255 255 0 255 255 0 255 255 0 255 
255 0 255 255 0 255 255 0 255 255 0 255 34 177 76 
34 177 76 34 177 76 34 177 76 34 177 76 34 177 76 
34 177 76 34 177 76 34 177 76 34 177 76 34 177 76 
34 177 76 34 177 76 34 177 76 34 177 76 34 177 76 
34 177 76 34 177 76 34 177 76 34 177 76 34 177 76 
34 177 76 34 177 76 34 177 76 34 177 76 34 177 76 
34 177 76 34 177 76 34 177 76 34 177 76 34 177 76 
34 177 76 34 177 76 34 177 76 34 177 76 34 177 76 
34 177 76 34 177 76 34 177 76 34 177 76 34 177 76 
34 177 76 34 177 76 34 177 76 34 177 76 34 177 76 
34 177 76 34 177 76 34 177 76 34 177 76 34 177 76 
34 177 76 34 177 76 34 177 76 34 177 76 34 177 76 
34 177 76 255 0 255 255 0 255 255 0 255 255 0 255 
255 0 255 255 0 255 255 0 255 255 0 255 255 0 255 
255 0 255 255 0 255 255 0 255 255 0 255 255 0 255 
255 0 255 255 0 255 255 0 255 255 0 255 255 0 255 
255 0 255 34 177 76 34 177 76 34 177 76 34 177 76 
34 177 76 34 177 76 34 177 76 34 177 76 34 177 76 
34 177 76 34 177 76 34 177 76 34 177 76 34 177 76 
34 177 76 34 177 76 34 177 76 34 177 76 34 177 76 
34 177 76 34 177 76 34 177 76 34 177 76 34 177 76 
34 177 76 34 177 76 34 177 76 34 177 76 34 177 76 
34 177 76 34 177 76 34 177 76 34 177 76 34 177 76 
34 177 76 34 177 76 34 177 76 34 177 76 34 177 76 
34 177 76 34 177 76 34 177 76 34 177 76 34 177 76 
34 177 76 34 177 76 34 177 76 34 177 76 34 177 76 
34 177 76 34 177 76 34 177 76 34 177 76 34 177 76 
255 0 255 255 0 255 255 0 255 255 0 255 255 0 255 
255 0 255 255 0 255 255 0 255 255 0 255 255 0 255 
255 0 255 255 0 255 255 0 255 255 0 255 255 0 255 
255 0 255 255 0 255 255 0 255 255 0 255 255 0 255 
255 0 255 255 0 255 34 177 76 34 177 76 34 177 76 
34 177 76 34 177 76 34 177 76 34 177 76 34 177 76 
34 177 76 34 177 76 34 177 76 34 177 76 34 177 76 
34 177 76 34 177 76 34 177 76 34 177 76 34 177 76 
34 177 76 34 177 76 34 177 76 34 177 76 34 177 76 
34 177 76 34 177 76 34 177 76 34 177 76 34 177 76 
34 177 76 34 177 76 34 177 76 34 177 76 34 177 76 
34 177 76 34 177 76 34 177 76 34 177 76 34 177 76 
34 177 76 34 177 76 34 177 76 34 177 76 34 177 76 
34 177 76 34 177 76 34 177 76 34 177 76 34 177 76 
34 177 76 34 177 76 34 177 76 255 0 255 255 0 255 
255 0 255 255 0 255 255 0 255 255 0 255 255 0 255 
255 0 255 255 0 255 255 0 255 255 0 255 255 0 255 
255 0 255 255 0 255 255 0 255 255 0 255 255 0 255 
255 0 255 255 0 255 255 0 255 255 0 255 255 0 255 
255 0 255 255 0 255 255 0 255 255 0 255 34 177 76 
34 177 76 34 177 76 34 177 76 34 177 76 34 177 76 
34 177 76 34 177 76 34 177 76 34 177 76 34 177 76 
34 177 76 34 177 76 34 177 76 34 177 76 34 177 76 
34 177 76 34 177 76 34 177 76 34 177 76 34 177 76 
34 177 76 34 177 76 34 177 76 34 177 76 34 177 76 
34 177 76 34 177 76 34 177 76 34 177 76 34 177 76 
34 177 76 34 177 76 34 177 76 34 177 76 34 177 76 
34 177 76 34 177 76 34 177 76 34 177 76 34 177 76 
34 177 76 34 177 76 34 177 76 34 177 76 34 177 76 
34 177 76 255 0 255 255 0 255 255 0 255 255 0 255 
255 0 255 255 0 255 255 0 255 255 0 255 255 0 255 
255 0 255 255 0 255 255 0 255 255 0 255 255 0 255 
255 0 255 255 0 255 255 0 255 255 0 255 255 0 255 
255 0 255 255 0 255 255 0 255 255 0 255 255 0 255 
255 0 255 255 0 255 255 0 255 255 0 255 255 0 255 
34 177 76 34 177 76 34 177 76 34 177 76 34 177 76 
34 177 76 34 177 76 34 177 76 34 177 76 34 177 76 
34 177 76 34 177 76 34 177 76 34 177 76 34 177 76 
34 177 76 34 177 76 34 177 76 34 177 76 34 177 76 
34 177 76 34 177 76 34 177 76 34 177 76 34 177 76 
34 177 76 34 177 76 34 177 76 34 177 76 34 177 76 
34 177 76 34 177 76 34 177 76 34 177 76 34 177 76 
34 177 76 34 177 76 34 177 76 34 177 76 34 177 76 
34 177 76 34 177 76 34 177 76 34 177 76 34 177 76 
255 0 255 255 0 255 255 0 255 255 0 255 255 0 255 
255 0 255 255 0 255 255 0 255 255 0 255 255 0 255 
255 0 255 255 0 255 255 0 255 255 0 255 255 0 255 
255 0 255 255 0 255 255 0 255 255 0 255 255 0 255 
255 0 255 255 0 255 255 0 255 255 0 255 255 0 255 
255 0 255 255 0 255 255 0 255 255 0 255 255 0 255 
255 0 255 255 0 255 34 177 76 34 177 76 34 177 76 
34 177 76 34 177 76 34 177 76 34 177 76 34 177 76 
34 177 76 34 177 76 34 177 76 34 177 76 34 177 76 
34 177 76 34 177 76 34 177 76 34 177 76 34 177 76 
34 177 76 34 177 76 34 177 76 34 177 76 34 177 76 
34 177 76 34 177 76 34 177 76 34 177 76 34 177 76 
34 177 76 34 177 76 34 177 76 34 177 76 34 177 76 
34 177 76 34 177 76 34 177 76 34 177 76 34 177 76 
34 177 76 34 177 76 34 177 76 255 0 255 255 0 255 
255 0 255 255 0 255 255 0 255 255 0 255 255 0 255 
255 0 255 255 0 255 255 0 255 255 0 255 255 0 255 
255 0 255 255 0 255 255 0 255 255 0 255 255 0 255 
255 0 255 255 0 255 255 0 255 255 0 255 255 0 255 
255 0 255 255 0 255 255 0 255 255 0 255 255 0 255 
255 0 255 255 0 255 255 0 255 255 0 255 255 0 255 
255 0 255 255 0 255 255 0 255 34 177 76 34 177 76 
34 177 76 34 177 76 34 177 76 34 177 76 34 177 76 
34 177 76 34 177 76 34 177 76 34 177 76 34 177 76 
34 177 76 34 177 76 34 177 76 34 177 76 34 177 76 
34 177 76 34 177 76 34 177 76 34 177 76 34 177 76 
34 177 76 34 177 76 34 177 76 34 177 76 34 177 76 
34 177 76 34 177 76 34 177 76 34 177 76 34 177 76 
34 177 76 34 177 76 34 177 76 34 177 76 34 177 76 
34 177 76 34 177 76 255 0 255 255 0 255 255 0 255 
255 0 255 255 0 255 255 0 255 255 0 255 255 0 255 
255 0 255 255 0 255 255 0 255 255 0 255 255 0 255 
255 0 255 255 0 255 255 0 255 255 0 255 255 0 255 
255 0 255 255 0 255 255 0 255 255 0 255 255 0 255 
255 0 255 255 0 255 255 0 255 255 0 255 255 0 255 
255 0 255 255 0 255 255 0 255 255 0 255 255 0 255 
255 0 255 255 0 255 255 0 255 255 0 255 255 0 255 
34 177 76 34 177 76 34 177 76 34 177 76 34 177 76 
34 177 76 34 177 76 34 177 76 34 177 76 34 177 76 
34 177 76 34 177 76 34 177 76 34 177 76 34 177 76 
34 177 76 34 177 76 34 177 76 34 177 76 34 177 76 
34 177 76 34 177 76 34 177 76 34 177 76 34 177 76 
34 177 76 34 177 76 34 177 76 34 177 76 34 177 76 
34 177 76 34 177 76 34 177 76 34 177 76 34 177 76 
255 0 255 255 0 255 255 0 255 255 0 255 255 0 255 
255 0 255 255 0 255 255 0 255 255 0 255 255 0 255 
255 0 255 255 0 255 255 0 255 255 0 255 255 0 255 
255 0 255 255 0 255 255 0 255 255 0 255 255 0 255 
255 0 255 255 0 255 255 0 255 255 0 255 255 0 255 
255 0 255 255 0 255 255 0 255 255 0 255 255 0 255 
255 0 255 255 0 255 255 0 255 255 0 255 255 0 255 
255 0 255 255 0 255 255 0 255 255 0 255 255 0 255 
255 0 255 255 0 255 34 177 76 34 177 76 34 177 76 
34 177 76 34 177 76 34 177 76 34 177 76 34 177 76 
34 177 76 34 177 76 34 177 76 34 177 76 34 177 76 
34 177 76 34 177 76 34 177 76 34 177 76 34 177 76 
34 177 76 34 177 76 34 177 76 34 177 76 34 177 76 
34 177 76 34 177 76 34 177 76 34 177 76 34 177 76 
34 177 76 34 177 76 34 177 76 255 0 255 255 0 255 
255 0 255 255 0 255 255 0 255 255 0 255 255 0 255 
255 0 255 255 0 255 255 0 255 255 0 255 255 0 255 
255 0 255 255 0 255 255 0 255 255 0 255 255 0 255 
255 0 255 255 0 255 255 0 255 255 0 255 255 0 255 
255 0 255 255 0 255 255 0 255 255 0 255 255 0 255 
255 0 255 255 0 255 255 0 255 255 0 255 255 0 255 
255 0 255 255 0 255 255 0 255 255 0 255 255 0 255 
255 0 255 255 0 255 255 0 255 255 0 255 255 0 255 
255 0 255 255 0 255 255 0 255 34 177 76 34 177 76 
34 177 76 34 177 76 34 177 76 34 177 76 34 177 76 
34 177 76 34 177 76 34 177 76 34 177 76 34 177 76 
34 177 76 34 177 76 34 177 76 34 177 76 34 177 76 
34 177 76 34 177 76 34 177 76 34 177 76 34 177 76 
34 177 76 34 177 76 34 177 76 34 177 76 34 177 76 
34 177 76 34 177 76 255 0 255 255 0 255 255 0 255 
255 0 255 255 0 255 255 0 255 255 0 255 255 0 255 
255 0 255 255 0 255 255 0 255 255 0 255 255 0 255 
255 0 255 255 0 255 255 0 255 255 0 255 255 0 255 
255 0 255 255 0 255 255 0 255 255 0 255 255 0 255 
255 0 255 255 0 255 255 0 255 255 0 255 255 0 255 
255 0 255 255 0 255 255 0 255 255 0 255 255 0 255 
255 0 255 255 0 255 255 0 255 255 0 255 255 0 255 
255 0 255 255 0 255 255 0 255 255 0 255 255 0 255 
255 0 255 255 0 255 255 0 255 255 0 255 255 0 255 
34 177 76 34 177 76 34 177 76 34 177 76 34 177 76 
34 177 76 34 177 76 34 177 76 34 177 76 34 177 76 
34 177 76 34 177 76 34 177 76 34 177 76 34 177 76 
34 177 76 34 177 76 34 177 76 34 177 76 34 177 76 
34 177 76 34 177 76 34 177 76 34 177 76 34 177 76 
255 0 255 255 0 255 255 0 255 255 0 255 255 0 255 
255 0 255 255 0 255 255 0 255 255 0 255 255 0 255 
255 0 255 255 0 255 255 0 255 255 0 255 255 0 255 
255 0 255 255 0 255 255 0 255 255 0 255 255 0 255 
255 0 255 255 0 255 255 0 255 255 0 255 255 0 255 
255 0 255 255 0 255 255 0 255 255 0 255 255 0 255 
255 0 255 255 0 255 255 0 255 255 0 255 255 0 255 
255 0 255 255 0 255 255 0 255 255 0 255 255 0 255 
255 0 255 255 0 255 255 0 255 255 0 255 255 0 255 
255 0 255 255 0 255 255 0 255 255 0 255 255 0 255 
255 0 255 34 177 76 34 177 76 34 177 76 34 177 76 
34 177 76 34 177 76 34 177 76 34 177 76 34 177 76 
34 177 76 34 177 76 34 177 76 34 177 76 34 177 76 
34 177 76 34 177 76 34 177 76 34 177 76 34 177 76 
34 177 76 34 177 76 34 177 76 34 177 76 255 0 255 
255 0 255 255 0 255 255 0 255 255 0 255 255 0 255 
255 0 255 255 0 255 255 0 255 255 0 255 255 0 255 
255 0 255 255 0 255 255 0 255 255 0 255 255 0 255 
255 0 255 255 0 255 255 0 255 255 0 255 255 0 255 
255 0 255 255 0 255 255 0 255 255 0 255 255 0 255 
255 0 255 255 0 255 255 0 255 255 0 255 255 0 255 
255 0 255 255 0 255 255 0 255 255 0 255 255 0 255 
255 0 255 255 0 255 255 0 255 255 0 255 255 0 255 
255 0 255 255 0 255 255 0 255 255 0 255 255 0 255 
255 0 255 255 0 255 255 0 255 255 0 255 255 0 255 
255 0 255 255 0 255 255 0 255 34 177 76 34 177 76 
34 177 76 34 177 76 34 177 76 34 177 76 34 177 76 
34 177 76 34 177 76 34 177 76 34 177 76 34 177 76 
34 177 76 34 177 76 34 177 76 34 177 76 34 177 76 
34 177 76 34 177 76 255 0 255 255 0 255 255 0 255 
255 0 255 255 0 255 255 0 255 255 0 255 255 0 255 
255 0 255 255 0 255 255 0 255 255 0 255 255 0 255 
255 0 255 255 0 255 255 0 255 255 0 255 255 0 255 
255 0 255 255 0 255 255 0 255 255 0 255 255 0 255 
255 0 255 255 0 255 255 0 255 255 0 255 255 0 255 
255 0 255 255 0 255 255 0 255 255 0 255 255 0 255 
255 0 255 255 0 255 255 0 255 255 0 255 255 0 255 
255 0 255 255 0 255 255 0 255 255 0 255 255 0 255 
255 0 255 255 0 255 255 0 255 255 0 255 255 0 255 
255 0 255 255 0 255 255 0 255 255 0 255 255 0 255 
255 0 255 255 0 255 255 0 255 255 0 255 255 0 255 
34 177 76 34 177 76 34 177 76 34 177 76 34 177 76 
34 177 76 34 177 76 34 177 76 34 177 76 34 177 76 
34 177 76 34 177 76 34 177 76 34 177 76 34 177 76 
255 0 255 255 0 255 255 0 255 255 0 255 255 0 255 
255 0 255 255 0 255 255 0 255 255 0 255 255 0 255 
255 0 255 255 0 255 255 0 255 255 0 255 255 0 255 
255 0 255 255 0 255 255 0 255 255 0 255 255 0 255 
255 0 255 255 0 255 255 0 255 255 0 255 255 0 255 
255 0 255 255 0 255 255 0 255 255 0 255 255 0 255 
255 0 255 255 0 255 255 0 255 255 0 255 255 0 255 
255 0 255 255 0 255 255 0 255 255 0 255 255 0 255 
255 0 255 255 0 255 255 0 255 255 0 255 255 0 255 
255 0 255 255 0 255 255 0 255 255 0 255 255 0 255 
255 0 255 255 0 255 255 0 255 255 0 255 255 0 255 
255 0 255 255 0 255 255 0 255 255 0 255 255 0 255 
255 0 255 34 177 76 34 177 76 34 177 76 34 177 76 
34 177 76 34 177 76 34 177 76 34 177 76 34 177 76 
34 177 76 34 177 76 34 177 76 34 177 76 255 0 255 
255 0 255 255 0 255 255 0 255 255 0 255 255 0 255 
255 0 255 255 0 255 255 0 255 255 0 255 255 0 255 
255 0 255 255 0 255 255 0 255 255 0 255 255 0 255 
255 0 255 255 0 255 255 0 255 255 0 255 255 0 255 
255 0 255 255 0 255 255 0 255 255 0 255 255 0 255 
255 0 255 255 0 255 255 0 255 255 0 255 255 0 255 
255 0 255 255 0 255 255 0 255 255 0 255 255 0 255 
255 0 255 255 0 255 255 0 255 255 0 255 255 0 255 
255 0 255 255 0 255 255 0 255 255 0 255 255 0 255 
255 0 255 255 0 255 255 0 255 255 0 255 255 0 255 
255 0 255 255 0 255 255 0 255 255 0 255 255 0 255 
255 0 255 255 0 255 255 0 255 255 0 255 255 0 255 
255 0 255 255 0 255 255 0 255 34 177 76 34 177 76 
34 177 76 34 177 76 34 177 76 34 177 76 34 177 76 
34 177 76 34 177 76 255 0 255 255 0 255 255 0 255 
255 0 255 255 0 255 255 0 255 255 0 255 255 0 255 
255 0 255 255 0 255 255 0 255 255 0 255 255 0 255 
255 0 255 255 0 255 255 0 255 255 0 255 255 0 255 
255 0 255 255 0 255 255 0 255 255 0 255 255 0 255 
255 0 255 255 0 255 255 0 255 255 0 255 255 0 255 
255 0 255 255 0 255 255 0 255 255 0 255 255 0 255 
255 0 255 255 0 255 255 0 255 255 0 255 255 0 255 
255 0 255 255 0 255 255 0 255 255 0 255 255 0 255 
255 0 255 255 0 255 255 0 255 255 0 255 255 0 255 
255 0 255 255 0 255 255 0 255 255 0 255 255 0 255 
255 0 255 255 0 255 255 0 255 255 0 255 255 0 255 
255 0 255 255 0 255 255 0 255 255 0 255 255 0 255 
255 0 255 255 0 255 255 0 255 255 0 255 34 177 76 
34 177 76 34 177 76 34 177 76 34 177 76 34 177 76 
34 177 76 255 0 255 255 0 255 255 0 255 255 0 255 
255 0 255 255 0 255 255 0 255 255 0 255 255 0 255 
255 0 255 255 0 255 255 0 255 255 0 255 255 0 255 
255 0 255 255 0 255 255 0 255 255 0 255 255 0 255 
255 0 255 255 0 255 255 0 255 255 0 255 255 0 255 
255 0 255 255 0 255 255 0 255 255 0 255 255 0 255 
255 0 255 255 0 255 255 0 255 255 0 255 255 0 255 
255 0 255 255 0 255 255 0 255 255 0 255 255 0 255 
255 0 255 255 0 255 255 0 255 255 0 255 255 0 255 
255 0 255 255 0 255 255 0 255 255 0 255 255 0 255 
255 0 255 255 0 255 255 0 255 255 0 255 255 0 255 
255 0 255 255 0 255 255 0 255 255 0 255 255 0 255 
255 0 255 255 0 255 255 0 255 255 0 255 255 0 255 
255 0 255 255 0 255 255 0 255 255 0 255 255 0 255 
255 0 255 34 177 76 34 177 76 34 177 76 255 0 255 
255 0 255 255 0 255 255 0 255 255 0 255 255 0 255 
255 0 255 255 0 255 255 0 255 255 0 255 255 0 255 
255 0 255 255 0 255 255 0 255 255 0 255 255 0 255 
255 0 255 255 0 255 255 0 255 255 0 255 255 0 255 
255 0 255 255 0 255 255 0 255 255 0 255 255 0 255 
255 0 255 255 0 255 255 0 255 255 0 255 255 0 255 
255 0 255 255 0 255 255 0 255 255 0 255 255 0 255 
