P3
# Created by IrfanView
66 42
255
255 0 255 255 0 255 255 0 255 255 0 255 255 0 255 255 0 255 255 0 255 255 0 255 255 0 255 
255 0 255 255 0 255 255 0 255 255 0 255 255 0 255 255 0 255 255 0 255 255 0 255 
255 0 255 255 0 255 255 0 255 255 0 255 255 0 255 255 0 255 255 0 255 255 0 255 
255 0 255 255 0 255 255 0 255 255 0 255 255 0 255 255 0 255 0 0 0 0 0 0 
0 0 0 0 0 0 255 0 255 255 0 255 255 0 255 255 0 255 255 0 255 255 0 255 
255 0 255 255 0 255 255 0 255 255 0 255 255 0 255 255 0 255 255 0 255 255 0 255 
255 0 255 255 0 255 255 0 255 255 0 255 255 0 255 255 0 255 255 0 255 255 0 255 
255 0 255 255 0 255 255 0 255 255 0 255 255 0 255 255 0 255 255 0 255 255 0 255 
255 0 255 255 0 255 255 0 255 255 0 255 255 0 255 255 0 255 255 0 255 255 0 255 255 0 255 255 0 255 
255 0 255 255 0 255 255 0 255 255 0 255 255 0 255 255 0 255 255 0 255 255 0 255 
255 0 255 255 0 255 255 0 255 255 0 255 255 0 255 255 0 255 255 0 255 255 0 255 
255 0 255 255 0 255 255 0 255 255 0 255 0 0 0 0 0 0 255 220 123 255 221 124 
255 219 123 255 230 157 0 0 0 0 0 0 255 0 255 255 0 255 255 0 255 255 0 255 
255 0 255 255 0 255 255 0 255 255 0 255 255 0 255 255 0 255 255 0 255 255 0 255 
255 0 255 255 0 255 255 0 255 255 0 255 255 0 255 255 0 255 255 0 255 255 0 255 
255 0 255 255 0 255 255 0 255 255 0 255 255 0 255 255 0 255 255 0 255 255 0 255 
255 0 255 255 0 255 255 0 255 255 0 255 255 0 255 255 0 255 255 0 255 255 0 255 255 0 255 255 0 255 
255 0 255 255 0 255 255 0 255 255 0 255 255 0 255 255 0 255 255 0 255 255 0 255 
255 0 255 255 0 255 255 0 255 255 0 255 255 0 255 255 0 255 255 0 255 255 0 255 
255 0 255 255 0 255 0 0 0 0 0 0 255 220 123 255 219 123 255 220 123 255 230 157 
255 230 157 255 231 157 255 231 157 255 220 123 0 0 0 0 0 0 255 0 255 255 0 255 
255 0 255 255 0 255 255 0 255 255 0 255 255 0 255 255 0 255 255 0 255 255 0 255 
255 0 255 255 0 255 255 0 255 255 0 255 255 0 255 255 0 255 255 0 255 255 0 255 
255 0 255 255 0 255 255 0 255 255 0 255 255 0 255 255 0 255 255 0 255 255 0 255 
255 0 255 255 0 255 255 0 255 255 0 255 255 0 255 255 0 255 255 0 255 255 0 255 255 0 255 255 0 255 
255 0 255 255 0 255 255 0 255 255 0 255 255 0 255 255 0 255 255 0 255 255 0 255 
255 0 255 255 0 255 255 0 255 255 0 255 255 0 255 255 0 255 255 0 255 255 0 255 
0 0 0 0 0 0 255 229 156 255 231 157 255 230 157 255 230 158 255 229 156 255 231 157 
255 230 157 255 230 157 255 230 157 255 230 157 255 229 156 255 229 156 0 0 0 0 0 0 
255 0 255 255 0 255 255 0 255 255 0 255 255 0 255 255 0 255 255 0 255 255 0 255 
255 0 255 255 0 255 255 0 255 255 0 255 255 0 255 255 0 255 255 0 255 255 0 255 
255 0 255 255 0 255 255 0 255 255 0 255 255 0 255 255 0 255 255 0 255 255 0 255 
255 0 255 255 0 255 255 0 255 255 0 255 255 0 255 255 0 255 255 0 255 255 0 255 255 0 255 255 0 255 
255 0 255 255 0 255 255 0 255 255 0 255 255 0 255 255 0 255 255 0 255 255 0 255 
255 0 255 255 0 255 255 0 255 255 0 255 255 0 255 255 0 255 0 0 0 0 0 0 
255 221 124 255 220 124 255 220 122 249 193 85 255 222 124 249 191 84 249 191 85 255 221 124 
248 192 84 255 221 125 249 193 85 255 220 123 255 230 157 249 193 85 255 203 105 255 221 124 
0 0 0 0 0 0 255 0 255 255 0 255 255 0 255 255 0 255 255 0 255 255 0 255 
255 0 255 255 0 255 255 0 255 255 0 255 255 0 255 255 0 255 255 0 255 255 0 255 
255 0 255 255 0 255 255 0 255 255 0 255 255 0 255 255 0 255 255 0 255 255 0 255 
255 0 255 255 0 255 255 0 255 255 0 255 255 0 255 255 0 255 255 0 255 255 0 255 255 0 255 255 0 255 
255 0 255 255 0 255 255 0 255 255 0 255 255 0 255 255 0 255 255 0 255 255 0 255 
255 0 255 255 0 255 255 0 255 255 0 255 0 0 0 0 0 0 255 220 123 255 221 124 
255 221 125 255 203 105 239 183 77 255 204 107 237 166 31 239 183 77 85 70 63 85 70 63 
85 70 63 255 220 125 249 193 85 255 231 157 255 221 124 255 230 156 249 193 85 255 231 157 
255 220 123 255 220 125 0 0 0 0 0 0 255 0 255 255 0 255 255 0 255 255 0 255 
255 0 255 255 0 255 255 0 255 255 0 255 255 0 255 255 0 255 255 0 255 255 0 255 
255 0 255 255 0 255 255 0 255 255 0 255 255 0 255 255 0 255 255 0 255 255 0 255 
255 0 255 255 0 255 255 0 255 255 0 255 255 0 255 255 0 255 255 0 255 255 0 255 255 0 255 255 0 255 
255 0 255 255 0 255 255 0 255 255 0 255 255 0 255 255 0 255 255 0 255 255 0 255 
255 0 255 255 0 255 0 0 0 0 0 0 255 220 123 255 220 123 255 220 125 255 229 156 
255 203 105 239 183 77 255 221 124 249 191 84 83 69 63 83 69 63 207 175 145 207 175 145 
207 175 145 85 70 63 85 70 63 255 203 105 255 204 107 249 192 84 255 204 107 255 230 157 
255 220 125 255 229 156 255 231 157 255 230 157 0 0 0 0 0 0 255 0 255 255 0 255 
255 0 255 255 0 255 255 0 255 255 0 255 255 0 255 255 0 255 255 0 255 255 0 255 
255 0 255 255 0 255 255 0 255 255 0 255 255 0 255 255 0 255 255 0 255 255 0 255 
255 0 255 255 0 255 255 0 255 255 0 255 255 0 255 255 0 255 255 0 255 255 0 255 255 0 255 255 0 255 
255 0 255 255 0 255 255 0 255 255 0 255 255 0 255 255 0 255 255 0 255 255 0 255 
0 0 0 0 0 0 255 231 157 255 221 124 255 230 157 255 230 156 255 230 157 255 230 157 
255 221 124 255 205 109 237 166 31 85 70 63 147 119 98 182 157 134 207 175 145 182 157 134 
147 119 98 182 157 134 123 100 81 85 70 63 85 70 63 255 205 109 255 204 106 255 221 125 
255 221 124 255 221 124 255 221 124 255 220 123 255 231 157 255 230 157 0 0 0 0 0 0 
255 0 255 255 0 255 255 0 255 255 0 255 255 0 255 255 0 255 255 0 255 255 0 255 
255 0 255 255 0 255 255 0 255 255 0 255 255 0 255 255 0 255 255 0 255 255 0 255 
255 0 255 255 0 255 255 0 255 255 0 255 255 0 255 255 0 255 255 0 255 255 0 255 255 0 255 255 0 255 
255 0 255 255 0 255 255 0 255 255 0 255 255 0 255 255 0 255 0 0 0 0 0 0 
255 230 157 255 229 156 255 229 156 255 231 157 255 229 156 255 220 125 255 220 125 255 220 125 
255 230 157 156 133 113 255 221 125 85 70 63 147 119 98 147 119 98 182 157 134 147 119 98 
123 100 81 123 100 81 123 100 81 249 193 85 237 166 31 237 166 31 255 229 156 249 192 84 
255 205 109 249 193 85 255 203 105 255 221 124 255 221 125 255 220 125 255 221 124 255 219 123 
0 0 0 0 0 0 255 0 255 255 0 255 255 0 255 255 0 255 255 0 255 255 0 255 
255 0 255 255 0 255 255 0 255 255 0 255 255 0 255 255 0 255 255 0 255 255 0 255 
255 0 255 255 0 255 255 0 255 255 0 255 255 0 255 255 0 255 255 0 255 255 0 255 255 0 255 255 0 255 
255 0 255 255 0 255 255 0 255 255 0 255 0 0 0 0 0 0 255 204 108 255 205 109 
255 230 157 255 205 109 255 220 123 255 219 123 255 221 124 255 220 123 255 220 125 255 230 157 
255 203 105 255 221 125 156 133 113 237 166 31 250 192 85 123 100 81 123 100 81 123 100 81 
249 192 86 85 70 63 249 192 84 237 166 31 237 166 31 255 221 125 255 204 107 255 204 107 
255 204 107 255 204 107 249 193 85 250 192 85 249 193 85 255 204 108 249 193 85 255 204 107 
255 220 125 255 221 124 0 0 0 0 0 0 255 0 255 255 0 255 255 0 255 255 0 255 
255 0 255 255 0 255 255 0 255 255 0 255 255 0 255 255 0 255 255 0 255 255 0 255 
255 0 255 255 0 255 255 0 255 255 0 255 255 0 255 255 0 255 255 0 255 255 0 255 255 0 255 255 0 255 
255 0 255 255 0 255 0 0 0 0 0 0 255 203 105 255 204 107 255 205 105 255 204 107 
249 193 85 255 221 124 147 119 98 250 192 85 249 191 85 255 222 124 255 221 124 255 219 123 
255 204 107 255 221 125 255 205 107 255 221 124 248 192 84 85 70 63 249 193 85 85 70 63 
237 166 31 237 166 31 255 220 123 255 221 125 255 221 124 255 220 123 255 205 107 255 220 125 
255 204 107 255 205 109 255 204 106 255 203 105 85 70 63 255 205 109 255 204 107 255 204 107 
255 204 107 249 193 85 255 221 124 249 193 85 0 0 0 0 0 0 255 0 255 255 0 255 
255 0 255 255 0 255 255 0 255 255 0 255 255 0 255 255 0 255 255 0 255 255 0 255 
255 0 255 255 0 255 255 0 255 255 0 255 255 0 255 255 0 255 255 0 255 255 0 255 255 0 255 255 0 255 
0 0 0 0 0 0 249 191 85 255 204 107 255 205 109 255 221 124 255 204 107 249 192 84 
255 204 107 255 220 124 237 166 31 255 205 109 255 221 124 237 166 31 255 204 106 255 204 107 
255 204 106 255 205 109 255 220 125 255 204 108 255 220 123 255 220 125 237 166 31 255 220 123 
255 221 124 237 166 31 237 166 31 255 221 124 255 221 124 255 203 105 255 220 123 207 175 145 
123 100 81 255 221 124 255 205 107 255 203 105 255 205 105 255 203 105 255 204 107 255 205 109 
255 221 125 255 205 109 255 221 124 255 220 125 255 220 125 255 220 125 0 0 0 0 0 0 
255 0 255 255 0 255 255 0 255 255 0 255 255 0 255 255 0 255 255 0 255 255 0 255 
255 0 255 255 0 255 255 0 255 255 0 255 255 0 255 255 0 255 255 0 255 255 0 255 0 0 0 0 0 0 
255 204 107 255 205 109 255 219 123 255 205 105 255 221 125 255 230 158 255 204 107 255 205 109 
255 204 108 255 204 106 255 221 125 255 204 106 255 219 123 255 221 124 255 221 124 255 204 107 
255 204 106 147 119 98 255 205 109 255 204 108 255 204 107 255 205 105 255 221 124 85 70 63 
255 220 125 255 204 107 255 204 107 255 204 107 255 205 109 249 193 85 255 204 107 123 100 81 
206 174 144 85 70 63 249 193 85 255 203 105 255 204 107 255 221 124 255 220 125 255 221 124 
255 204 107 255 221 124 255 205 109 255 220 123 255 221 124 255 221 124 255 219 123 255 221 124 
0 0 0 0 0 0 255 0 255 255 0 255 255 0 255 255 0 255 255 0 255 255 0 255 
255 0 255 255 0 255 255 0 255 255 0 255 255 0 255 255 0 255 0 0 0 0 0 0 255 220 123 255 219 123 
255 229 156 255 230 158 255 230 157 255 230 157 255 230 157 255 220 125 237 166 31 255 203 105 
147 119 98 255 222 124 255 204 107 255 221 124 255 221 124 255 221 125 255 204 108 255 221 124 
147 119 98 85 70 63 85 70 63 255 204 107 255 205 109 255 204 107 255 220 125 255 221 125 
255 204 108 255 204 106 255 204 107 255 203 105 255 203 105 255 205 109 237 166 31 237 166 31 
85 70 63 85 70 63 237 166 31 255 204 108 255 219 123 249 193 85 255 219 123 249 193 85 
255 220 125 255 204 107 255 221 124 249 193 85 147 119 98 147 119 98 255 221 125 255 221 124 
255 221 124 255 220 123 0 0 0 0 0 0 255 0 255 255 0 255 255 0 255 255 0 255 
255 0 255 255 0 255 255 0 255 255 0 255 0 0 0 0 0 0 255 221 124 255 230 157 255 229 156 255 230 157 
147 119 98 147 119 98 255 229 156 255 221 124 255 230 157 255 219 123 255 230 157 255 205 109 
255 230 157 255 204 107 255 204 106 255 204 107 255 204 106 255 204 106 255 204 107 237 166 31 
237 166 31 83 69 63 237 166 31 255 204 108 237 166 31 255 203 105 255 204 107 255 204 106 
255 204 108 255 204 106 255 204 107 255 204 108 255 205 107 249 191 85 255 204 107 237 166 31 
237 166 31 249 193 85 249 193 85 255 220 125 255 221 124 255 221 124 249 192 84 255 219 123 
255 203 105 255 221 124 255 204 108 255 221 124 249 193 85 255 221 125 255 219 123 255 220 125 
255 221 124 255 220 125 255 221 124 255 221 124 0 0 0 0 0 0 255 0 255 255 0 255 
255 0 255 255 0 255 0 0 0 0 0 0 255 204 107 255 203 105 255 204 107 255 221 124 147 119 98 249 193 85 
85 70 63 85 70 63 255 221 124 237 166 31 237 166 31 255 219 123 255 221 124 255 230 157 
249 193 85 255 204 107 249 193 85 255 204 107 249 193 85 255 204 107 249 193 85 255 205 105 
255 204 107 237 166 31 237 166 31 249 193 85 255 204 106 249 193 85 249 192 86 255 205 105 
250 192 85 255 203 105 255 204 107 255 203 105 255 205 105 255 205 109 255 204 107 255 204 107 
249 193 85 255 203 105 249 191 85 255 204 108 255 204 107 250 192 85 255 205 109 249 193 85 
255 221 125 255 205 107 255 204 107 249 191 84 255 203 105 249 193 85 255 221 124 255 219 123 
255 221 124 255 205 109 255 221 124 255 221 124 255 221 125 255 221 124 0 0 0 0 0 0 
255 0 255 0 0 0 255 221 124 255 203 105 255 221 124 255 220 125 255 221 125 255 204 107 147 119 98 85 70 63 
85 70 63 123 100 81 237 166 31 237 166 31 255 220 123 255 221 124 255 231 157 255 221 124 
255 230 157 249 193 85 255 204 107 255 204 107 255 204 107 249 193 85 255 204 107 249 191 85 
249 193 85 249 192 86 249 193 85 255 221 124 249 191 84 255 204 107 255 204 108 249 191 85 
255 205 109 255 204 107 255 221 124 255 221 124 255 204 107 255 204 106 255 204 107 255 204 106 
255 220 123 255 221 124 255 221 124 249 191 85 255 220 125 249 193 85 249 192 86 255 221 124 
250 192 85 255 221 124 249 193 85 255 221 124 255 230 157 248 192 84 255 204 107 255 220 125 
255 221 124 255 204 107 255 221 124 255 221 124 255 221 124 255 220 125 255 204 108 255 220 125 
0 0 0 0 0 0 255 203 105 255 204 107 255 203 105 255 204 107 255 204 106 255 204 108 249 191 85 237 166 31 
237 166 31 237 166 31 237 166 31 249 193 85 249 193 85 255 230 157 250 192 85 255 230 157 
255 230 157 255 203 105 255 229 156 255 203 105 249 193 85 255 222 124 249 193 85 255 220 123 
249 193 85 249 193 85 255 221 124 249 193 85 255 204 107 249 193 85 249 193 85 255 203 105 
249 193 85 255 204 107 255 203 105 249 193 85 255 204 107 249 193 85 255 205 105 255 204 107 
255 219 123 255 205 105 239 183 77 255 205 109 237 166 31 239 183 77 85 70 63 85 70 63 
85 70 63 255 220 125 249 193 85 255 231 157 255 219 123 255 229 156 249 193 85 249 193 85 
255 221 124 249 193 85 255 205 109 255 204 106 249 193 85 255 204 107 255 205 109 255 205 107 
0 0 0 0 0 0 255 209 91 255 230 157 255 220 125 255 204 106 255 204 107 255 203 105 255 220 122 255 221 124 
255 220 125 255 230 157 255 221 124 255 230 157 255 220 123 249 193 85 255 220 123 255 219 123 
255 221 124 249 191 85 255 221 124 249 193 85 249 191 85 255 221 124 249 193 85 255 219 123 
249 191 85 255 219 123 255 229 156 249 192 86 255 204 107 255 203 105 255 205 105 249 193 85 
255 220 123 255 204 108 255 221 124 255 203 105 249 193 85 255 221 124 255 220 123 255 221 124 
255 203 105 239 183 77 255 221 124 249 193 85 85 70 63 85 70 63 207 175 145 207 175 145 
207 175 145 85 70 63 85 70 63 255 204 107 255 205 109 249 193 85 255 203 105 255 221 124 
249 193 85 255 221 124 255 221 124 255 221 124 255 222 124 255 220 124 249 193 85 224 183 80 
0 0 0 0 0 0 255 188 71 255 220 123 255 231 157 255 220 123 255 220 123 255 221 124 255 221 124 255 220 125 
255 221 124 255 221 124 255 221 124 255 221 124 248 192 84 255 230 157 255 220 123 255 204 106 
239 183 77 255 205 107 237 166 31 239 183 77 85 70 63 85 70 63 85 70 63 255 221 125 
249 193 85 255 229 156 255 220 125 255 230 157 250 192 85 255 205 107 249 191 85 255 205 109 
249 193 85 255 203 105 255 203 105 250 192 85 255 205 109 249 193 85 249 193 85 255 203 105 
255 221 125 255 204 108 237 166 31 85 70 63 147 119 98 182 157 134 207 175 145 182 157 134 
147 119 98 182 157 134 123 100 81 85 70 63 83 69 63 255 205 105 255 204 108 249 191 85 
255 229 156 249 193 85 255 230 157 255 220 125 255 221 124 249 193 85 255 220 123 249 192 84 
0 0 0 0 0 0 255 188 73 255 229 156 255 188 71 255 230 157 255 229 156 255 209 91 255 220 123 255 230 157 
255 229 156 255 230 157 255 230 157 255 229 156 255 220 124 249 193 85 255 204 107 239 183 77 
255 221 124 249 193 85 83 69 63 85 70 63 206 174 144 207 175 145 207 175 145 147 119 98 
147 119 98 147 119 98 147 119 98 85 70 63 255 204 108 255 205 109 255 204 106 255 205 109 
255 205 109 255 203 105 255 221 124 249 193 85 249 191 85 249 193 85 249 193 85 249 193 85 
255 230 157 156 133 113 255 219 123 85 70 63 147 119 98 147 119 98 182 157 134 147 119 98 
123 100 81 123 100 81 123 100 81 249 193 85 237 166 31 237 166 31 255 230 157 255 222 124 
255 221 125 255 221 124 255 220 125 224 183 80 249 193 85 184 137 59 249 193 85 199 151 72 
0 0 0 0 0 0 255 208 91 255 209 91 255 222 124 255 209 91 255 221 124 255 229 156 248 173 49 255 231 157 
255 221 124 255 204 107 255 230 157 255 230 157 255 230 157 255 204 107 255 220 125 255 204 107 
237 166 31 85 70 63 147 119 98 182 157 134 207 175 145 182 157 134 182 157 134 123 100 81 
147 119 98 147 119 98 123 100 81 123 100 81 85 70 63 255 204 108 255 204 107 255 203 105 
255 205 105 255 204 107 249 193 85 249 193 85 249 191 85 250 192 85 249 193 85 255 205 107 
255 204 107 255 220 123 156 133 113 237 166 31 237 166 31 123 100 81 123 100 81 123 100 81 
249 193 85 83 69 63 249 193 85 237 166 31 237 166 31 255 219 123 255 204 107 255 221 124 
211 161 79 255 221 124 199 151 72 249 193 85 224 182 79 249 193 85 224 183 80 199 151 72 
0 0 0 0 0 0 247 172 49 255 188 73 248 173 49 255 208 91 255 230 157 255 230 156 255 230 157 255 221 124 
255 230 157 255 221 124 255 204 106 255 221 124 255 204 108 255 221 124 255 229 156 156 133 113 
255 219 123 85 70 63 147 119 98 147 119 98 182 157 134 147 119 98 123 100 81 123 100 81 
237 166 31 123 100 81 182 157 134 237 166 31 255 230 157 255 230 157 255 204 106 255 204 107 
249 192 86 255 203 105 249 193 85 249 192 86 249 191 85 249 193 85 249 193 85 255 230 157 
147 119 98 255 229 156 255 203 105 255 219 123 249 193 85 85 70 63 249 193 85 85 70 63 
237 166 31 237 166 31 255 221 124 255 221 124 255 221 124 255 221 124 223 183 80 255 221 124 
255 221 124 199 151 72 224 183 80 199 151 72 199 151 72 184 137 59 184 137 59 184 137 59 
0 0 0 0 0 0 255 209 91 255 209 91 255 209 91 248 172 49 255 209 91 248 173 49 255 230 157 255 209 91 
255 221 124 255 230 157 255 221 125 255 209 92 255 221 125 255 203 105 255 204 106 255 221 124 
156 133 113 237 166 31 249 191 85 123 100 81 123 100 81 123 100 81 249 193 85 85 70 63 
249 191 85 237 166 31 237 166 31 255 221 124 255 205 109 249 193 85 255 204 107 249 193 85 
255 204 107 249 192 84 249 192 86 255 230 157 248 192 84 255 231 157 255 221 124 255 221 125 
255 230 157 255 205 109 255 231 157 255 203 105 255 220 122 255 221 124 237 166 31 255 220 123 
255 222 124 237 166 31 237 166 31 255 221 124 255 222 124 250 192 85 255 221 124 255 220 123 
199 151 72 255 219 123 197 146 63 184 137 59 224 183 80 199 151 72 199 151 72 224 183 80 
0 0 0 0 0 0 255 188 73 255 209 91 255 210 91 255 209 91 255 188 73 255 230 156 248 172 49 255 219 123 
255 230 157 255 220 123 255 230 157 255 220 125 255 210 91 255 204 107 255 205 109 255 220 125 
255 204 107 255 221 124 250 192 85 85 70 63 248 192 84 85 70 63 237 166 31 237 166 31 
237 166 31 237 166 31 255 219 123 255 221 125 255 221 124 249 191 85 249 192 84 255 222 124 
249 193 85 255 221 124 249 191 85 147 119 98 147 119 98 249 193 85 255 203 105 249 191 85 
255 221 125 147 119 98 255 220 123 255 231 157 255 230 157 255 220 123 255 221 124 255 221 125 
255 220 125 255 205 109 249 193 85 255 220 125 248 192 84 255 221 124 199 151 72 255 220 123 
197 146 63 184 137 59 199 151 72 225 183 80 199 151 72 224 183 80 204 168 77 197 146 63 
0 0 0 0 0 0 255 210 91 255 209 91 255 209 91 255 202 65 255 202 65 255 202 65 255 188 73 255 188 73 
255 209 91 248 173 49 255 221 124 248 173 49 255 221 124 255 220 125 255 203 105 255 221 125 
255 205 105 255 222 124 255 221 124 255 220 122 237 166 31 255 220 125 255 221 124 237 166 31 
237 166 31 255 221 124 255 221 124 255 204 107 249 193 85 249 193 85 255 220 123 249 193 85 
249 191 85 255 221 124 85 70 63 255 230 157 147 119 98 255 230 157 249 191 85 255 220 125 
255 221 124 255 221 124 255 221 124 255 219 123 255 221 125 255 220 123 255 220 125 255 231 157 
223 183 80 249 193 85 255 220 125 249 193 85 255 220 123 249 192 86 224 183 80 197 145 61 
211 162 80 199 151 72 224 183 80 211 161 79 224 183 80 197 146 63 199 151 72 199 151 72 
0 0 0 255 0 255 0 0 0 0 0 0 255 208 91 248 173 49 248 173 49 248 172 48 255 209 91 255 210 91 
255 188 73 255 188 73 248 173 49 255 209 91 255 188 73 248 173 49 255 220 123 255 209 91 
255 230 157 255 220 123 255 204 107 255 204 106 255 220 125 255 221 124 255 220 123 255 205 109 
255 205 107 255 221 124 255 220 123 249 193 85 255 204 107 249 193 85 255 204 107 255 221 124 
237 166 31 207 175 145 207 175 145 85 70 63 255 204 107 249 193 85 255 205 109 249 193 85 
255 204 107 255 221 124 255 220 123 255 204 107 255 204 107 255 204 107 249 193 85 225 183 80 
249 191 85 197 146 63 249 193 85 211 162 80 224 183 80 224 182 79 197 146 63 211 162 80 
224 183 80 225 183 80 199 151 72 197 146 63 197 146 63 204 168 77 0 0 0 0 0 0 
255 0 255 255 0 255 255 0 255 255 0 255 0 0 0 0 0 0 255 208 91 255 187 71 248 173 49 248 173 48 
255 210 89 255 202 65 255 189 72 248 173 49 255 188 71 255 221 124 248 173 49 255 221 124 
255 221 124 255 229 156 255 204 108 255 221 124 255 222 124 255 203 105 255 220 123 255 220 123 
255 221 124 255 203 105 255 204 107 255 204 107 255 204 107 249 193 85 237 166 31 147 119 98 
237 166 31 147 119 98 85 70 63 85 70 63 255 205 107 255 204 107 255 204 107 255 204 108 
255 204 107 255 221 124 255 220 123 255 221 124 255 220 125 255 221 124 212 151 50 248 192 84 
197 146 63 225 183 80 223 182 79 225 183 80 224 183 80 197 146 63 211 162 80 224 183 80 
211 162 80 211 161 79 224 183 80 224 183 80 0 0 0 0 0 0 255 0 255 255 0 255 
255 0 255 255 0 255 255 0 255 255 0 255 255 0 255 255 0 255 0 0 0 0 0 0 255 209 92 255 210 91 
248 173 49 255 202 65 255 202 65 255 188 71 247 172 49 255 210 91 255 188 73 255 208 91 
255 231 157 255 209 91 255 230 157 255 204 107 255 221 124 255 210 91 255 204 108 255 204 107 
255 229 156 255 230 157 255 221 124 255 204 107 255 230 157 255 221 124 249 193 85 255 230 157 
255 219 123 255 203 105 237 166 31 255 230 157 255 230 157 255 229 156 255 230 157 255 204 108 
255 204 107 255 204 108 224 164 66 255 220 122 240 192 66 225 165 67 249 191 85 211 162 80 
249 192 86 211 161 79 224 183 81 197 146 63 197 146 63 211 161 79 224 183 80 211 161 79 
225 183 80 225 183 80 0 0 0 0 0 0 255 0 255 255 0 255 255 0 255 255 0 255 
255 0 255 255 0 255 255 0 255 255 0 255 255 0 255 255 0 255 255 0 255 255 0 255 0 0 0 0 0 0 
255 208 91 255 188 73 255 209 91 255 202 65 255 188 73 255 188 71 248 173 49 255 202 65 
255 202 65 248 173 49 255 205 107 255 220 125 255 205 109 255 219 123 248 173 49 255 221 124 
255 205 107 255 221 124 255 221 124 255 220 122 255 220 125 249 192 84 255 222 124 249 193 85 
255 221 124 255 220 125 255 204 108 255 220 123 255 220 125 255 221 124 255 204 107 255 221 124 
255 221 124 212 151 50 255 220 123 224 164 66 255 221 124 240 192 66 225 165 67 197 146 63 
197 146 63 197 146 63 197 146 63 225 183 80 224 184 81 224 183 80 223 183 80 224 183 80 
0 0 0 0 0 0 255 0 255 255 0 255 255 0 255 255 0 255 255 0 255 255 0 255 
255 0 255 255 0 255 255 0 255 255 0 255 255 0 255 255 0 255 255 0 255 255 0 255 255 0 255 255 0 255 
0 0 0 0 0 0 255 210 89 255 188 71 255 188 73 255 209 91 255 188 73 248 173 49 
255 202 65 255 202 65 255 188 73 248 173 49 255 210 91 255 210 91 255 209 91 255 209 91 
255 231 157 255 209 91 255 204 108 255 220 125 255 221 124 255 220 125 255 220 123 255 220 123 
255 221 124 255 221 125 255 220 125 255 221 125 255 220 125 255 220 125 255 231 157 255 220 123 
250 192 85 255 222 124 224 164 66 240 192 66 197 146 63 197 146 63 197 146 63 211 161 79 
223 183 80 224 183 80 224 183 80 223 183 80 224 183 80 224 183 80 0 0 0 0 0 0 
255 0 255 255 0 255 255 0 255 255 0 255 255 0 255 255 0 255 255 0 255 255 0 255 
255 0 255 255 0 255 255 0 255 255 0 255 255 0 255 255 0 255 255 0 255 255 0 255 255 0 255 255 0 255 
255 0 255 255 0 255 0 0 0 0 0 0 255 209 91 255 202 65 255 202 65 255 202 65 
248 173 49 248 173 49 255 202 65 255 187 72 248 173 49 255 230 157 248 173 49 255 230 157 
255 219 123 255 230 157 255 220 125 255 221 124 255 220 125 255 221 124 255 221 125 255 220 125 
255 220 123 255 221 124 255 219 123 255 220 123 240 192 66 255 229 156 240 192 66 249 193 85 
249 193 85 225 165 67 249 193 85 197 145 61 224 164 66 240 192 66 224 164 66 224 183 80 
211 162 80 223 183 80 211 161 79 223 183 80 0 0 0 0 0 0 255 0 255 255 0 255 
255 0 255 255 0 255 255 0 255 255 0 255 255 0 255 255 0 255 255 0 255 255 0 255 
255 0 255 255 0 255 255 0 255 255 0 255 255 0 255 255 0 255 255 0 255 255 0 255 255 0 255 255 0 255 
255 0 255 255 0 255 255 0 255 255 0 255 0 0 0 0 0 0 255 209 91 255 209 92 
255 188 73 255 188 73 248 173 49 255 202 65 255 209 90 255 188 73 255 230 157 255 188 73 
255 229 156 255 229 156 255 230 157 255 230 157 255 220 123 255 231 157 255 221 124 255 221 124 
255 221 124 255 203 105 255 231 157 249 193 85 255 230 157 249 193 85 255 230 157 240 192 66 
249 191 85 212 151 50 225 165 67 225 165 67 240 192 66 211 161 79 211 162 80 211 161 79 
224 183 80 224 183 80 0 0 0 0 0 0 255 0 255 255 0 255 255 0 255 255 0 255 
255 0 255 255 0 255 255 0 255 255 0 255 255 0 255 255 0 255 255 0 255 255 0 255 
255 0 255 255 0 255 255 0 255 255 0 255 255 0 255 255 0 255 255 0 255 255 0 255 255 0 255 255 0 255 
255 0 255 255 0 255 255 0 255 255 0 255 255 0 255 255 0 255 0 0 0 0 0 0 
255 208 91 248 172 49 255 209 92 255 209 91 255 202 65 255 230 157 255 202 65 255 230 157 
255 221 125 248 173 49 255 230 156 255 220 125 255 230 157 255 231 157 255 229 156 255 230 157 
240 192 66 255 230 157 240 192 66 255 230 157 248 192 84 225 165 67 225 165 67 212 151 50 
225 165 67 225 165 67 240 192 66 225 165 67 211 161 79 225 165 67 212 151 50 197 145 61 
0 0 0 0 0 0 255 0 255 255 0 255 255 0 255 255 0 255 255 0 255 255 0 255 
255 0 255 255 0 255 255 0 255 255 0 255 255 0 255 255 0 255 255 0 255 255 0 255 
255 0 255 255 0 255 255 0 255 255 0 255 255 0 255 255 0 255 255 0 255 255 0 255 255 0 255 255 0 255 
255 0 255 255 0 255 255 0 255 255 0 255 255 0 255 255 0 255 255 0 255 255 0 255 
0 0 0 0 0 0 248 173 49 248 173 49 255 209 92 255 202 65 255 209 91 255 188 72 
255 209 91 255 230 157 255 221 124 255 229 156 255 221 124 255 220 125 255 231 157 255 221 125 
255 230 157 212 151 50 255 229 156 249 193 85 255 230 157 249 193 85 212 151 50 225 165 67 
240 192 66 225 165 67 240 192 66 240 192 66 212 151 50 212 151 50 0 0 0 0 0 0 
255 0 255 255 0 255 255 0 255 255 0 255 255 0 255 255 0 255 255 0 255 255 0 255 
255 0 255 255 0 255 255 0 255 255 0 255 255 0 255 255 0 255 255 0 255 255 0 255 
255 0 255 255 0 255 255 0 255 255 0 255 255 0 255 255 0 255 255 0 255 255 0 255 255 0 255 255 0 255 
255 0 255 255 0 255 255 0 255 255 0 255 255 0 255 255 0 255 255 0 255 255 0 255 
255 0 255 255 0 255 0 0 0 0 0 0 248 173 49 248 173 49 248 172 49 255 209 92 
255 188 72 255 202 65 255 202 65 255 208 91 255 189 72 255 229 156 248 173 49 255 230 157 
255 210 89 240 192 66 240 192 66 240 192 66 212 151 50 212 151 50 224 164 66 240 192 66 
225 165 67 240 192 66 212 151 50 212 151 50 0 0 0 0 0 0 255 0 255 255 0 255 
255 0 255 255 0 255 255 0 255 255 0 255 255 0 255 255 0 255 255 0 255 255 0 255 
255 0 255 255 0 255 255 0 255 255 0 255 255 0 255 255 0 255 255 0 255 255 0 255 
255 0 255 255 0 255 255 0 255 255 0 255 255 0 255 255 0 255 255 0 255 255 0 255 255 0 255 255 0 255 
255 0 255 255 0 255 255 0 255 255 0 255 255 0 255 255 0 255 255 0 255 255 0 255 
255 0 255 255 0 255 255 0 255 255 0 255 0 0 0 0 0 0 255 210 89 248 173 49 
248 173 49 248 173 49 255 188 73 255 208 91 255 210 91 255 188 73 240 192 66 255 188 73 
212 151 50 211 150 49 212 151 50 212 151 50 225 165 67 225 165 67 240 192 66 225 165 67 
212 151 50 211 150 49 0 0 0 0 0 0 255 0 255 255 0 255 255 0 255 255 0 255 
255 0 255 255 0 255 255 0 255 255 0 255 255 0 255 255 0 255 255 0 255 255 0 255 
255 0 255 255 0 255 255 0 255 255 0 255 255 0 255 255 0 255 255 0 255 255 0 255 
255 0 255 255 0 255 255 0 255 255 0 255 255 0 255 255 0 255 255 0 255 255 0 255 255 0 255 255 0 255 
255 0 255 255 0 255 255 0 255 255 0 255 255 0 255 255 0 255 255 0 255 255 0 255 
255 0 255 255 0 255 255 0 255 255 0 255 255 0 255 255 0 255 0 0 0 0 0 0 
255 208 91 255 208 91 248 173 49 248 173 49 255 188 71 255 209 91 255 209 91 240 192 66 
255 208 91 240 192 66 224 164 66 225 165 67 240 192 66 240 192 66 212 151 50 212 151 50 
0 0 0 0 0 0 255 0 255 255 0 255 255 0 255 255 0 255 255 0 255 255 0 255 
255 0 255 255 0 255 255 0 255 255 0 255 255 0 255 255 0 255 255 0 255 255 0 255 
255 0 255 255 0 255 255 0 255 255 0 255 255 0 255 255 0 255 255 0 255 255 0 255 
255 0 255 255 0 255 255 0 255 255 0 255 255 0 255 255 0 255 255 0 255 255 0 255 255 0 255 255 0 255 
255 0 255 255 0 255 255 0 255 255 0 255 255 0 255 255 0 255 255 0 255 255 0 255 
255 0 255 255 0 255 255 0 255 255 0 255 255 0 255 255 0 255 255 0 255 255 0 255 
0 0 0 0 0 0 255 209 91 255 209 91 248 173 49 255 209 91 240 192 66 255 209 91 
240 192 66 225 165 67 240 192 66 240 192 66 212 151 50 211 150 49 0 0 0 0 0 0 
255 0 255 255 0 255 255 0 255 255 0 255 255 0 255 255 0 255 255 0 255 255 0 255 
255 0 255 255 0 255 255 0 255 255 0 255 255 0 255 255 0 255 255 0 255 255 0 255 
255 0 255 255 0 255 255 0 255 255 0 255 255 0 255 255 0 255 255 0 255 255 0 255 
255 0 255 255 0 255 255 0 255 255 0 255 255 0 255 255 0 255 255 0 255 255 0 255 255 0 255 255 0 255 
255 0 255 255 0 255 255 0 255 255 0 255 255 0 255 255 0 255 255 0 255 255 0 255 
255 0 255 255 0 255 255 0 255 255 0 255 255 0 255 255 0 255 255 0 255 255 0 255 
255 0 255 255 0 255 0 0 0 0 0 0 255 209 91 248 173 49 248 173 49 240 192 66 
255 210 91 240 192 66 212 151 50 212 151 50 0 0 0 0 0 0 255 0 255 255 0 255 
255 0 255 255 0 255 255 0 255 255 0 255 255 0 255 255 0 255 255 0 255 255 0 255 
255 0 255 255 0 255 255 0 255 255 0 255 255 0 255 255 0 255 255 0 255 255 0 255 
255 0 255 255 0 255 255 0 255 255 0 255 255 0 255 255 0 255 255 0 255 255 0 255 
255 0 255 255 0 255 255 0 255 255 0 255 255 0 255 255 0 255 255 0 255 255 0 255 255 0 255 255 0 255 
255 0 255 255 0 255 255 0 255 255 0 255 255 0 255 255 0 255 255 0 255 255 0 255 
255 0 255 255 0 255 255 0 255 255 0 255 255 0 255 255 0 255 255 0 255 255 0 255 
255 0 255 255 0 255 255 0 255 255 0 255 0 0 0 0 0 0 255 210 91 248 173 49 
212 151 50 211 150 49 0 0 0 0 0 0 255 0 255 255 0 255 255 0 255 255 0 255 
255 0 255 255 0 255 255 0 255 255 0 255 255 0 255 255 0 255 255 0 255 255 0 255 
255 0 255 255 0 255 255 0 255 255 0 255 255 0 255 255 0 255 255 0 255 255 0 255 
255 0 255 255 0 255 255 0 255 255 0 255 255 0 255 255 0 255 255 0 255 255 0 255 
255 0 255 255 0 255 255 0 255 255 0 255 255 0 255 255 0 255 255 0 255 255 0 255 255 0 255 255 0 255 
255 0 255 255 0 255 255 0 255 255 0 255 255 0 255 255 0 255 255 0 255 255 0 255 
255 0 255 255 0 255 255 0 255 255 0 255 255 0 255 255 0 255 255 0 255 255 0 255 
255 0 255 255 0 255 255 0 255 255 0 255 255 0 255 255 0 255 0 0 0 0 0 0 
0 0 0 0 0 0 255 0 255 255 0 255 255 0 255 255 0 255 255 0 255 255 0 255 
255 0 255 255 0 255 255 0 255 255 0 255 255 0 255 255 0 255 255 0 255 255 0 255 
255 0 255 255 0 255 255 0 255 255 0 255 255 0 255 255 0 255 255 0 255 255 0 255 
255 0 255 255 0 255 255 0 255 255 0 255 255 0 255 255 0 255 255 0 255 255 0 255 
255 0 255 