P3
# Created by IrfanView
75 50
255
255 0 255 255 0 255 255 0 255 255 0 255 255 0 255 
255 0 255 255 0 255 255 0 255 255 0 255 255 0 255 
255 0 255 255 0 255 255 0 255 255 0 255 255 0 255 
255 0 255 255 0 255 255 0 255 255 0 255 255 0 255 
255 0 255 255 0 255 255 0 255 255 0 255 255 0 255 
255 0 255 255 0 255 255 0 255 255 0 255 255 0 255 
255 0 255 255 0 255 255 0 255 255 0 255 255 0 255 
255 0 255 0 162 232 0 162 232 0 162 232 255 0 255 
255 0 255 255 0 255 255 0 255 255 0 255 255 0 255 
255 0 255 255 0 255 255 0 255 255 0 255 255 0 255 
255 0 255 255 0 255 255 0 255 255 0 255 255 0 255 
255 0 255 255 0 255 255 0 255 255 0 255 255 0 255 
255 0 255 255 0 255 255 0 255 255 0 255 255 0 255 
255 0 255 255 0 255 255 0 255 255 0 255 255 0 255 
255 0 255 255 0 255 255 0 255 255 0 255 255 0 255 
255 0 255 255 0 255 255 0 255 255 0 255 255 0 255 
255 0 255 255 0 255 255 0 255 255 0 255 255 0 255 
255 0 255 255 0 255 255 0 255 255 0 255 255 0 255 
255 0 255 255 0 255 255 0 255 255 0 255 255 0 255 
255 0 255 255 0 255 255 0 255 255 0 255 255 0 255 
255 0 255 255 0 255 255 0 255 255 0 255 255 0 255 
255 0 255 255 0 255 255 0 255 255 0 255 0 162 232 
0 162 232 0 162 232 0 162 232 0 162 232 0 162 232 
0 162 232 255 0 255 255 0 255 255 0 255 255 0 255 
255 0 255 255 0 255 255 0 255 255 0 255 255 0 255 
255 0 255 255 0 255 255 0 255 255 0 255 255 0 255 
255 0 255 255 0 255 255 0 255 255 0 255 255 0 255 
255 0 255 255 0 255 255 0 255 255 0 255 255 0 255 
255 0 255 255 0 255 255 0 255 255 0 255 255 0 255 
255 0 255 255 0 255 255 0 255 255 0 255 255 0 255 
255 0 255 255 0 255 255 0 255 255 0 255 255 0 255 
255 0 255 255 0 255 255 0 255 255 0 255 255 0 255 
255 0 255 255 0 255 255 0 255 255 0 255 255 0 255 
255 0 255 255 0 255 255 0 255 255 0 255 255 0 255 
255 0 255 255 0 255 255 0 255 255 0 255 255 0 255 
255 0 255 255 0 255 255 0 255 255 0 255 255 0 255 
255 0 255 255 0 255 255 0 255 0 162 232 0 162 232 
0 162 232 0 162 232 0 162 232 0 162 232 0 162 232 
0 162 232 0 162 232 255 0 255 255 0 255 255 0 255 
255 0 255 255 0 255 255 0 255 255 0 255 255 0 255 
255 0 255 255 0 255 255 0 255 255 0 255 255 0 255 
255 0 255 255 0 255 255 0 255 255 0 255 255 0 255 
255 0 255 255 0 255 255 0 255 255 0 255 255 0 255 
255 0 255 255 0 255 255 0 255 255 0 255 255 0 255 
255 0 255 255 0 255 255 0 255 255 0 255 255 0 255 
255 0 255 255 0 255 255 0 255 255 0 255 255 0 255 
255 0 255 255 0 255 255 0 255 255 0 255 255 0 255 
255 0 255 255 0 255 255 0 255 255 0 255 255 0 255 
255 0 255 255 0 255 255 0 255 255 0 255 255 0 255 
255 0 255 255 0 255 255 0 255 255 0 255 255 0 255 
255 0 255 255 0 255 255 0 255 255 0 255 255 0 255 
255 0 255 0 162 232 0 162 232 0 162 232 0 162 232 
0 162 232 0 162 232 0 162 232 0 162 232 0 162 232 
0 162 232 0 162 232 0 162 232 0 162 232 255 0 255 
255 0 255 255 0 255 255 0 255 255 0 255 255 0 255 
255 0 255 255 0 255 255 0 255 255 0 255 255 0 255 
255 0 255 255 0 255 255 0 255 255 0 255 255 0 255 
255 0 255 255 0 255 255 0 255 255 0 255 255 0 255 
255 0 255 255 0 255 255 0 255 255 0 255 255 0 255 
255 0 255 255 0 255 255 0 255 255 0 255 255 0 255 
255 0 255 255 0 255 255 0 255 255 0 255 255 0 255 
255 0 255 255 0 255 255 0 255 255 0 255 255 0 255 
255 0 255 255 0 255 255 0 255 255 0 255 255 0 255 
255 0 255 255 0 255 255 0 255 255 0 255 255 0 255 
255 0 255 255 0 255 255 0 255 255 0 255 255 0 255 
255 0 255 255 0 255 255 0 255 255 0 255 0 162 232 
0 162 232 0 162 232 0 162 232 0 162 232 0 162 232 
0 162 232 0 162 232 0 162 232 0 162 232 0 162 232 
0 162 232 0 162 232 0 162 232 0 162 232 0 162 232 
0 162 232 255 0 255 255 0 255 255 0 255 255 0 255 
255 0 255 255 0 255 255 0 255 255 0 255 255 0 255 
255 0 255 255 0 255 255 0 255 255 0 255 255 0 255 
255 0 255 255 0 255 255 0 255 255 0 255 255 0 255 
255 0 255 255 0 255 255 0 255 255 0 255 255 0 255 
255 0 255 255 0 255 255 0 255 255 0 255 255 0 255 
255 0 255 255 0 255 255 0 255 255 0 255 255 0 255 
255 0 255 255 0 255 255 0 255 255 0 255 255 0 255 
255 0 255 255 0 255 255 0 255 255 0 255 255 0 255 
255 0 255 255 0 255 255 0 255 255 0 255 255 0 255 
255 0 255 255 0 255 255 0 255 255 0 255 255 0 255 
255 0 255 255 0 255 0 162 232 0 162 232 0 162 232 
0 162 232 0 162 232 0 162 232 0 162 232 0 162 232 
0 162 232 0 162 232 0 162 232 0 162 232 0 162 232 
0 162 232 0 162 232 0 162 232 0 162 232 0 162 232 
0 162 232 0 162 232 0 162 232 255 0 255 255 0 255 
255 0 255 255 0 255 255 0 255 255 0 255 255 0 255 
255 0 255 255 0 255 255 0 255 255 0 255 255 0 255 
255 0 255 255 0 255 255 0 255 255 0 255 255 0 255 
255 0 255 255 0 255 255 0 255 255 0 255 255 0 255 
255 0 255 255 0 255 255 0 255 255 0 255 255 0 255 
255 0 255 255 0 255 255 0 255 255 0 255 255 0 255 
255 0 255 255 0 255 255 0 255 255 0 255 255 0 255 
255 0 255 255 0 255 255 0 255 255 0 255 255 0 255 
255 0 255 255 0 255 255 0 255 255 0 255 255 0 255 
255 0 255 255 0 255 255 0 255 255 0 255 255 0 255 
255 0 255 0 162 232 0 162 232 0 162 232 0 162 232 
0 162 232 0 162 232 0 162 232 0 162 232 0 162 232 
0 162 232 0 162 232 0 162 232 0 162 232 0 162 232 
0 162 232 0 162 232 0 162 232 0 162 232 0 162 232 
0 162 232 0 162 232 0 162 232 0 162 232 255 0 255 
255 0 255 255 0 255 255 0 255 255 0 255 255 0 255 
255 0 255 255 0 255 255 0 255 255 0 255 255 0 255 
255 0 255 255 0 255 255 0 255 255 0 255 255 0 255 
255 0 255 255 0 255 255 0 255 255 0 255 255 0 255 
255 0 255 255 0 255 255 0 255 255 0 255 255 0 255 
255 0 255 255 0 255 255 0 255 255 0 255 255 0 255 
255 0 255 255 0 255 255 0 255 255 0 255 255 0 255 
255 0 255 255 0 255 255 0 255 255 0 255 255 0 255 
255 0 255 255 0 255 255 0 255 255 0 255 255 0 255 
255 0 255 255 0 255 255 0 255 255 0 255 0 162 232 
0 162 232 0 162 232 0 162 232 0 162 232 0 162 232 
0 162 232 0 162 232 0 162 232 0 162 232 0 162 232 
0 162 232 0 162 232 0 162 232 0 162 232 0 162 232 
0 162 232 0 162 232 0 162 232 0 162 232 0 162 232 
0 162 232 0 162 232 0 162 232 0 162 232 0 162 232 
0 162 232 255 0 255 255 0 255 255 0 255 255 0 255 
255 0 255 255 0 255 255 0 255 255 0 255 255 0 255 
255 0 255 255 0 255 255 0 255 255 0 255 255 0 255 
255 0 255 255 0 255 255 0 255 255 0 255 255 0 255 
255 0 255 255 0 255 255 0 255 255 0 255 255 0 255 
255 0 255 255 0 255 255 0 255 255 0 255 255 0 255 
255 0 255 255 0 255 255 0 255 255 0 255 255 0 255 
255 0 255 255 0 255 255 0 255 255 0 255 255 0 255 
255 0 255 255 0 255 255 0 255 255 0 255 255 0 255 
255 0 255 255 0 255 0 162 232 0 162 232 0 162 232 
0 162 232 0 162 232 0 162 232 0 162 232 0 162 232 
0 162 232 0 162 232 0 162 232 0 162 232 0 162 232 
0 162 232 0 162 232 0 162 232 0 162 232 0 162 232 
0 162 232 0 162 232 0 162 232 0 162 232 0 162 232 
0 162 232 0 162 232 0 162 232 0 162 232 0 162 232 
0 162 232 0 162 232 0 162 232 255 0 255 255 0 255 
255 0 255 255 0 255 255 0 255 255 0 255 255 0 255 
255 0 255 255 0 255 255 0 255 255 0 255 255 0 255 
255 0 255 255 0 255 255 0 255 255 0 255 255 0 255 
255 0 255 255 0 255 255 0 255 255 0 255 255 0 255 
255 0 255 255 0 255 255 0 255 255 0 255 255 0 255 
255 0 255 255 0 255 255 0 255 255 0 255 255 0 255 
255 0 255 255 0 255 255 0 255 255 0 255 255 0 255 
255 0 255 255 0 255 255 0 255 255 0 255 255 0 255 
0 162 232 0 162 232 0 162 232 0 162 232 0 162 232 
0 162 232 0 162 232 0 162 232 0 162 232 0 162 232 
0 162 232 0 162 232 0 162 232 0 162 232 0 162 232 
0 162 232 0 162 232 0 162 232 0 162 232 0 162 232 
0 162 232 0 162 232 0 162 232 0 162 232 0 162 232 
0 162 232 0 162 232 0 162 232 0 162 232 0 162 232 
0 162 232 0 162 232 0 162 232 0 162 232 0 162 232 
255 0 255 255 0 255 255 0 255 255 0 255 255 0 255 
255 0 255 255 0 255 255 0 255 255 0 255 255 0 255 
255 0 255 255 0 255 255 0 255 255 0 255 255 0 255 
255 0 255 255 0 255 255 0 255 255 0 255 255 0 255 
255 0 255 255 0 255 255 0 255 255 0 255 255 0 255 
255 0 255 255 0 255 255 0 255 255 0 255 255 0 255 
255 0 255 255 0 255 255 0 255 255 0 255 255 0 255 
255 0 255 255 0 255 255 0 255 255 0 255 0 162 232 
0 162 232 0 162 232 0 162 232 0 162 232 0 162 232 
0 162 232 0 162 232 0 162 232 0 162 232 0 162 232 
0 162 232 0 162 232 0 162 232 0 162 232 0 162 232 
0 162 232 0 162 232 0 162 232 0 162 232 0 162 232 
0 162 232 0 162 232 0 162 232 0 162 232 0 162 232 
0 162 232 0 162 232 0 162 232 0 162 232 0 162 232 
0 162 232 0 162 232 0 162 232 0 162 232 0 162 232 
0 162 232 255 0 255 255 0 255 255 0 255 255 0 255 
255 0 255 255 0 255 255 0 255 255 0 255 255 0 255 
255 0 255 255 0 255 255 0 255 255 0 255 255 0 255 
255 0 255 255 0 255 255 0 255 255 0 255 255 0 255 
255 0 255 255 0 255 255 0 255 255 0 255 255 0 255 
255 0 255 255 0 255 255 0 255 255 0 255 255 0 255 
255 0 255 255 0 255 255 0 255 255 0 255 255 0 255 
255 0 255 255 0 255 0 162 232 0 162 232 0 162 232 
0 162 232 0 162 232 0 162 232 0 162 232 0 162 232 
0 162 232 0 162 232 0 162 232 0 162 232 0 162 232 
0 162 232 0 162 232 0 162 232 0 162 232 0 162 232 
0 162 232 0 162 232 0 162 232 0 162 232 0 162 232 
0 162 232 0 162 232 0 162 232 0 162 232 0 162 232 
0 162 232 0 162 232 0 162 232 0 162 232 0 162 232 
0 162 232 0 162 232 0 162 232 0 162 232 0 162 232 
0 162 232 0 162 232 0 162 232 255 0 255 255 0 255 
255 0 255 255 0 255 255 0 255 255 0 255 255 0 255 
255 0 255 255 0 255 255 0 255 255 0 255 255 0 255 
255 0 255 255 0 255 255 0 255 255 0 255 255 0 255 
255 0 255 255 0 255 255 0 255 255 0 255 255 0 255 
255 0 255 255 0 255 255 0 255 255 0 255 255 0 255 
255 0 255 255 0 255 255 0 255 255 0 255 255 0 255 
0 162 232 0 162 232 0 162 232 0 162 232 0 162 232 
0 162 232 0 162 232 0 162 232 0 162 232 0 162 232 
0 162 232 0 162 232 0 162 232 0 162 232 0 162 232 
0 162 232 0 162 232 0 162 232 0 162 232 0 162 232 
0 162 232 0 162 232 0 162 232 0 162 232 0 162 232 
0 162 232 0 162 232 0 162 232 0 162 232 0 162 232 
0 162 232 0 162 232 0 162 232 0 162 232 0 162 232 
0 162 232 0 162 232 0 162 232 0 162 232 0 162 232 
0 162 232 0 162 232 0 162 232 0 162 232 0 162 232 
255 0 255 255 0 255 255 0 255 255 0 255 255 0 255 
255 0 255 255 0 255 255 0 255 255 0 255 255 0 255 
255 0 255 255 0 255 255 0 255 255 0 255 255 0 255 
255 0 255 255 0 255 255 0 255 255 0 255 255 0 255 
255 0 255 255 0 255 255 0 255 255 0 255 255 0 255 
255 0 255 255 0 255 255 0 255 0 162 232 0 162 232 
0 162 232 0 162 232 0 162 232 0 162 232 0 162 232 
0 162 232 0 162 232 0 162 232 0 162 232 0 162 232 
0 162 232 0 162 232 0 162 232 0 162 232 0 162 232 
0 162 232 0 162 232 0 162 232 0 162 232 0 162 232 
0 162 232 0 162 232 0 162 232 0 162 232 0 162 232 
0 162 232 0 162 232 0 162 232 0 162 232 0 162 232 
0 162 232 0 162 232 0 162 232 0 162 232 0 162 232 
0 162 232 0 162 232 0 162 232 0 162 232 0 162 232 
0 162 232 0 162 232 0 162 232 0 162 232 0 162 232 
0 162 232 0 162 232 255 0 255 255 0 255 255 0 255 
255 0 255 255 0 255 255 0 255 255 0 255 255 0 255 
255 0 255 255 0 255 255 0 255 255 0 255 255 0 255 
255 0 255 255 0 255 255 0 255 255 0 255 255 0 255 
255 0 255 255 0 255 255 0 255 255 0 255 255 0 255 
255 0 255 255 0 255 0 162 232 0 162 232 0 162 232 
0 162 232 0 162 232 0 162 232 0 162 232 0 162 232 
0 162 232 0 162 232 0 162 232 0 162 232 0 162 232 
0 162 232 0 162 232 0 162 232 0 162 232 0 162 232 
0 162 232 0 162 232 0 162 232 0 162 232 0 162 232 
0 162 232 0 162 232 0 162 232 0 162 232 0 162 232 
0 162 232 0 162 232 0 162 232 0 162 232 0 162 232 
0 162 232 0 162 232 0 162 232 0 162 232 0 162 232 
0 162 232 0 162 232 0 162 232 0 162 232 0 162 232 
0 162 232 0 162 232 0 162 232 0 162 232 0 162 232 
0 162 232 0 162 232 0 162 232 255 0 255 255 0 255 
255 0 255 255 0 255 255 0 255 255 0 255 255 0 255 
255 0 255 255 0 255 255 0 255 255 0 255 255 0 255 
255 0 255 255 0 255 255 0 255 255 0 255 255 0 255 
255 0 255 255 0 255 255 0 255 255 0 255 255 0 255 
0 162 232 0 162 232 0 162 232 0 162 232 0 162 232 
0 162 232 0 162 232 0 162 232 0 162 232 0 162 232 
0 162 232 0 162 232 0 162 232 0 162 232 0 162 232 
0 162 232 0 162 232 0 162 232 0 162 232 0 162 232 
0 162 232 0 162 232 0 162 232 0 162 232 0 162 232 
0 162 232 0 162 232 0 162 232 0 162 232 0 162 232 
0 162 232 0 162 232 0 162 232 0 162 232 0 162 232 
0 162 232 0 162 232 0 162 232 0 162 232 0 162 232 
0 162 232 0 162 232 0 162 232 0 162 232 0 162 232 
0 162 232 0 162 232 0 162 232 0 162 232 0 162 232 
0 162 232 0 162 232 0 162 232 0 162 232 0 162 232 
255 0 255 255 0 255 255 0 255 255 0 255 255 0 255 
255 0 255 255 0 255 255 0 255 255 0 255 255 0 255 
255 0 255 255 0 255 255 0 255 255 0 255 255 0 255 
255 0 255 255 0 255 255 0 255 0 162 232 0 162 232 
0 162 232 0 162 232 0 162 232 0 162 232 0 162 232 
0 162 232 0 162 232 0 162 232 0 162 232 0 162 232 
0 162 232 0 162 232 0 162 232 0 162 232 0 162 232 
0 162 232 0 162 232 0 162 232 0 162 232 0 162 232 
0 162 232 0 162 232 0 162 232 0 162 232 0 162 232 
0 162 232 0 162 232 0 162 232 0 162 232 0 162 232 
0 162 232 0 162 232 0 162 232 0 162 232 0 162 232 
0 162 232 0 162 232 0 162 232 0 162 232 0 162 232 
0 162 232 0 162 232 0 162 232 0 162 232 0 162 232 
0 162 232 0 162 232 0 162 232 0 162 232 0 162 232 
0 162 232 0 162 232 0 162 232 0 162 232 0 162 232 
0 162 232 0 162 232 255 0 255 255 0 255 255 0 255 
255 0 255 255 0 255 255 0 255 255 0 255 255 0 255 
255 0 255 255 0 255 255 0 255 255 0 255 255 0 255 
255 0 255 0 162 232 0 162 232 0 162 232 0 162 232 
0 162 232 0 162 232 0 162 232 0 162 232 0 162 232 
0 162 232 0 162 232 0 162 232 0 162 232 0 162 232 
0 162 232 0 162 232 0 162 232 0 162 232 0 162 232 
0 162 232 0 162 232 0 162 232 0 162 232 0 162 232 
0 162 232 0 162 232 0 162 232 0 162 232 0 162 232 
0 162 232 0 162 232 0 162 232 0 162 232 0 162 232 
0 162 232 0 162 232 0 162 232 0 162 232 0 162 232 
0 162 232 0 162 232 0 162 232 0 162 232 0 162 232 
0 162 232 0 162 232 0 162 232 0 162 232 0 162 232 
0 162 232 0 162 232 0 162 232 0 162 232 0 162 232 
0 162 232 0 162 232 0 162 232 0 162 232 0 162 232 
0 162 232 0 162 232 0 162 232 0 162 232 255 0 255 
255 0 255 255 0 255 255 0 255 255 0 255 255 0 255 
255 0 255 255 0 255 255 0 255 255 0 255 255 0 255 
0 162 232 0 162 232 0 162 232 0 162 232 0 162 232 
0 162 232 0 162 232 0 162 232 0 162 232 0 162 232 
0 162 232 0 162 232 0 162 232 0 162 232 0 162 232 
0 162 232 0 162 232 0 162 232 0 162 232 0 162 232 
0 162 232 0 162 232 0 162 232 0 162 232 0 162 232 
0 162 232 0 162 232 0 162 232 0 162 232 0 162 232 
0 162 232 0 162 232 0 162 232 0 162 232 0 162 232 
0 162 232 0 162 232 0 162 232 0 162 232 0 162 232 
0 162 232 0 162 232 0 162 232 0 162 232 0 162 232 
0 162 232 0 162 232 0 162 232 0 162 232 0 162 232 
0 162 232 0 162 232 0 162 232 0 162 232 0 162 232 
0 162 232 0 162 232 0 162 232 0 162 232 0 162 232 
0 162 232 0 162 232 0 162 232 0 162 232 0 162 232 
255 0 255 255 0 255 255 0 255 255 0 255 255 0 255 
255 0 255 255 0 255 255 0 255 0 162 232 0 162 232 
0 162 232 0 162 232 0 162 232 0 162 232 0 162 232 
0 162 232 0 162 232 0 162 232 0 162 232 0 162 232 
0 162 232 0 162 232 0 162 232 0 162 232 0 162 232 
0 162 232 0 162 232 0 162 232 0 162 232 0 162 232 
0 162 232 0 162 232 0 162 232 0 162 232 0 162 232 
0 162 232 0 162 232 0 162 232 0 162 232 0 162 232 
0 162 232 0 162 232 0 162 232 0 162 232 0 162 232 
0 162 232 0 162 232 0 162 232 0 162 232 0 162 232 
0 162 232 0 162 232 0 162 232 0 162 232 0 162 232 
0 162 232 0 162 232 0 162 232 0 162 232 0 162 232 
0 162 232 0 162 232 0 162 232 0 162 232 0 162 232 
0 162 232 0 162 232 0 162 232 0 162 232 0 162 232 
0 162 232 0 162 232 0 162 232 0 162 232 0 162 232 
0 162 232 0 162 232 255 0 255 255 0 255 255 0 255 
255 0 255 0 162 232 0 162 232 0 162 232 0 162 232 
0 162 232 0 162 232 0 162 232 0 162 232 0 162 232 
0 162 232 0 162 232 0 162 232 0 162 232 0 162 232 
0 162 232 0 162 232 0 162 232 0 162 232 0 162 232 
0 162 232 0 162 232 0 162 232 0 162 232 0 162 232 
0 162 232 0 162 232 0 162 232 0 162 232 0 162 232 
0 162 232 0 162 232 0 162 232 0 162 232 0 162 232 
0 162 232 0 162 232 0 162 232 0 162 232 0 162 232 
0 162 232 0 162 232 0 162 232 0 162 232 0 162 232 
0 162 232 0 162 232 0 162 232 0 162 232 0 162 232 
0 162 232 0 162 232 0 162 232 0 162 232 0 162 232 
0 162 232 0 162 232 0 162 232 0 162 232 0 162 232 
0 162 232 0 162 232 0 162 232 0 162 232 0 162 232 
0 162 232 0 162 232 0 162 232 0 162 232 0 162 232 
0 162 232 0 162 232 0 162 232 0 162 232 255 0 255 
0 162 232 0 162 232 0 162 232 0 162 232 0 162 232 
0 162 232 0 162 232 0 162 232 0 162 232 0 162 232 
0 162 232 0 162 232 0 162 232 0 162 232 0 162 232 
0 162 232 0 162 232 0 162 232 0 162 232 0 162 232 
0 162 232 0 162 232 0 162 232 0 162 232 0 162 232 
0 162 232 0 162 232 0 162 232 0 162 232 0 162 232 
0 162 232 0 162 232 0 162 232 0 162 232 0 162 232 
0 162 232 0 162 232 0 162 232 0 162 232 0 162 232 
0 162 232 0 162 232 0 162 232 0 162 232 0 162 232 
0 162 232 0 162 232 0 162 232 0 162 232 0 162 232 
0 162 232 0 162 232 0 162 232 0 162 232 0 162 232 
0 162 232 0 162 232 0 162 232 0 162 232 0 162 232 
0 162 232 0 162 232 0 162 232 0 162 232 0 162 232 
0 162 232 0 162 232 0 162 232 0 162 232 0 162 232 
0 162 232 0 162 232 0 162 232 0 162 232 0 162 232 
0 162 232 0 162 232 0 162 232 0 162 232 0 162 232 
0 162 232 0 162 232 0 162 232 0 162 232 0 162 232 
0 162 232 0 162 232 0 162 232 0 162 232 0 162 232 
0 162 232 0 162 232 0 162 232 0 162 232 0 162 232 
0 162 232 0 162 232 0 162 232 0 162 232 0 162 232 
0 162 232 0 162 232 0 162 232 0 162 232 0 162 232 
0 162 232 0 162 232 0 162 232 0 162 232 0 162 232 
0 162 232 0 162 232 0 162 232 0 162 232 0 162 232 
0 162 232 0 162 232 0 162 232 0 162 232 0 162 232 
0 162 232 0 162 232 0 162 232 0 162 232 0 162 232 
0 162 232 0 162 232 0 162 232 0 162 232 0 162 232 
0 162 232 0 162 232 0 162 232 0 162 232 0 162 232 
0 162 232 0 162 232 0 162 232 0 162 232 0 162 232 
0 162 232 0 162 232 0 162 232 0 162 232 0 162 232 
0 162 232 0 162 232 0 162 232 0 162 232 0 162 232 
0 162 232 0 162 232 0 162 232 0 162 232 0 162 232 
0 162 232 0 162 232 0 162 232 0 162 232 0 162 232 
0 162 232 0 162 232 0 162 232 0 162 232 0 162 232 
0 162 232 0 162 232 0 162 232 0 162 232 0 162 232 
0 162 232 0 162 232 0 162 232 0 162 232 0 162 232 
0 162 232 0 162 232 0 162 232 0 162 232 0 162 232 
0 162 232 0 162 232 0 162 232 0 162 232 0 162 232 
0 162 232 0 162 232 0 162 232 0 162 232 0 162 232 
0 162 232 0 162 232 0 162 232 0 162 232 0 162 232 
0 162 232 0 162 232 0 162 232 0 162 232 0 162 232 
0 162 232 0 162 232 0 162 232 0 162 232 0 162 232 
0 162 232 0 162 232 0 162 232 0 162 232 0 162 232 
0 162 232 0 162 232 0 162 232 0 162 232 0 162 232 
0 162 232 0 162 232 0 162 232 0 162 232 0 162 232 
0 162 232 0 162 232 0 162 232 0 162 232 0 162 232 
0 162 232 0 162 232 0 162 232 0 162 232 0 162 232 
0 162 232 0 162 232 0 162 232 0 162 232 0 162 232 
0 162 232 0 162 232 0 162 232 0 162 232 0 162 232 
0 162 232 0 162 232 0 162 232 0 162 232 0 162 232 
0 162 232 0 162 232 0 162 232 0 162 232 0 162 232 
0 162 232 0 162 232 0 162 232 0 162 232 0 162 232 
0 162 232 0 162 232 0 162 232 0 162 232 0 162 232 
0 162 232 0 162 232 0 162 232 0 162 232 0 162 232 
0 162 232 0 162 232 0 162 232 0 162 232 0 162 232 
0 162 232 0 162 232 0 162 232 0 162 232 0 162 232 
0 162 232 0 162 232 0 162 232 0 162 232 0 162 232 
0 162 232 0 162 232 0 162 232 0 162 232 0 162 232 
0 162 232 0 162 232 0 162 232 0 162 232 0 162 232 
0 162 232 0 162 232 0 162 232 0 162 232 0 162 232 
0 162 232 0 162 232 0 162 232 0 162 232 0 162 232 
0 162 232 0 162 232 0 162 232 0 162 232 0 162 232 
0 162 232 0 162 232 0 162 232 0 162 232 0 162 232 
0 162 232 0 162 232 0 162 232 0 162 232 0 162 232 
0 162 232 0 162 232 0 162 232 0 162 232 0 162 232 
0 162 232 0 162 232 0 162 232 0 162 232 0 162 232 
0 162 232 0 162 232 0 162 232 0 162 232 0 162 232 
0 162 232 0 162 232 0 162 232 0 162 232 0 162 232 
0 162 232 0 162 232 0 162 232 0 162 232 0 162 232 
0 162 232 0 162 232 0 162 232 0 162 232 0 162 232 
0 162 232 0 162 232 0 162 232 0 162 232 0 162 232 
0 162 232 0 162 232 0 162 232 0 162 232 0 162 232 
0 162 232 0 162 232 0 162 232 0 162 232 0 162 232 
0 162 232 0 162 232 0 162 232 0 162 232 0 162 232 
0 162 232 0 162 232 0 162 232 0 162 232 0 162 232 
0 162 232 0 162 232 0 162 232 0 162 232 0 162 232 
0 162 232 0 162 232 0 162 232 0 162 232 0 162 232 
0 162 232 0 162 232 0 162 232 0 162 232 0 162 232 
0 162 232 0 162 232 0 162 232 0 162 232 0 162 232 
0 162 232 0 162 232 0 162 232 0 162 232 0 162 232 
0 162 232 0 162 232 0 162 232 0 162 232 0 162 232 
0 162 232 0 162 232 0 162 232 0 162 232 0 162 232 
0 162 232 0 162 232 0 162 232 0 162 232 0 162 232 
0 162 232 0 162 232 0 162 232 0 162 232 0 162 232 
0 162 232 0 162 232 0 162 232 0 162 232 0 162 232 
0 162 232 0 162 232 0 162 232 0 162 232 0 162 232 
0 162 232 0 162 232 0 162 232 0 162 232 0 162 232 
0 162 232 0 162 232 0 162 232 0 162 232 0 162 232 
0 162 232 0 162 232 0 162 232 0 162 232 0 162 232 
0 162 232 0 162 232 0 162 232 0 162 232 0 162 232 
0 162 232 0 162 232 0 162 232 0 162 232 0 162 232 
255 0 255 0 162 232 0 162 232 0 162 232 0 162 232 
0 162 232 0 162 232 0 162 232 0 162 232 0 162 232 
0 162 232 0 162 232 0 162 232 0 162 232 0 162 232 
0 162 232 0 162 232 0 162 232 0 162 232 0 162 232 
0 162 232 0 162 232 0 162 232 0 162 232 0 162 232 
0 162 232 0 162 232 0 162 232 0 162 232 0 162 232 
0 162 232 0 162 232 0 162 232 0 162 232 0 162 232 
0 162 232 0 162 232 0 162 232 0 162 232 0 162 232 
0 162 232 0 162 232 0 162 232 0 162 232 0 162 232 
0 162 232 0 162 232 0 162 232 0 162 232 0 162 232 
0 162 232 0 162 232 0 162 232 0 162 232 0 162 232 
0 162 232 0 162 232 0 162 232 0 162 232 0 162 232 
0 162 232 0 162 232 0 162 232 0 162 232 0 162 232 
0 162 232 0 162 232 0 162 232 0 162 232 0 162 232 
0 162 232 0 162 232 0 162 232 0 162 232 255 0 255 
255 0 255 255 0 255 255 0 255 0 162 232 0 162 232 
0 162 232 0 162 232 0 162 232 0 162 232 0 162 232 
0 162 232 0 162 232 0 162 232 0 162 232 0 162 232 
0 162 232 0 162 232 0 162 232 0 162 232 0 162 232 
0 162 232 0 162 232 0 162 232 0 162 232 0 162 232 
0 162 232 0 162 232 0 162 232 0 162 232 0 162 232 
0 162 232 0 162 232 0 162 232 0 162 232 0 162 232 
0 162 232 0 162 232 0 162 232 0 162 232 0 162 232 
0 162 232 0 162 232 0 162 232 0 162 232 0 162 232 
0 162 232 0 162 232 0 162 232 0 162 232 0 162 232 
0 162 232 0 162 232 0 162 232 0 162 232 0 162 232 
0 162 232 0 162 232 0 162 232 0 162 232 0 162 232 
0 162 232 0 162 232 0 162 232 0 162 232 0 162 232 
0 162 232 0 162 232 0 162 232 0 162 232 0 162 232 
0 162 232 0 162 232 255 0 255 255 0 255 255 0 255 
255 0 255 255 0 255 255 0 255 255 0 255 0 162 232 
0 162 232 0 162 232 0 162 232 0 162 232 0 162 232 
0 162 232 0 162 232 0 162 232 0 162 232 0 162 232 
0 162 232 0 162 232 0 162 232 0 162 232 0 162 232 
0 162 232 0 162 232 0 162 232 0 162 232 0 162 232 
0 162 232 0 162 232 0 162 232 0 162 232 0 162 232 
0 162 232 0 162 232 0 162 232 0 162 232 0 162 232 
0 162 232 0 162 232 0 162 232 0 162 232 0 162 232 
0 162 232 0 162 232 0 162 232 0 162 232 0 162 232 
0 162 232 0 162 232 0 162 232 0 162 232 0 162 232 
0 162 232 0 162 232 0 162 232 0 162 232 0 162 232 
0 162 232 0 162 232 0 162 232 0 162 232 0 162 232 
0 162 232 0 162 232 0 162 232 0 162 232 0 162 232 
0 162 232 0 162 232 0 162 232 0 162 232 0 162 232 
0 162 232 255 0 255 255 0 255 255 0 255 255 0 255 
255 0 255 255 0 255 255 0 255 255 0 255 255 0 255 
255 0 255 0 162 232 0 162 232 0 162 232 0 162 232 
0 162 232 0 162 232 0 162 232 0 162 232 0 162 232 
0 162 232 0 162 232 0 162 232 0 162 232 0 162 232 
0 162 232 0 162 232 0 162 232 0 162 232 0 162 232 
0 162 232 0 162 232 0 162 232 0 162 232 0 162 232 
0 162 232 0 162 232 0 162 232 0 162 232 0 162 232 
0 162 232 0 162 232 0 162 232 0 162 232 0 162 232 
0 162 232 0 162 232 0 162 232 0 162 232 0 162 232 
0 162 232 0 162 232 0 162 232 0 162 232 0 162 232 
0 162 232 0 162 232 0 162 232 0 162 232 0 162 232 
0 162 232 0 162 232 0 162 232 0 162 232 0 162 232 
0 162 232 0 162 232 0 162 232 0 162 232 0 162 232 
0 162 232 0 162 232 0 162 232 0 162 232 255 0 255 
255 0 255 255 0 255 255 0 255 255 0 255 255 0 255 
255 0 255 255 0 255 255 0 255 255 0 255 255 0 255 
255 0 255 255 0 255 0 162 232 0 162 232 0 162 232 
0 162 232 0 162 232 0 162 232 0 162 232 0 162 232 
0 162 232 0 162 232 0 162 232 0 162 232 0 162 232 
0 162 232 0 162 232 0 162 232 0 162 232 0 162 232 
0 162 232 0 162 232 0 162 232 0 162 232 0 162 232 
0 162 232 0 162 232 0 162 232 0 162 232 0 162 232 
0 162 232 0 162 232 0 162 232 0 162 232 0 162 232 
0 162 232 0 162 232 0 162 232 0 162 232 0 162 232 
0 162 232 0 162 232 0 162 232 0 162 232 0 162 232 
0 162 232 0 162 232 0 162 232 0 162 232 0 162 232 
0 162 232 0 162 232 0 162 232 0 162 232 0 162 232 
0 162 232 0 162 232 0 162 232 0 162 232 0 162 232 
0 162 232 0 162 232 0 162 232 255 0 255 255 0 255 
255 0 255 255 0 255 255 0 255 255 0 255 255 0 255 
255 0 255 255 0 255 255 0 255 255 0 255 255 0 255 
255 0 255 255 0 255 255 0 255 255 0 255 0 162 232 
0 162 232 0 162 232 0 162 232 0 162 232 0 162 232 
0 162 232 0 162 232 0 162 232 0 162 232 0 162 232 
0 162 232 0 162 232 0 162 232 0 162 232 0 162 232 
0 162 232 0 162 232 0 162 232 0 162 232 0 162 232 
0 162 232 0 162 232 0 162 232 0 162 232 0 162 232 
0 162 232 0 162 232 0 162 232 0 162 232 0 162 232 
0 162 232 0 162 232 0 162 232 0 162 232 0 162 232 
0 162 232 0 162 232 0 162 232 0 162 232 0 162 232 
0 162 232 0 162 232 0 162 232 0 162 232 0 162 232 
0 162 232 0 162 232 0 162 232 0 162 232 0 162 232 
0 162 232 0 162 232 0 162 232 0 162 232 0 162 232 
0 162 232 255 0 255 255 0 255 255 0 255 255 0 255 
255 0 255 255 0 255 255 0 255 255 0 255 255 0 255 
255 0 255 255 0 255 255 0 255 255 0 255 255 0 255 
255 0 255 255 0 255 255 0 255 255 0 255 255 0 255 
255 0 255 0 162 232 0 162 232 0 162 232 0 162 232 
0 162 232 0 162 232 0 162 232 0 162 232 0 162 232 
0 162 232 0 162 232 0 162 232 0 162 232 0 162 232 
0 162 232 0 162 232 0 162 232 0 162 232 0 162 232 
0 162 232 0 162 232 0 162 232 0 162 232 0 162 232 
0 162 232 0 162 232 0 162 232 0 162 232 0 162 232 
0 162 232 0 162 232 0 162 232 0 162 232 0 162 232 
0 162 232 0 162 232 0 162 232 0 162 232 0 162 232 
0 162 232 0 162 232 0 162 232 0 162 232 0 162 232 
0 162 232 0 162 232 0 162 232 0 162 232 0 162 232 
0 162 232 0 162 232 0 162 232 0 162 232 0 162 232 
255 0 255 255 0 255 255 0 255 255 0 255 255 0 255 
255 0 255 255 0 255 255 0 255 255 0 255 255 0 255 
255 0 255 255 0 255 255 0 255 255 0 255 255 0 255 
255 0 255 255 0 255 255 0 255 255 0 255 255 0 255 
255 0 255 255 0 255 0 162 232 0 162 232 0 162 232 
0 162 232 0 162 232 0 162 232 0 162 232 0 162 232 
0 162 232 0 162 232 0 162 232 0 162 232 0 162 232 
0 162 232 0 162 232 0 162 232 0 162 232 0 162 232 
0 162 232 0 162 232 0 162 232 0 162 232 0 162 232 
0 162 232 0 162 232 0 162 232 0 162 232 0 162 232 
0 162 232 0 162 232 0 162 232 0 162 232 0 162 232 
0 162 232 0 162 232 0 162 232 0 162 232 0 162 232 
0 162 232 0 162 232 0 162 232 0 162 232 0 162 232 
0 162 232 0 162 232 0 162 232 0 162 232 0 162 232 
0 162 232 0 162 232 0 162 232 255 0 255 255 0 255 
255 0 255 255 0 255 255 0 255 255 0 255 255 0 255 
255 0 255 255 0 255 255 0 255 255 0 255 255 0 255 
255 0 255 255 0 255 255 0 255 255 0 255 255 0 255 
255 0 255 255 0 255 255 0 255 255 0 255 255 0 255 
255 0 255 255 0 255 255 0 255 255 0 255 0 162 232 
0 162 232 0 162 232 0 162 232 0 162 232 0 162 232 
0 162 232 0 162 232 0 162 232 0 162 232 0 162 232 
0 162 232 0 162 232 0 162 232 0 162 232 0 162 232 
0 162 232 0 162 232 0 162 232 0 162 232 0 162 232 
0 162 232 0 162 232 0 162 232 0 162 232 0 162 232 
0 162 232 0 162 232 0 162 232 0 162 232 0 162 232 
0 162 232 0 162 232 0 162 232 0 162 232 0 162 232 
0 162 232 0 162 232 0 162 232 0 162 232 0 162 232 
0 162 232 0 162 232 0 162 232 0 162 232 0 162 232 
0 162 232 255 0 255 255 0 255 255 0 255 255 0 255 
255 0 255 255 0 255 255 0 255 255 0 255 255 0 255 
255 0 255 255 0 255 255 0 255 255 0 255 255 0 255 
255 0 255 255 0 255 255 0 255 255 0 255 255 0 255 
255 0 255 255 0 255 255 0 255 255 0 255 255 0 255 
255 0 255 255 0 255 255 0 255 255 0 255 255 0 255 
0 162 232 0 162 232 0 162 232 0 162 232 0 162 232 
0 162 232 0 162 232 0 162 232 0 162 232 0 162 232 
0 162 232 0 162 232 0 162 232 0 162 232 0 162 232 
0 162 232 0 162 232 0 162 232 0 162 232 0 162 232 
0 162 232 0 162 232 0 162 232 0 162 232 0 162 232 
0 162 232 0 162 232 0 162 232 0 162 232 0 162 232 
0 162 232 0 162 232 0 162 232 0 162 232 0 162 232 
0 162 232 0 162 232 0 162 232 0 162 232 0 162 232 
0 162 232 0 162 232 0 162 232 0 162 232 0 162 232 
255 0 255 255 0 255 255 0 255 255 0 255 255 0 255 
255 0 255 255 0 255 255 0 255 255 0 255 255 0 255 
255 0 255 255 0 255 255 0 255 255 0 255 255 0 255 
255 0 255 255 0 255 255 0 255 255 0 255 255 0 255 
255 0 255 255 0 255 255 0 255 255 0 255 255 0 255 
255 0 255 255 0 255 255 0 255 255 0 255 255 0 255 
255 0 255 255 0 255 0 162 232 0 162 232 0 162 232 
0 162 232 0 162 232 0 162 232 0 162 232 0 162 232 
0 162 232 0 162 232 0 162 232 0 162 232 0 162 232 
0 162 232 0 162 232 0 162 232 0 162 232 0 162 232 
0 162 232 0 162 232 0 162 232 0 162 232 0 162 232 
0 162 232 0 162 232 0 162 232 0 162 232 0 162 232 
0 162 232 0 162 232 0 162 232 0 162 232 0 162 232 
0 162 232 0 162 232 0 162 232 0 162 232 0 162 232 
0 162 232 0 162 232 0 162 232 255 0 255 255 0 255 
255 0 255 255 0 255 255 0 255 255 0 255 255 0 255 
255 0 255 255 0 255 255 0 255 255 0 255 255 0 255 
255 0 255 255 0 255 255 0 255 255 0 255 255 0 255 
255 0 255 255 0 255 255 0 255 255 0 255 255 0 255 
255 0 255 255 0 255 255 0 255 255 0 255 255 0 255 
255 0 255 255 0 255 255 0 255 255 0 255 255 0 255 
255 0 255 255 0 255 255 0 255 0 162 232 0 162 232 
0 162 232 0 162 232 0 162 232 0 162 232 0 162 232 
0 162 232 0 162 232 0 162 232 0 162 232 0 162 232 
0 162 232 0 162 232 0 162 232 0 162 232 0 162 232 
0 162 232 0 162 232 0 162 232 0 162 232 0 162 232 
0 162 232 0 162 232 0 162 232 0 162 232 0 162 232 
0 162 232 0 162 232 0 162 232 0 162 232 0 162 232 
0 162 232 0 162 232 0 162 232 0 162 232 0 162 232 
0 162 232 0 162 232 255 0 255 255 0 255 255 0 255 
255 0 255 255 0 255 255 0 255 255 0 255 255 0 255 
255 0 255 255 0 255 255 0 255 255 0 255 255 0 255 
255 0 255 255 0 255 255 0 255 255 0 255 255 0 255 
255 0 255 255 0 255 255 0 255 255 0 255 255 0 255 
255 0 255 255 0 255 255 0 255 255 0 255 255 0 255 
255 0 255 255 0 255 255 0 255 255 0 255 255 0 255 
255 0 255 255 0 255 255 0 255 255 0 255 255 0 255 
0 162 232 0 162 232 0 162 232 0 162 232 0 162 232 
0 162 232 0 162 232 0 162 232 0 162 232 0 162 232 
0 162 232 0 162 232 0 162 232 0 162 232 0 162 232 
0 162 232 0 162 232 0 162 232 0 162 232 0 162 232 
0 162 232 0 162 232 0 162 232 0 162 232 0 162 232 
0 162 232 0 162 232 0 162 232 0 162 232 0 162 232 
0 162 232 0 162 232 0 162 232 0 162 232 0 162 232 
255 0 255 255 0 255 255 0 255 255 0 255 255 0 255 
255 0 255 255 0 255 255 0 255 255 0 255 255 0 255 
255 0 255 255 0 255 255 0 255 255 0 255 255 0 255 
255 0 255 255 0 255 255 0 255 255 0 255 255 0 255 
255 0 255 255 0 255 255 0 255 255 0 255 255 0 255 
255 0 255 255 0 255 255 0 255 255 0 255 255 0 255 
255 0 255 255 0 255 255 0 255 255 0 255 255 0 255 
255 0 255 255 0 255 255 0 255 255 0 255 255 0 255 
255 0 255 255 0 255 0 162 232 0 162 232 0 162 232 
0 162 232 0 162 232 0 162 232 0 162 232 0 162 232 
0 162 232 0 162 232 0 162 232 0 162 232 0 162 232 
0 162 232 0 162 232 0 162 232 0 162 232 0 162 232 
0 162 232 0 162 232 0 162 232 0 162 232 0 162 232 
0 162 232 0 162 232 0 162 232 0 162 232 0 162 232 
0 162 232 0 162 232 0 162 232 255 0 255 255 0 255 
255 0 255 255 0 255 255 0 255 255 0 255 255 0 255 
255 0 255 255 0 255 255 0 255 255 0 255 255 0 255 
255 0 255 255 0 255 255 0 255 255 0 255 255 0 255 
255 0 255 255 0 255 255 0 255 255 0 255 255 0 255 
255 0 255 255 0 255 255 0 255 255 0 255 255 0 255 
255 0 255 255 0 255 255 0 255 255 0 255 255 0 255 
255 0 255 255 0 255 255 0 255 255 0 255 255 0 255 
255 0 255 255 0 255 255 0 255 255 0 255 255 0 255 
255 0 255 255 0 255 255 0 255 0 162 232 0 162 232 
0 162 232 0 162 232 0 162 232 0 162 232 0 162 232 
0 162 232 0 162 232 0 162 232 0 162 232 0 162 232 
0 162 232 0 162 232 0 162 232 0 162 232 0 162 232 
0 162 232 0 162 232 0 162 232 0 162 232 0 162 232 
0 162 232 0 162 232 0 162 232 0 162 232 0 162 232 
0 162 232 0 162 232 255 0 255 255 0 255 255 0 255 
255 0 255 255 0 255 255 0 255 255 0 255 255 0 255 
255 0 255 255 0 255 255 0 255 255 0 255 255 0 255 
255 0 255 255 0 255 255 0 255 255 0 255 255 0 255 
255 0 255 255 0 255 255 0 255 255 0 255 255 0 255 
255 0 255 255 0 255 255 0 255 255 0 255 255 0 255 
255 0 255 255 0 255 255 0 255 255 0 255 255 0 255 
255 0 255 255 0 255 255 0 255 255 0 255 255 0 255 
255 0 255 255 0 255 255 0 255 255 0 255 255 0 255 
255 0 255 255 0 255 255 0 255 255 0 255 255 0 255 
0 162 232 0 162 232 0 162 232 0 162 232 0 162 232 
0 162 232 0 162 232 0 162 232 0 162 232 0 162 232 
0 162 232 0 162 232 0 162 232 0 162 232 0 162 232 
0 162 232 0 162 232 0 162 232 0 162 232 0 162 232 
0 162 232 0 162 232 0 162 232 0 162 232 0 162 232 
255 0 255 255 0 255 255 0 255 255 0 255 255 0 255 
255 0 255 255 0 255 255 0 255 255 0 255 255 0 255 
255 0 255 255 0 255 255 0 255 255 0 255 255 0 255 
255 0 255 255 0 255 255 0 255 255 0 255 255 0 255 
255 0 255 255 0 255 255 0 255 255 0 255 255 0 255 
255 0 255 255 0 255 255 0 255 255 0 255 255 0 255 
255 0 255 255 0 255 255 0 255 255 0 255 255 0 255 
255 0 255 255 0 255 255 0 255 255 0 255 255 0 255 
255 0 255 255 0 255 255 0 255 255 0 255 255 0 255 
255 0 255 255 0 255 255 0 255 255 0 255 255 0 255 
255 0 255 0 162 232 0 162 232 0 162 232 0 162 232 
0 162 232 0 162 232 0 162 232 0 162 232 0 162 232 
0 162 232 0 162 232 0 162 232 0 162 232 0 162 232 
0 162 232 0 162 232 0 162 232 0 162 232 0 162 232 
0 162 232 0 162 232 0 162 232 0 162 232 255 0 255 
255 0 255 255 0 255 255 0 255 255 0 255 255 0 255 
255 0 255 255 0 255 255 0 255 255 0 255 255 0 255 
255 0 255 255 0 255 255 0 255 255 0 255 255 0 255 
255 0 255 255 0 255 255 0 255 255 0 255 255 0 255 
255 0 255 255 0 255 255 0 255 255 0 255 255 0 255 
255 0 255 255 0 255 255 0 255 255 0 255 255 0 255 
255 0 255 255 0 255 255 0 255 255 0 255 255 0 255 
255 0 255 255 0 255 255 0 255 255 0 255 255 0 255 
255 0 255 255 0 255 255 0 255 255 0 255 255 0 255 
255 0 255 255 0 255 255 0 255 255 0 255 255 0 255 
255 0 255 255 0 255 255 0 255 0 162 232 0 162 232 
0 162 232 0 162 232 0 162 232 0 162 232 0 162 232 
0 162 232 0 162 232 0 162 232 0 162 232 0 162 232 
0 162 232 0 162 232 0 162 232 0 162 232 0 162 232 
0 162 232 0 162 232 255 0 255 255 0 255 255 0 255 
255 0 255 255 0 255 255 0 255 255 0 255 255 0 255 
255 0 255 255 0 255 255 0 255 255 0 255 255 0 255 
255 0 255 255 0 255 255 0 255 255 0 255 255 0 255 
255 0 255 255 0 255 255 0 255 255 0 255 255 0 255 
255 0 255 255 0 255 255 0 255 255 0 255 255 0 255 
255 0 255 255 0 255 255 0 255 255 0 255 255 0 255 
255 0 255 255 0 255 255 0 255 255 0 255 255 0 255 
255 0 255 255 0 255 255 0 255 255 0 255 255 0 255 
255 0 255 255 0 255 255 0 255 255 0 255 255 0 255 
255 0 255 255 0 255 255 0 255 255 0 255 255 0 255 
255 0 255 255 0 255 255 0 255 255 0 255 255 0 255 
0 162 232 0 162 232 0 162 232 0 162 232 0 162 232 
0 162 232 0 162 232 0 162 232 0 162 232 0 162 232 
0 162 232 0 162 232 0 162 232 0 162 232 0 162 232 
255 0 255 255 0 255 255 0 255 255 0 255 255 0 255 
255 0 255 255 0 255 255 0 255 255 0 255 255 0 255 
255 0 255 255 0 255 255 0 255 255 0 255 255 0 255 
255 0 255 255 0 255 255 0 255 255 0 255 255 0 255 
255 0 255 255 0 255 255 0 255 255 0 255 255 0 255 
255 0 255 255 0 255 255 0 255 255 0 255 255 0 255 
255 0 255 255 0 255 255 0 255 255 0 255 255 0 255 
255 0 255 255 0 255 255 0 255 255 0 255 255 0 255 
255 0 255 255 0 255 255 0 255 255 0 255 255 0 255 
255 0 255 255 0 255 255 0 255 255 0 255 255 0 255 
255 0 255 255 0 255 255 0 255 255 0 255 255 0 255 
255 0 255 255 0 255 255 0 255 255 0 255 255 0 255 
255 0 255 0 162 232 0 162 232 0 162 232 0 162 232 
0 162 232 0 162 232 0 162 232 0 162 232 0 162 232 
0 162 232 0 162 232 0 162 232 0 162 232 255 0 255 
255 0 255 255 0 255 255 0 255 255 0 255 255 0 255 
255 0 255 255 0 255 255 0 255 255 0 255 255 0 255 
255 0 255 255 0 255 255 0 255 255 0 255 255 0 255 
255 0 255 255 0 255 255 0 255 255 0 255 255 0 255 
255 0 255 255 0 255 255 0 255 255 0 255 255 0 255 
255 0 255 255 0 255 255 0 255 255 0 255 255 0 255 
255 0 255 255 0 255 255 0 255 255 0 255 255 0 255 
255 0 255 255 0 255 255 0 255 255 0 255 255 0 255 
255 0 255 255 0 255 255 0 255 255 0 255 255 0 255 
255 0 255 255 0 255 255 0 255 255 0 255 255 0 255 
255 0 255 255 0 255 255 0 255 255 0 255 255 0 255 
255 0 255 255 0 255 255 0 255 255 0 255 255 0 255 
255 0 255 255 0 255 255 0 255 0 162 232 0 162 232 
0 162 232 0 162 232 0 162 232 0 162 232 0 162 232 
0 162 232 0 162 232 255 0 255 255 0 255 255 0 255 
255 0 255 255 0 255 255 0 255 255 0 255 255 0 255 
255 0 255 255 0 255 255 0 255 255 0 255 255 0 255 
255 0 255 255 0 255 255 0 255 255 0 255 255 0 255 
255 0 255 255 0 255 255 0 255 255 0 255 255 0 255 
255 0 255 255 0 255 255 0 255 255 0 255 255 0 255 
255 0 255 255 0 255 255 0 255 255 0 255 255 0 255 
255 0 255 255 0 255 255 0 255 255 0 255 255 0 255 
255 0 255 255 0 255 255 0 255 255 0 255 255 0 255 
255 0 255 255 0 255 255 0 255 255 0 255 255 0 255 
255 0 255 255 0 255 255 0 255 255 0 255 255 0 255 
255 0 255 255 0 255 255 0 255 255 0 255 255 0 255 
255 0 255 255 0 255 255 0 255 255 0 255 255 0 255 
255 0 255 255 0 255 255 0 255 255 0 255 0 162 232 
0 162 232 0 162 232 0 162 232 0 162 232 0 162 232 
0 162 232 255 0 255 255 0 255 255 0 255 255 0 255 
255 0 255 255 0 255 255 0 255 255 0 255 255 0 255 
255 0 255 255 0 255 255 0 255 255 0 255 255 0 255 
255 0 255 255 0 255 255 0 255 255 0 255 255 0 255 
255 0 255 255 0 255 255 0 255 255 0 255 255 0 255 
255 0 255 255 0 255 255 0 255 255 0 255 255 0 255 
255 0 255 255 0 255 255 0 255 255 0 255 255 0 255 
255 0 255 255 0 255 255 0 255 255 0 255 255 0 255 
255 0 255 255 0 255 255 0 255 255 0 255 255 0 255 
255 0 255 255 0 255 255 0 255 255 0 255 255 0 255 
255 0 255 255 0 255 255 0 255 255 0 255 255 0 255 
255 0 255 255 0 255 255 0 255 255 0 255 255 0 255 
255 0 255 255 0 255 255 0 255 255 0 255 255 0 255 
255 0 255 255 0 255 255 0 255 255 0 255 255 0 255 
255 0 255 0 162 232 0 162 232 0 162 232 255 0 255 
255 0 255 255 0 255 255 0 255 255 0 255 255 0 255 
255 0 255 255 0 255 255 0 255 255 0 255 255 0 255 
255 0 255 255 0 255 255 0 255 255 0 255 255 0 255 
255 0 255 255 0 255 255 0 255 255 0 255 255 0 255 
255 0 255 255 0 255 255 0 255 255 0 255 255 0 255 
255 0 255 255 0 255 255 0 255 255 0 255 255 0 255 
255 0 255 255 0 255 255 0 255 255 0 255 255 0 255 
