P3
# Created by IrfanView
75 50
255
255 0 255 255 0 255 255 0 255 255 0 255 255 0 255 
255 0 255 255 0 255 255 0 255 255 0 255 255 0 255 
255 0 255 255 0 255 255 0 255 255 0 255 255 0 255 
255 0 255 255 0 255 255 0 255 255 0 255 255 0 255 
255 0 255 255 0 255 255 0 255 255 0 255 255 0 255 
255 0 255 255 0 255 255 0 255 255 0 255 255 0 255 
255 0 255 255 0 255 255 0 255 255 0 255 255 0 255 
255 0 255 112 146 190 112 146 190 112 146 190 255 0 255 
255 0 255 255 0 255 255 0 255 255 0 255 255 0 255 
255 0 255 255 0 255 255 0 255 255 0 255 255 0 255 
255 0 255 255 0 255 255 0 255 255 0 255 255 0 255 
255 0 255 255 0 255 255 0 255 255 0 255 255 0 255 
255 0 255 255 0 255 255 0 255 255 0 255 255 0 255 
255 0 255 255 0 255 255 0 255 255 0 255 255 0 255 
255 0 255 255 0 255 255 0 255 255 0 255 255 0 255 
255 0 255 255 0 255 255 0 255 255 0 255 255 0 255 
255 0 255 255 0 255 255 0 255 255 0 255 255 0 255 
255 0 255 255 0 255 255 0 255 255 0 255 255 0 255 
255 0 255 255 0 255 255 0 255 255 0 255 255 0 255 
255 0 255 255 0 255 255 0 255 255 0 255 255 0 255 
255 0 255 255 0 255 255 0 255 255 0 255 255 0 255 
255 0 255 255 0 255 255 0 255 255 0 255 112 146 190 
112 146 190 112 146 190 112 146 190 112 146 190 112 146 190 
112 146 190 255 0 255 255 0 255 255 0 255 255 0 255 
255 0 255 255 0 255 255 0 255 255 0 255 255 0 255 
255 0 255 255 0 255 255 0 255 255 0 255 255 0 255 
255 0 255 255 0 255 255 0 255 255 0 255 255 0 255 
255 0 255 255 0 255 255 0 255 255 0 255 255 0 255 
255 0 255 255 0 255 255 0 255 255 0 255 255 0 255 
255 0 255 255 0 255 255 0 255 255 0 255 255 0 255 
255 0 255 255 0 255 255 0 255 255 0 255 255 0 255 
255 0 255 255 0 255 255 0 255 255 0 255 255 0 255 
255 0 255 255 0 255 255 0 255 255 0 255 255 0 255 
255 0 255 255 0 255 255 0 255 255 0 255 255 0 255 
255 0 255 255 0 255 255 0 255 255 0 255 255 0 255 
255 0 255 255 0 255 255 0 255 255 0 255 255 0 255 
255 0 255 255 0 255 255 0 255 112 146 190 112 146 190 
112 146 190 112 146 190 112 146 190 112 146 190 112 146 190 
112 146 190 112 146 190 255 0 255 255 0 255 255 0 255 
255 0 255 255 0 255 255 0 255 255 0 255 255 0 255 
255 0 255 255 0 255 255 0 255 255 0 255 255 0 255 
255 0 255 255 0 255 255 0 255 255 0 255 255 0 255 
255 0 255 255 0 255 255 0 255 255 0 255 255 0 255 
255 0 255 255 0 255 255 0 255 255 0 255 255 0 255 
255 0 255 255 0 255 255 0 255 255 0 255 255 0 255 
255 0 255 255 0 255 255 0 255 255 0 255 255 0 255 
255 0 255 255 0 255 255 0 255 255 0 255 255 0 255 
255 0 255 255 0 255 255 0 255 255 0 255 255 0 255 
255 0 255 255 0 255 255 0 255 255 0 255 255 0 255 
255 0 255 255 0 255 255 0 255 255 0 255 255 0 255 
255 0 255 255 0 255 255 0 255 255 0 255 255 0 255 
255 0 255 112 146 190 112 146 190 112 146 190 112 146 190 
112 146 190 112 146 190 112 146 190 112 146 190 112 146 190 
112 146 190 112 146 190 112 146 190 112 146 190 255 0 255 
255 0 255 255 0 255 255 0 255 255 0 255 255 0 255 
255 0 255 255 0 255 255 0 255 255 0 255 255 0 255 
255 0 255 255 0 255 255 0 255 255 0 255 255 0 255 
255 0 255 255 0 255 255 0 255 255 0 255 255 0 255 
255 0 255 255 0 255 255 0 255 255 0 255 255 0 255 
255 0 255 255 0 255 255 0 255 255 0 255 255 0 255 
255 0 255 255 0 255 255 0 255 255 0 255 255 0 255 
255 0 255 255 0 255 255 0 255 255 0 255 255 0 255 
255 0 255 255 0 255 255 0 255 255 0 255 255 0 255 
255 0 255 255 0 255 255 0 255 255 0 255 255 0 255 
255 0 255 255 0 255 255 0 255 255 0 255 255 0 255 
255 0 255 255 0 255 255 0 255 255 0 255 112 146 190 
112 146 190 112 146 190 112 146 190 112 146 190 112 146 190 
112 146 190 112 146 190 112 146 190 112 146 190 112 146 190 
112 146 190 112 146 190 112 146 190 112 146 190 112 146 190 
112 146 190 255 0 255 255 0 255 255 0 255 255 0 255 
255 0 255 255 0 255 255 0 255 255 0 255 255 0 255 
255 0 255 255 0 255 255 0 255 255 0 255 255 0 255 
255 0 255 255 0 255 255 0 255 255 0 255 255 0 255 
255 0 255 255 0 255 255 0 255 255 0 255 255 0 255 
255 0 255 255 0 255 255 0 255 255 0 255 255 0 255 
255 0 255 255 0 255 255 0 255 255 0 255 255 0 255 
255 0 255 255 0 255 255 0 255 255 0 255 255 0 255 
255 0 255 255 0 255 255 0 255 255 0 255 255 0 255 
255 0 255 255 0 255 255 0 255 255 0 255 255 0 255 
255 0 255 255 0 255 255 0 255 255 0 255 255 0 255 
255 0 255 255 0 255 112 146 190 112 146 190 112 146 190 
112 146 190 112 146 190 112 146 190 112 146 190 112 146 190 
112 146 190 112 146 190 112 146 190 112 146 190 112 146 190 
112 146 190 112 146 190 112 146 190 112 146 190 112 146 190 
112 146 190 112 146 190 112 146 190 255 0 255 255 0 255 
255 0 255 255 0 255 255 0 255 255 0 255 255 0 255 
255 0 255 255 0 255 255 0 255 255 0 255 255 0 255 
255 0 255 255 0 255 255 0 255 255 0 255 255 0 255 
255 0 255 255 0 255 255 0 255 255 0 255 255 0 255 
255 0 255 255 0 255 255 0 255 255 0 255 255 0 255 
255 0 255 255 0 255 255 0 255 255 0 255 255 0 255 
255 0 255 255 0 255 255 0 255 255 0 255 255 0 255 
255 0 255 255 0 255 255 0 255 255 0 255 255 0 255 
255 0 255 255 0 255 255 0 255 255 0 255 255 0 255 
255 0 255 255 0 255 255 0 255 255 0 255 255 0 255 
255 0 255 112 146 190 112 146 190 112 146 190 112 146 190 
112 146 190 112 146 190 112 146 190 112 146 190 112 146 190 
112 146 190 112 146 190 112 146 190 112 146 190 112 146 190 
112 146 190 112 146 190 112 146 190 112 146 190 112 146 190 
112 146 190 112 146 190 112 146 190 112 146 190 255 0 255 
255 0 255 255 0 255 255 0 255 255 0 255 255 0 255 
255 0 255 255 0 255 255 0 255 255 0 255 255 0 255 
255 0 255 255 0 255 255 0 255 255 0 255 255 0 255 
255 0 255 255 0 255 255 0 255 255 0 255 255 0 255 
255 0 255 255 0 255 255 0 255 255 0 255 255 0 255 
255 0 255 255 0 255 255 0 255 255 0 255 255 0 255 
255 0 255 255 0 255 255 0 255 255 0 255 255 0 255 
255 0 255 255 0 255 255 0 255 255 0 255 255 0 255 
255 0 255 255 0 255 255 0 255 255 0 255 255 0 255 
255 0 255 255 0 255 255 0 255 255 0 255 112 146 190 
112 146 190 112 146 190 112 146 190 112 146 190 112 146 190 
112 146 190 112 146 190 112 146 190 112 146 190 112 146 190 
112 146 190 112 146 190 112 146 190 112 146 190 112 146 190 
112 146 190 112 146 190 112 146 190 112 146 190 112 146 190 
112 146 190 112 146 190 112 146 190 112 146 190 112 146 190 
112 146 190 255 0 255 255 0 255 255 0 255 255 0 255 
255 0 255 255 0 255 255 0 255 255 0 255 255 0 255 
255 0 255 255 0 255 255 0 255 255 0 255 255 0 255 
255 0 255 255 0 255 255 0 255 255 0 255 255 0 255 
255 0 255 255 0 255 255 0 255 255 0 255 255 0 255 
255 0 255 255 0 255 255 0 255 255 0 255 255 0 255 
255 0 255 255 0 255 255 0 255 255 0 255 255 0 255 
255 0 255 255 0 255 255 0 255 255 0 255 255 0 255 
255 0 255 255 0 255 255 0 255 255 0 255 255 0 255 
255 0 255 255 0 255 112 146 190 112 146 190 112 146 190 
112 146 190 112 146 190 112 146 190 112 146 190 112 146 190 
112 146 190 112 146 190 112 146 190 112 146 190 112 146 190 
112 146 190 112 146 190 112 146 190 112 146 190 112 146 190 
112 146 190 112 146 190 112 146 190 112 146 190 112 146 190 
112 146 190 112 146 190 112 146 190 112 146 190 112 146 190 
112 146 190 112 146 190 112 146 190 255 0 255 255 0 255 
255 0 255 255 0 255 255 0 255 255 0 255 255 0 255 
255 0 255 255 0 255 255 0 255 255 0 255 255 0 255 
255 0 255 255 0 255 255 0 255 255 0 255 255 0 255 
255 0 255 255 0 255 255 0 255 255 0 255 255 0 255 
255 0 255 255 0 255 255 0 255 255 0 255 255 0 255 
255 0 255 255 0 255 255 0 255 255 0 255 255 0 255 
255 0 255 255 0 255 255 0 255 255 0 255 255 0 255 
255 0 255 255 0 255 255 0 255 255 0 255 255 0 255 
112 146 190 112 146 190 112 146 190 112 146 190 112 146 190 
112 146 190 112 146 190 112 146 190 112 146 190 112 146 190 
112 146 190 112 146 190 112 146 190 112 146 190 112 146 190 
112 146 190 112 146 190 112 146 190 112 146 190 112 146 190 
112 146 190 112 146 190 112 146 190 112 146 190 112 146 190 
112 146 190 112 146 190 112 146 190 112 146 190 112 146 190 
112 146 190 112 146 190 112 146 190 112 146 190 112 146 190 
255 0 255 255 0 255 255 0 255 255 0 255 255 0 255 
255 0 255 255 0 255 255 0 255 255 0 255 255 0 255 
255 0 255 255 0 255 255 0 255 255 0 255 255 0 255 
255 0 255 255 0 255 255 0 255 255 0 255 255 0 255 
255 0 255 255 0 255 255 0 255 255 0 255 255 0 255 
255 0 255 255 0 255 255 0 255 255 0 255 255 0 255 
255 0 255 255 0 255 255 0 255 255 0 255 255 0 255 
255 0 255 255 0 255 255 0 255 255 0 255 112 146 190 
112 146 190 112 146 190 112 146 190 112 146 190 112 146 190 
112 146 190 112 146 190 112 146 190 112 146 190 112 146 190 
112 146 190 112 146 190 112 146 190 112 146 190 112 146 190 
112 146 190 112 146 190 112 146 190 112 146 190 112 146 190 
112 146 190 112 146 190 112 146 190 112 146 190 112 146 190 
112 146 190 112 146 190 112 146 190 112 146 190 112 146 190 
112 146 190 112 146 190 112 146 190 112 146 190 112 146 190 
112 146 190 255 0 255 255 0 255 255 0 255 255 0 255 
255 0 255 255 0 255 255 0 255 255 0 255 255 0 255 
255 0 255 255 0 255 255 0 255 255 0 255 255 0 255 
255 0 255 255 0 255 255 0 255 255 0 255 255 0 255 
255 0 255 255 0 255 255 0 255 255 0 255 255 0 255 
255 0 255 255 0 255 255 0 255 255 0 255 255 0 255 
255 0 255 255 0 255 255 0 255 255 0 255 255 0 255 
255 0 255 255 0 255 112 146 190 112 146 190 112 146 190 
112 146 190 112 146 190 112 146 190 112 146 190 112 146 190 
112 146 190 112 146 190 112 146 190 112 146 190 112 146 190 
112 146 190 112 146 190 112 146 190 112 146 190 112 146 190 
112 146 190 112 146 190 112 146 190 112 146 190 112 146 190 
112 146 190 112 146 190 112 146 190 112 146 190 112 146 190 
112 146 190 112 146 190 112 146 190 112 146 190 112 146 190 
112 146 190 112 146 190 112 146 190 112 146 190 112 146 190 
112 146 190 112 146 190 112 146 190 255 0 255 255 0 255 
255 0 255 255 0 255 255 0 255 255 0 255 255 0 255 
255 0 255 255 0 255 255 0 255 255 0 255 255 0 255 
255 0 255 255 0 255 255 0 255 255 0 255 255 0 255 
255 0 255 255 0 255 255 0 255 255 0 255 255 0 255 
255 0 255 255 0 255 255 0 255 255 0 255 255 0 255 
255 0 255 255 0 255 255 0 255 255 0 255 255 0 255 
112 146 190 112 146 190 112 146 190 112 146 190 112 146 190 
112 146 190 112 146 190 112 146 190 112 146 190 112 146 190 
112 146 190 112 146 190 112 146 190 112 146 190 112 146 190 
112 146 190 112 146 190 112 146 190 112 146 190 112 146 190 
112 146 190 112 146 190 112 146 190 112 146 190 112 146 190 
112 146 190 112 146 190 112 146 190 112 146 190 112 146 190 
112 146 190 112 146 190 112 146 190 112 146 190 112 146 190 
112 146 190 112 146 190 112 146 190 112 146 190 112 146 190 
112 146 190 112 146 190 112 146 190 112 146 190 112 146 190 
255 0 255 255 0 255 255 0 255 255 0 255 255 0 255 
255 0 255 255 0 255 255 0 255 255 0 255 255 0 255 
255 0 255 255 0 255 255 0 255 255 0 255 255 0 255 
255 0 255 255 0 255 255 0 255 255 0 255 255 0 255 
255 0 255 255 0 255 255 0 255 255 0 255 255 0 255 
255 0 255 255 0 255 255 0 255 112 146 190 112 146 190 
112 146 190 112 146 190 112 146 190 112 146 190 112 146 190 
112 146 190 112 146 190 112 146 190 112 146 190 112 146 190 
112 146 190 112 146 190 112 146 190 112 146 190 112 146 190 
112 146 190 112 146 190 112 146 190 112 146 190 112 146 190 
112 146 190 112 146 190 112 146 190 112 146 190 112 146 190 
112 146 190 112 146 190 112 146 190 112 146 190 112 146 190 
112 146 190 112 146 190 112 146 190 112 146 190 112 146 190 
112 146 190 112 146 190 112 146 190 112 146 190 112 146 190 
112 146 190 112 146 190 112 146 190 112 146 190 112 146 190 
112 146 190 112 146 190 255 0 255 255 0 255 255 0 255 
255 0 255 255 0 255 255 0 255 255 0 255 255 0 255 
255 0 255 255 0 255 255 0 255 255 0 255 255 0 255 
255 0 255 255 0 255 255 0 255 255 0 255 255 0 255 
255 0 255 255 0 255 255 0 255 255 0 255 255 0 255 
255 0 255 255 0 255 112 146 190 112 146 190 112 146 190 
112 146 190 112 146 190 112 146 190 112 146 190 112 146 190 
112 146 190 112 146 190 112 146 190 112 146 190 112 146 190 
112 146 190 112 146 190 112 146 190 112 146 190 112 146 190 
112 146 190 112 146 190 112 146 190 112 146 190 112 146 190 
112 146 190 112 146 190 112 146 190 112 146 190 112 146 190 
112 146 190 112 146 190 112 146 190 112 146 190 112 146 190 
112 146 190 112 146 190 112 146 190 112 146 190 112 146 190 
112 146 190 112 146 190 112 146 190 112 146 190 112 146 190 
112 146 190 112 146 190 112 146 190 112 146 190 112 146 190 
112 146 190 112 146 190 112 146 190 255 0 255 255 0 255 
255 0 255 255 0 255 255 0 255 255 0 255 255 0 255 
255 0 255 255 0 255 255 0 255 255 0 255 255 0 255 
255 0 255 255 0 255 255 0 255 255 0 255 255 0 255 
255 0 255 255 0 255 255 0 255 255 0 255 255 0 255 
112 146 190 112 146 190 112 146 190 112 146 190 112 146 190 
112 146 190 112 146 190 112 146 190 112 146 190 112 146 190 
112 146 190 112 146 190 112 146 190 112 146 190 112 146 190 
112 146 190 112 146 190 112 146 190 112 146 190 112 146 190 
112 146 190 112 146 190 112 146 190 112 146 190 112 146 190 
112 146 190 112 146 190 112 146 190 112 146 190 112 146 190 
112 146 190 112 146 190 112 146 190 112 146 190 112 146 190 
112 146 190 112 146 190 112 146 190 112 146 190 112 146 190 
112 146 190 112 146 190 112 146 190 112 146 190 112 146 190 
112 146 190 112 146 190 112 146 190 112 146 190 112 146 190 
112 146 190 112 146 190 112 146 190 112 146 190 112 146 190 
255 0 255 255 0 255 255 0 255 255 0 255 255 0 255 
255 0 255 255 0 255 255 0 255 255 0 255 255 0 255 
255 0 255 255 0 255 255 0 255 255 0 255 255 0 255 
255 0 255 255 0 255 255 0 255 112 146 190 112 146 190 
112 146 190 112 146 190 112 146 190 112 146 190 112 146 190 
112 146 190 112 146 190 112 146 190 112 146 190 112 146 190 
112 146 190 112 146 190 112 146 190 112 146 190 112 146 190 
112 146 190 112 146 190 112 146 190 112 146 190 112 146 190 
112 146 190 112 146 190 112 146 190 112 146 190 112 146 190 
112 146 190 112 146 190 112 146 190 112 146 190 112 146 190 
112 146 190 112 146 190 112 146 190 112 146 190 112 146 190 
112 146 190 112 146 190 112 146 190 112 146 190 112 146 190 
112 146 190 112 146 190 112 146 190 112 146 190 112 146 190 
112 146 190 112 146 190 112 146 190 112 146 190 112 146 190 
112 146 190 112 146 190 112 146 190 112 146 190 112 146 190 
112 146 190 112 146 190 255 0 255 255 0 255 255 0 255 
255 0 255 255 0 255 255 0 255 255 0 255 255 0 255 
255 0 255 255 0 255 255 0 255 255 0 255 255 0 255 
255 0 255 112 146 190 112 146 190 112 146 190 112 146 190 
112 146 190 112 146 190 112 146 190 112 146 190 112 146 190 
112 146 190 112 146 190 112 146 190 112 146 190 112 146 190 
112 146 190 112 146 190 112 146 190 112 146 190 112 146 190 
112 146 190 112 146 190 112 146 190 112 146 190 112 146 190 
112 146 190 112 146 190 112 146 190 112 146 190 112 146 190 
112 146 190 112 146 190 112 146 190 112 146 190 112 146 190 
112 146 190 112 146 190 112 146 190 112 146 190 112 146 190 
112 146 190 112 146 190 112 146 190 112 146 190 112 146 190 
112 146 190 112 146 190 112 146 190 112 146 190 112 146 190 
112 146 190 112 146 190 112 146 190 112 146 190 112 146 190 
112 146 190 112 146 190 112 146 190 112 146 190 112 146 190 
112 146 190 112 146 190 112 146 190 112 146 190 255 0 255 
255 0 255 255 0 255 255 0 255 255 0 255 255 0 255 
255 0 255 255 0 255 255 0 255 255 0 255 255 0 255 
112 146 190 112 146 190 112 146 190 112 146 190 112 146 190 
112 146 190 112 146 190 112 146 190 112 146 190 112 146 190 
112 146 190 112 146 190 112 146 190 112 146 190 112 146 190 
112 146 190 112 146 190 112 146 190 112 146 190 112 146 190 
112 146 190 112 146 190 112 146 190 112 146 190 112 146 190 
112 146 190 112 146 190 112 146 190 112 146 190 112 146 190 
112 146 190 112 146 190 112 146 190 112 146 190 112 146 190 
112 146 190 112 146 190 112 146 190 112 146 190 112 146 190 
112 146 190 112 146 190 112 146 190 112 146 190 112 146 190 
112 146 190 112 146 190 112 146 190 112 146 190 112 146 190 
112 146 190 112 146 190 112 146 190 112 146 190 112 146 190 
112 146 190 112 146 190 112 146 190 112 146 190 112 146 190 
112 146 190 112 146 190 112 146 190 112 146 190 112 146 190 
255 0 255 255 0 255 255 0 255 255 0 255 255 0 255 
255 0 255 255 0 255 255 0 255 112 146 190 112 146 190 
112 146 190 112 146 190 112 146 190 112 146 190 112 146 190 
112 146 190 112 146 190 112 146 190 112 146 190 112 146 190 
112 146 190 112 146 190 112 146 190 112 146 190 112 146 190 
112 146 190 112 146 190 112 146 190 112 146 190 112 146 190 
112 146 190 112 146 190 112 146 190 112 146 190 112 146 190 
112 146 190 112 146 190 112 146 190 112 146 190 112 146 190 
112 146 190 112 146 190 112 146 190 112 146 190 112 146 190 
112 146 190 112 146 190 112 146 190 112 146 190 112 146 190 
112 146 190 112 146 190 112 146 190 112 146 190 112 146 190 
112 146 190 112 146 190 112 146 190 112 146 190 112 146 190 
112 146 190 112 146 190 112 146 190 112 146 190 112 146 190 
112 146 190 112 146 190 112 146 190 112 146 190 112 146 190 
112 146 190 112 146 190 112 146 190 112 146 190 112 146 190 
112 146 190 112 146 190 255 0 255 255 0 255 255 0 255 
255 0 255 112 146 190 112 146 190 112 146 190 112 146 190 
112 146 190 112 146 190 112 146 190 112 146 190 112 146 190 
112 146 190 112 146 190 112 146 190 112 146 190 112 146 190 
112 146 190 112 146 190 112 146 190 112 146 190 112 146 190 
112 146 190 112 146 190 112 146 190 112 146 190 112 146 190 
112 146 190 112 146 190 112 146 190 112 146 190 112 146 190 
112 146 190 112 146 190 112 146 190 112 146 190 112 146 190 
112 146 190 112 146 190 112 146 190 112 146 190 112 146 190 
112 146 190 112 146 190 112 146 190 112 146 190 112 146 190 
112 146 190 112 146 190 112 146 190 112 146 190 112 146 190 
112 146 190 112 146 190 112 146 190 112 146 190 112 146 190 
112 146 190 112 146 190 112 146 190 112 146 190 112 146 190 
112 146 190 112 146 190 112 146 190 112 146 190 112 146 190 
112 146 190 112 146 190 112 146 190 112 146 190 112 146 190 
112 146 190 112 146 190 112 146 190 112 146 190 255 0 255 
112 146 190 112 146 190 112 146 190 112 146 190 112 146 190 
112 146 190 112 146 190 112 146 190 112 146 190 112 146 190 
112 146 190 112 146 190 112 146 190 112 146 190 112 146 190 
112 146 190 112 146 190 112 146 190 112 146 190 112 146 190 
112 146 190 112 146 190 112 146 190 112 146 190 112 146 190 
112 146 190 112 146 190 112 146 190 112 146 190 112 146 190 
112 146 190 112 146 190 112 146 190 112 146 190 112 146 190 
112 146 190 112 146 190 112 146 190 112 146 190 112 146 190 
112 146 190 112 146 190 112 146 190 112 146 190 112 146 190 
112 146 190 112 146 190 112 146 190 112 146 190 112 146 190 
112 146 190 112 146 190 112 146 190 112 146 190 112 146 190 
112 146 190 112 146 190 112 146 190 112 146 190 112 146 190 
112 146 190 112 146 190 112 146 190 112 146 190 112 146 190 
112 146 190 112 146 190 112 146 190 112 146 190 112 146 190 
112 146 190 112 146 190 112 146 190 112 146 190 112 146 190 
112 146 190 112 146 190 112 146 190 112 146 190 112 146 190 
112 146 190 112 146 190 112 146 190 112 146 190 112 146 190 
112 146 190 112 146 190 112 146 190 112 146 190 112 146 190 
112 146 190 112 146 190 112 146 190 112 146 190 112 146 190 
112 146 190 112 146 190 112 146 190 112 146 190 112 146 190 
112 146 190 112 146 190 112 146 190 112 146 190 112 146 190 
112 146 190 112 146 190 112 146 190 112 146 190 112 146 190 
112 146 190 112 146 190 112 146 190 112 146 190 112 146 190 
112 146 190 112 146 190 112 146 190 112 146 190 112 146 190 
112 146 190 112 146 190 112 146 190 112 146 190 112 146 190 
112 146 190 112 146 190 112 146 190 112 146 190 112 146 190 
112 146 190 112 146 190 112 146 190 112 146 190 112 146 190 
112 146 190 112 146 190 112 146 190 112 146 190 112 146 190 
112 146 190 112 146 190 112 146 190 112 146 190 112 146 190 
112 146 190 112 146 190 112 146 190 112 146 190 112 146 190 
112 146 190 112 146 190 112 146 190 112 146 190 112 146 190 
112 146 190 112 146 190 112 146 190 112 146 190 112 146 190 
112 146 190 112 146 190 112 146 190 112 146 190 112 146 190 
112 146 190 112 146 190 112 146 190 112 146 190 112 146 190 
112 146 190 112 146 190 112 146 190 112 146 190 112 146 190 
112 146 190 112 146 190 112 146 190 112 146 190 112 146 190 
112 146 190 112 146 190 112 146 190 112 146 190 112 146 190 
112 146 190 112 146 190 112 146 190 112 146 190 112 146 190 
112 146 190 112 146 190 112 146 190 112 146 190 112 146 190 
112 146 190 112 146 190 112 146 190 112 146 190 112 146 190 
112 146 190 112 146 190 112 146 190 112 146 190 112 146 190 
112 146 190 112 146 190 112 146 190 112 146 190 112 146 190 
112 146 190 112 146 190 112 146 190 112 146 190 112 146 190 
112 146 190 112 146 190 112 146 190 112 146 190 112 146 190 
112 146 190 112 146 190 112 146 190 112 146 190 112 146 190 
112 146 190 112 146 190 112 146 190 112 146 190 112 146 190 
112 146 190 112 146 190 112 146 190 112 146 190 112 146 190 
112 146 190 112 146 190 112 146 190 112 146 190 112 146 190 
112 146 190 112 146 190 112 146 190 112 146 190 112 146 190 
112 146 190 112 146 190 112 146 190 112 146 190 112 146 190 
112 146 190 112 146 190 112 146 190 112 146 190 112 146 190 
112 146 190 112 146 190 112 146 190 112 146 190 112 146 190 
112 146 190 112 146 190 112 146 190 112 146 190 112 146 190 
112 146 190 112 146 190 112 146 190 112 146 190 112 146 190 
112 146 190 112 146 190 112 146 190 112 146 190 112 146 190 
112 146 190 112 146 190 112 146 190 112 146 190 112 146 190 
112 146 190 112 146 190 112 146 190 112 146 190 112 146 190 
112 146 190 112 146 190 112 146 190 112 146 190 112 146 190 
112 146 190 112 146 190 112 146 190 112 146 190 112 146 190 
112 146 190 112 146 190 112 146 190 112 146 190 112 146 190 
112 146 190 112 146 190 112 146 190 112 146 190 112 146 190 
112 146 190 112 146 190 112 146 190 112 146 190 112 146 190 
112 146 190 112 146 190 112 146 190 112 146 190 112 146 190 
112 146 190 112 146 190 112 146 190 112 146 190 112 146 190 
112 146 190 112 146 190 112 146 190 112 146 190 112 146 190 
112 146 190 112 146 190 112 146 190 112 146 190 112 146 190 
112 146 190 112 146 190 112 146 190 112 146 190 112 146 190 
112 146 190 112 146 190 112 146 190 112 146 190 112 146 190 
112 146 190 112 146 190 112 146 190 112 146 190 112 146 190 
112 146 190 112 146 190 112 146 190 112 146 190 112 146 190 
112 146 190 112 146 190 112 146 190 112 146 190 112 146 190 
112 146 190 112 146 190 112 146 190 112 146 190 112 146 190 
112 146 190 112 146 190 112 146 190 112 146 190 112 146 190 
112 146 190 112 146 190 112 146 190 112 146 190 112 146 190 
112 146 190 112 146 190 112 146 190 112 146 190 112 146 190 
112 146 190 112 146 190 112 146 190 112 146 190 112 146 190 
112 146 190 112 146 190 112 146 190 112 146 190 112 146 190 
112 146 190 112 146 190 112 146 190 112 146 190 112 146 190 
112 146 190 112 146 190 112 146 190 112 146 190 112 146 190 
112 146 190 112 146 190 112 146 190 112 146 190 112 146 190 
112 146 190 112 146 190 112 146 190 112 146 190 112 146 190 
112 146 190 112 146 190 112 146 190 112 146 190 112 146 190 
112 146 190 112 146 190 112 146 190 112 146 190 112 146 190 
112 146 190 112 146 190 112 146 190 112 146 190 112 146 190 
112 146 190 112 146 190 112 146 190 112 146 190 112 146 190 
112 146 190 112 146 190 112 146 190 112 146 190 112 146 190 
112 146 190 112 146 190 112 146 190 112 146 190 112 146 190 
112 146 190 112 146 190 112 146 190 112 146 190 112 146 190 
112 146 190 112 146 190 112 146 190 112 146 190 112 146 190 
112 146 190 112 146 190 112 146 190 112 146 190 112 146 190 
255 0 255 112 146 190 112 146 190 112 146 190 112 146 190 
112 146 190 112 146 190 112 146 190 112 146 190 112 146 190 
112 146 190 112 146 190 112 146 190 112 146 190 112 146 190 
112 146 190 112 146 190 112 146 190 112 146 190 112 146 190 
112 146 190 112 146 190 112 146 190 112 146 190 112 146 190 
112 146 190 112 146 190 112 146 190 112 146 190 112 146 190 
112 146 190 112 146 190 112 146 190 112 146 190 112 146 190 
112 146 190 112 146 190 112 146 190 112 146 190 112 146 190 
112 146 190 112 146 190 112 146 190 112 146 190 112 146 190 
112 146 190 112 146 190 112 146 190 112 146 190 112 146 190 
112 146 190 112 146 190 112 146 190 112 146 190 112 146 190 
112 146 190 112 146 190 112 146 190 112 146 190 112 146 190 
112 146 190 112 146 190 112 146 190 112 146 190 112 146 190 
112 146 190 112 146 190 112 146 190 112 146 190 112 146 190 
112 146 190 112 146 190 112 146 190 112 146 190 255 0 255 
255 0 255 255 0 255 255 0 255 112 146 190 112 146 190 
112 146 190 112 146 190 112 146 190 112 146 190 112 146 190 
112 146 190 112 146 190 112 146 190 112 146 190 112 146 190 
112 146 190 112 146 190 112 146 190 112 146 190 112 146 190 
112 146 190 112 146 190 112 146 190 112 146 190 112 146 190 
112 146 190 112 146 190 112 146 190 112 146 190 112 146 190 
112 146 190 112 146 190 112 146 190 112 146 190 112 146 190 
112 146 190 112 146 190 112 146 190 112 146 190 112 146 190 
112 146 190 112 146 190 112 146 190 112 146 190 112 146 190 
112 146 190 112 146 190 112 146 190 112 146 190 112 146 190 
112 146 190 112 146 190 112 146 190 112 146 190 112 146 190 
112 146 190 112 146 190 112 146 190 112 146 190 112 146 190 
112 146 190 112 146 190 112 146 190 112 146 190 112 146 190 
112 146 190 112 146 190 112 146 190 112 146 190 112 146 190 
112 146 190 112 146 190 255 0 255 255 0 255 255 0 255 
255 0 255 255 0 255 255 0 255 255 0 255 112 146 190 
112 146 190 112 146 190 112 146 190 112 146 190 112 146 190 
112 146 190 112 146 190 112 146 190 112 146 190 112 146 190 
112 146 190 112 146 190 112 146 190 112 146 190 112 146 190 
112 146 190 112 146 190 112 146 190 112 146 190 112 146 190 
112 146 190 112 146 190 112 146 190 112 146 190 112 146 190 
112 146 190 112 146 190 112 146 190 112 146 190 112 146 190 
112 146 190 112 146 190 112 146 190 112 146 190 112 146 190 
112 146 190 112 146 190 112 146 190 112 146 190 112 146 190 
112 146 190 112 146 190 112 146 190 112 146 190 112 146 190 
112 146 190 112 146 190 112 146 190 112 146 190 112 146 190 
112 146 190 112 146 190 112 146 190 112 146 190 112 146 190 
112 146 190 112 146 190 112 146 190 112 146 190 112 146 190 
112 146 190 112 146 190 112 146 190 112 146 190 112 146 190 
112 146 190 255 0 255 255 0 255 255 0 255 255 0 255 
255 0 255 255 0 255 255 0 255 255 0 255 255 0 255 
255 0 255 112 146 190 112 146 190 112 146 190 112 146 190 
112 146 190 112 146 190 112 146 190 112 146 190 112 146 190 
112 146 190 112 146 190 112 146 190 112 146 190 112 146 190 
112 146 190 112 146 190 112 146 190 112 146 190 112 146 190 
112 146 190 112 146 190 112 146 190 112 146 190 112 146 190 
112 146 190 112 146 190 112 146 190 112 146 190 112 146 190 
112 146 190 112 146 190 112 146 190 112 146 190 112 146 190 
112 146 190 112 146 190 112 146 190 112 146 190 112 146 190 
112 146 190 112 146 190 112 146 190 112 146 190 112 146 190 
112 146 190 112 146 190 112 146 190 112 146 190 112 146 190 
112 146 190 112 146 190 112 146 190 112 146 190 112 146 190 
112 146 190 112 146 190 112 146 190 112 146 190 112 146 190 
112 146 190 112 146 190 112 146 190 112 146 190 255 0 255 
255 0 255 255 0 255 255 0 255 255 0 255 255 0 255 
255 0 255 255 0 255 255 0 255 255 0 255 255 0 255 
255 0 255 255 0 255 112 146 190 112 146 190 112 146 190 
112 146 190 112 146 190 112 146 190 112 146 190 112 146 190 
112 146 190 112 146 190 112 146 190 112 146 190 112 146 190 
112 146 190 112 146 190 112 146 190 112 146 190 112 146 190 
112 146 190 112 146 190 112 146 190 112 146 190 112 146 190 
112 146 190 112 146 190 112 146 190 112 146 190 112 146 190 
112 146 190 112 146 190 112 146 190 112 146 190 112 146 190 
112 146 190 112 146 190 112 146 190 112 146 190 112 146 190 
112 146 190 112 146 190 112 146 190 112 146 190 112 146 190 
112 146 190 112 146 190 112 146 190 112 146 190 112 146 190 
112 146 190 112 146 190 112 146 190 112 146 190 112 146 190 
112 146 190 112 146 190 112 146 190 112 146 190 112 146 190 
112 146 190 112 146 190 112 146 190 255 0 255 255 0 255 
255 0 255 255 0 255 255 0 255 255 0 255 255 0 255 
255 0 255 255 0 255 255 0 255 255 0 255 255 0 255 
255 0 255 255 0 255 255 0 255 255 0 255 112 146 190 
112 146 190 112 146 190 112 146 190 112 146 190 112 146 190 
112 146 190 112 146 190 112 146 190 112 146 190 112 146 190 
112 146 190 112 146 190 112 146 190 112 146 190 112 146 190 
112 146 190 112 146 190 112 146 190 112 146 190 112 146 190 
112 146 190 112 146 190 112 146 190 112 146 190 112 146 190 
112 146 190 112 146 190 112 146 190 112 146 190 112 146 190 
112 146 190 112 146 190 112 146 190 112 146 190 112 146 190 
112 146 190 112 146 190 112 146 190 112 146 190 112 146 190 
112 146 190 112 146 190 112 146 190 112 146 190 112 146 190 
112 146 190 112 146 190 112 146 190 112 146 190 112 146 190 
112 146 190 112 146 190 112 146 190 112 146 190 112 146 190 
112 146 190 255 0 255 255 0 255 255 0 255 255 0 255 
255 0 255 255 0 255 255 0 255 255 0 255 255 0 255 
255 0 255 255 0 255 255 0 255 255 0 255 255 0 255 
255 0 255 255 0 255 255 0 255 255 0 255 255 0 255 
255 0 255 112 146 190 112 146 190 112 146 190 112 146 190 
112 146 190 112 146 190 112 146 190 112 146 190 112 146 190 
112 146 190 112 146 190 112 146 190 112 146 190 112 146 190 
112 146 190 112 146 190 112 146 190 112 146 190 112 146 190 
112 146 190 112 146 190 112 146 190 112 146 190 112 146 190 
112 146 190 112 146 190 112 146 190 112 146 190 112 146 190 
112 146 190 112 146 190 112 146 190 112 146 190 112 146 190 
112 146 190 112 146 190 112 146 190 112 146 190 112 146 190 
112 146 190 112 146 190 112 146 190 112 146 190 112 146 190 
112 146 190 112 146 190 112 146 190 112 146 190 112 146 190 
112 146 190 112 146 190 112 146 190 112 146 190 112 146 190 
255 0 255 255 0 255 255 0 255 255 0 255 255 0 255 
255 0 255 255 0 255 255 0 255 255 0 255 255 0 255 
255 0 255 255 0 255 255 0 255 255 0 255 255 0 255 
255 0 255 255 0 255 255 0 255 255 0 255 255 0 255 
255 0 255 255 0 255 112 146 190 112 146 190 112 146 190 
112 146 190 112 146 190 112 146 190 112 146 190 112 146 190 
112 146 190 112 146 190 112 146 190 112 146 190 112 146 190 
112 146 190 112 146 190 112 146 190 112 146 190 112 146 190 
112 146 190 112 146 190 112 146 190 112 146 190 112 146 190 
112 146 190 112 146 190 112 146 190 112 146 190 112 146 190 
112 146 190 112 146 190 112 146 190 112 146 190 112 146 190 
112 146 190 112 146 190 112 146 190 112 146 190 112 146 190 
112 146 190 112 146 190 112 146 190 112 146 190 112 146 190 
112 146 190 112 146 190 112 146 190 112 146 190 112 146 190 
112 146 190 112 146 190 112 146 190 255 0 255 255 0 255 
255 0 255 255 0 255 255 0 255 255 0 255 255 0 255 
255 0 255 255 0 255 255 0 255 255 0 255 255 0 255 
255 0 255 255 0 255 255 0 255 255 0 255 255 0 255 
255 0 255 255 0 255 255 0 255 255 0 255 255 0 255 
255 0 255 255 0 255 255 0 255 255 0 255 112 146 190 
112 146 190 112 146 190 112 146 190 112 146 190 112 146 190 
112 146 190 112 146 190 112 146 190 112 146 190 112 146 190 
112 146 190 112 146 190 112 146 190 112 146 190 112 146 190 
112 146 190 112 146 190 112 146 190 112 146 190 112 146 190 
112 146 190 112 146 190 112 146 190 112 146 190 112 146 190 
112 146 190 112 146 190 112 146 190 112 146 190 112 146 190 
112 146 190 112 146 190 112 146 190 112 146 190 112 146 190 
112 146 190 112 146 190 112 146 190 112 146 190 112 146 190 
112 146 190 112 146 190 112 146 190 112 146 190 112 146 190 
112 146 190 255 0 255 255 0 255 255 0 255 255 0 255 
255 0 255 255 0 255 255 0 255 255 0 255 255 0 255 
255 0 255 255 0 255 255 0 255 255 0 255 255 0 255 
255 0 255 255 0 255 255 0 255 255 0 255 255 0 255 
255 0 255 255 0 255 255 0 255 255 0 255 255 0 255 
255 0 255 255 0 255 255 0 255 255 0 255 255 0 255 
112 146 190 112 146 190 112 146 190 112 146 190 112 146 190 
112 146 190 112 146 190 112 146 190 112 146 190 112 146 190 
112 146 190 112 146 190 112 146 190 112 146 190 112 146 190 
112 146 190 112 146 190 112 146 190 112 146 190 112 146 190 
112 146 190 112 146 190 112 146 190 112 146 190 112 146 190 
112 146 190 112 146 190 112 146 190 112 146 190 112 146 190 
112 146 190 112 146 190 112 146 190 112 146 190 112 146 190 
112 146 190 112 146 190 112 146 190 112 146 190 112 146 190 
112 146 190 112 146 190 112 146 190 112 146 190 112 146 190 
255 0 255 255 0 255 255 0 255 255 0 255 255 0 255 
255 0 255 255 0 255 255 0 255 255 0 255 255 0 255 
255 0 255 255 0 255 255 0 255 255 0 255 255 0 255 
255 0 255 255 0 255 255 0 255 255 0 255 255 0 255 
255 0 255 255 0 255 255 0 255 255 0 255 255 0 255 
255 0 255 255 0 255 255 0 255 255 0 255 255 0 255 
255 0 255 255 0 255 112 146 190 112 146 190 112 146 190 
112 146 190 112 146 190 112 146 190 112 146 190 112 146 190 
112 146 190 112 146 190 112 146 190 112 146 190 112 146 190 
112 146 190 112 146 190 112 146 190 112 146 190 112 146 190 
112 146 190 112 146 190 112 146 190 112 146 190 112 146 190 
112 146 190 112 146 190 112 146 190 112 146 190 112 146 190 
112 146 190 112 146 190 112 146 190 112 146 190 112 146 190 
112 146 190 112 146 190 112 146 190 112 146 190 112 146 190 
112 146 190 112 146 190 112 146 190 255 0 255 255 0 255 
255 0 255 255 0 255 255 0 255 255 0 255 255 0 255 
255 0 255 255 0 255 255 0 255 255 0 255 255 0 255 
255 0 255 255 0 255 255 0 255 255 0 255 255 0 255 
255 0 255 255 0 255 255 0 255 255 0 255 255 0 255 
255 0 255 255 0 255 255 0 255 255 0 255 255 0 255 
255 0 255 255 0 255 255 0 255 255 0 255 255 0 255 
255 0 255 255 0 255 255 0 255 112 146 190 112 146 190 
112 146 190 112 146 190 112 146 190 112 146 190 112 146 190 
112 146 190 112 146 190 112 146 190 112 146 190 112 146 190 
112 146 190 112 146 190 112 146 190 112 146 190 112 146 190 
112 146 190 112 146 190 112 146 190 112 146 190 112 146 190 
112 146 190 112 146 190 112 146 190 112 146 190 112 146 190 
112 146 190 112 146 190 112 146 190 112 146 190 112 146 190 
112 146 190 112 146 190 112 146 190 112 146 190 112 146 190 
112 146 190 112 146 190 255 0 255 255 0 255 255 0 255 
255 0 255 255 0 255 255 0 255 255 0 255 255 0 255 
255 0 255 255 0 255 255 0 255 255 0 255 255 0 255 
255 0 255 255 0 255 255 0 255 255 0 255 255 0 255 
255 0 255 255 0 255 255 0 255 255 0 255 255 0 255 
255 0 255 255 0 255 255 0 255 255 0 255 255 0 255 
255 0 255 255 0 255 255 0 255 255 0 255 255 0 255 
255 0 255 255 0 255 255 0 255 255 0 255 255 0 255 
112 146 190 112 146 190 112 146 190 112 146 190 112 146 190 
112 146 190 112 146 190 112 146 190 112 146 190 112 146 190 
112 146 190 112 146 190 112 146 190 112 146 190 112 146 190 
112 146 190 112 146 190 112 146 190 112 146 190 112 146 190 
112 146 190 112 146 190 112 146 190 112 146 190 112 146 190 
112 146 190 112 146 190 112 146 190 112 146 190 112 146 190 
112 146 190 112 146 190 112 146 190 112 146 190 112 146 190 
255 0 255 255 0 255 255 0 255 255 0 255 255 0 255 
255 0 255 255 0 255 255 0 255 255 0 255 255 0 255 
255 0 255 255 0 255 255 0 255 255 0 255 255 0 255 
255 0 255 255 0 255 255 0 255 255 0 255 255 0 255 
255 0 255 255 0 255 255 0 255 255 0 255 255 0 255 
255 0 255 255 0 255 255 0 255 255 0 255 255 0 255 
255 0 255 255 0 255 255 0 255 255 0 255 255 0 255 
255 0 255 255 0 255 255 0 255 255 0 255 255 0 255 
255 0 255 255 0 255 112 146 190 112 146 190 112 146 190 
112 146 190 112 146 190 112 146 190 112 146 190 112 146 190 
112 146 190 112 146 190 112 146 190 112 146 190 112 146 190 
112 146 190 112 146 190 112 146 190 112 146 190 112 146 190 
112 146 190 112 146 190 112 146 190 112 146 190 112 146 190 
112 146 190 112 146 190 112 146 190 112 146 190 112 146 190 
112 146 190 112 146 190 112 146 190 255 0 255 255 0 255 
255 0 255 255 0 255 255 0 255 255 0 255 255 0 255 
255 0 255 255 0 255 255 0 255 255 0 255 255 0 255 
255 0 255 255 0 255 255 0 255 255 0 255 255 0 255 
255 0 255 255 0 255 255 0 255 255 0 255 255 0 255 
255 0 255 255 0 255 255 0 255 255 0 255 255 0 255 
255 0 255 255 0 255 255 0 255 255 0 255 255 0 255 
255 0 255 255 0 255 255 0 255 255 0 255 255 0 255 
255 0 255 255 0 255 255 0 255 255 0 255 255 0 255 
255 0 255 255 0 255 255 0 255 112 146 190 112 146 190 
112 146 190 112 146 190 112 146 190 112 146 190 112 146 190 
112 146 190 112 146 190 112 146 190 112 146 190 112 146 190 
112 146 190 112 146 190 112 146 190 112 146 190 112 146 190 
112 146 190 112 146 190 112 146 190 112 146 190 112 146 190 
112 146 190 112 146 190 112 146 190 112 146 190 112 146 190 
112 146 190 112 146 190 255 0 255 255 0 255 255 0 255 
255 0 255 255 0 255 255 0 255 255 0 255 255 0 255 
255 0 255 255 0 255 255 0 255 255 0 255 255 0 255 
255 0 255 255 0 255 255 0 255 255 0 255 255 0 255 
255 0 255 255 0 255 255 0 255 255 0 255 255 0 255 
255 0 255 255 0 255 255 0 255 255 0 255 255 0 255 
255 0 255 255 0 255 255 0 255 255 0 255 255 0 255 
255 0 255 255 0 255 255 0 255 255 0 255 255 0 255 
255 0 255 255 0 255 255 0 255 255 0 255 255 0 255 
255 0 255 255 0 255 255 0 255 255 0 255 255 0 255 
112 146 190 112 146 190 112 146 190 112 146 190 112 146 190 
112 146 190 112 146 190 112 146 190 112 146 190 112 146 190 
112 146 190 112 146 190 112 146 190 112 146 190 112 146 190 
112 146 190 112 146 190 112 146 190 112 146 190 112 146 190 
112 146 190 112 146 190 112 146 190 112 146 190 112 146 190 
255 0 255 255 0 255 255 0 255 255 0 255 255 0 255 
255 0 255 255 0 255 255 0 255 255 0 255 255 0 255 
255 0 255 255 0 255 255 0 255 255 0 255 255 0 255 
255 0 255 255 0 255 255 0 255 255 0 255 255 0 255 
255 0 255 255 0 255 255 0 255 255 0 255 255 0 255 
255 0 255 255 0 255 255 0 255 255 0 255 255 0 255 
255 0 255 255 0 255 255 0 255 255 0 255 255 0 255 
255 0 255 255 0 255 255 0 255 255 0 255 255 0 255 
255 0 255 255 0 255 255 0 255 255 0 255 255 0 255 
255 0 255 255 0 255 255 0 255 255 0 255 255 0 255 
255 0 255 112 146 190 112 146 190 112 146 190 112 146 190 
112 146 190 112 146 190 112 146 190 112 146 190 112 146 190 
112 146 190 112 146 190 112 146 190 112 146 190 112 146 190 
112 146 190 112 146 190 112 146 190 112 146 190 112 146 190 
112 146 190 112 146 190 112 146 190 112 146 190 255 0 255 
255 0 255 255 0 255 255 0 255 255 0 255 255 0 255 
255 0 255 255 0 255 255 0 255 255 0 255 255 0 255 
255 0 255 255 0 255 255 0 255 255 0 255 255 0 255 
255 0 255 255 0 255 255 0 255 255 0 255 255 0 255 
255 0 255 255 0 255 255 0 255 255 0 255 255 0 255 
255 0 255 255 0 255 255 0 255 255 0 255 255 0 255 
255 0 255 255 0 255 255 0 255 255 0 255 255 0 255 
255 0 255 255 0 255 255 0 255 255 0 255 255 0 255 
255 0 255 255 0 255 255 0 255 255 0 255 255 0 255 
255 0 255 255 0 255 255 0 255 255 0 255 255 0 255 
255 0 255 255 0 255 255 0 255 112 146 190 112 146 190 
112 146 190 112 146 190 112 146 190 112 146 190 112 146 190 
112 146 190 112 146 190 112 146 190 112 146 190 112 146 190 
112 146 190 112 146 190 112 146 190 112 146 190 112 146 190 
112 146 190 112 146 190 255 0 255 255 0 255 255 0 255 
255 0 255 255 0 255 255 0 255 255 0 255 255 0 255 
255 0 255 255 0 255 255 0 255 255 0 255 255 0 255 
255 0 255 255 0 255 255 0 255 255 0 255 255 0 255 
255 0 255 255 0 255 255 0 255 255 0 255 255 0 255 
255 0 255 255 0 255 255 0 255 255 0 255 255 0 255 
255 0 255 255 0 255 255 0 255 255 0 255 255 0 255 
255 0 255 255 0 255 255 0 255 255 0 255 255 0 255 
255 0 255 255 0 255 255 0 255 255 0 255 255 0 255 
255 0 255 255 0 255 255 0 255 255 0 255 255 0 255 
255 0 255 255 0 255 255 0 255 255 0 255 255 0 255 
255 0 255 255 0 255 255 0 255 255 0 255 255 0 255 
112 146 190 112 146 190 112 146 190 112 146 190 112 146 190 
112 146 190 112 146 190 112 146 190 112 146 190 112 146 190 
112 146 190 112 146 190 112 146 190 112 146 190 112 146 190 
255 0 255 255 0 255 255 0 255 255 0 255 255 0 255 
255 0 255 255 0 255 255 0 255 255 0 255 255 0 255 
255 0 255 255 0 255 255 0 255 255 0 255 255 0 255 
255 0 255 255 0 255 255 0 255 255 0 255 255 0 255 
255 0 255 255 0 255 255 0 255 255 0 255 255 0 255 
255 0 255 255 0 255 255 0 255 255 0 255 255 0 255 
255 0 255 255 0 255 255 0 255 255 0 255 255 0 255 
255 0 255 255 0 255 255 0 255 255 0 255 255 0 255 
255 0 255 255 0 255 255 0 255 255 0 255 255 0 255 
255 0 255 255 0 255 255 0 255 255 0 255 255 0 255 
255 0 255 255 0 255 255 0 255 255 0 255 255 0 255 
255 0 255 255 0 255 255 0 255 255 0 255 255 0 255 
255 0 255 112 146 190 112 146 190 112 146 190 112 146 190 
112 146 190 112 146 190 112 146 190 112 146 190 112 146 190 
112 146 190 112 146 190 112 146 190 112 146 190 255 0 255 
255 0 255 255 0 255 255 0 255 255 0 255 255 0 255 
255 0 255 255 0 255 255 0 255 255 0 255 255 0 255 
255 0 255 255 0 255 255 0 255 255 0 255 255 0 255 
255 0 255 255 0 255 255 0 255 255 0 255 255 0 255 
255 0 255 255 0 255 255 0 255 255 0 255 255 0 255 
255 0 255 255 0 255 255 0 255 255 0 255 255 0 255 
255 0 255 255 0 255 255 0 255 255 0 255 255 0 255 
255 0 255 255 0 255 255 0 255 255 0 255 255 0 255 
255 0 255 255 0 255 255 0 255 255 0 255 255 0 255 
255 0 255 255 0 255 255 0 255 255 0 255 255 0 255 
255 0 255 255 0 255 255 0 255 255 0 255 255 0 255 
255 0 255 255 0 255 255 0 255 255 0 255 255 0 255 
255 0 255 255 0 255 255 0 255 112 146 190 112 146 190 
112 146 190 112 146 190 112 146 190 112 146 190 112 146 190 
112 146 190 112 146 190 255 0 255 255 0 255 255 0 255 
255 0 255 255 0 255 255 0 255 255 0 255 255 0 255 
255 0 255 255 0 255 255 0 255 255 0 255 255 0 255 
255 0 255 255 0 255 255 0 255 255 0 255 255 0 255 
255 0 255 255 0 255 255 0 255 255 0 255 255 0 255 
255 0 255 255 0 255 255 0 255 255 0 255 255 0 255 
255 0 255 255 0 255 255 0 255 255 0 255 255 0 255 
255 0 255 255 0 255 255 0 255 255 0 255 255 0 255 
255 0 255 255 0 255 255 0 255 255 0 255 255 0 255 
255 0 255 255 0 255 255 0 255 255 0 255 255 0 255 
255 0 255 255 0 255 255 0 255 255 0 255 255 0 255 
255 0 255 255 0 255 255 0 255 255 0 255 255 0 255 
255 0 255 255 0 255 255 0 255 255 0 255 255 0 255 
255 0 255 255 0 255 255 0 255 255 0 255 112 146 190 
112 146 190 112 146 190 112 146 190 112 146 190 112 146 190 
112 146 190 255 0 255 255 0 255 255 0 255 255 0 255 
255 0 255 255 0 255 255 0 255 255 0 255 255 0 255 
255 0 255 255 0 255 255 0 255 255 0 255 255 0 255 
255 0 255 255 0 255 255 0 255 255 0 255 255 0 255 
255 0 255 255 0 255 255 0 255 255 0 255 255 0 255 
255 0 255 255 0 255 255 0 255 255 0 255 255 0 255 
255 0 255 255 0 255 255 0 255 255 0 255 255 0 255 
255 0 255 255 0 255 255 0 255 255 0 255 255 0 255 
255 0 255 255 0 255 255 0 255 255 0 255 255 0 255 
255 0 255 255 0 255 255 0 255 255 0 255 255 0 255 
255 0 255 255 0 255 255 0 255 255 0 255 255 0 255 
255 0 255 255 0 255 255 0 255 255 0 255 255 0 255 
255 0 255 255 0 255 255 0 255 255 0 255 255 0 255 
255 0 255 255 0 255 255 0 255 255 0 255 255 0 255 
255 0 255 112 146 190 112 146 190 112 146 190 255 0 255 
255 0 255 255 0 255 255 0 255 255 0 255 255 0 255 
255 0 255 255 0 255 255 0 255 255 0 255 255 0 255 
255 0 255 255 0 255 255 0 255 255 0 255 255 0 255 
255 0 255 255 0 255 255 0 255 255 0 255 255 0 255 
255 0 255 255 0 255 255 0 255 255 0 255 255 0 255 
255 0 255 255 0 255 255 0 255 255 0 255 255 0 255 
255 0 255 255 0 255 255 0 255 255 0 255 255 0 255 
